<svg width="92" height="92" viewBox="0 0 92 92" fill="none" xmlns="http://www.w3.org/2000/svg">
<path d="M79.0748 29.3336H83.4998C85.71 29.3336 87.8296 30.2115 89.3924 31.7743C90.9552 33.3371 91.8332 35.4568 91.8332 37.6669V54.3336C91.8332 56.5437 90.9552 58.6633 89.3924 60.2261C87.8296 61.7889 85.71 62.6669 83.4998 62.6669H79.0748C78.0591 70.7223 74.1385 78.1301 68.0488 83.5002C61.9591 88.8703 54.119 91.8334 45.9998 91.8336V83.5002C52.6303 83.5002 58.9891 80.8663 63.6775 76.1779C68.3659 71.4895 70.9998 65.1306 70.9998 58.5002V33.5002C70.9998 26.8698 68.3659 20.511 63.6775 15.8226C58.9891 11.1342 52.6303 8.50023 45.9998 8.50023C39.3694 8.50023 33.0106 11.1342 28.3222 15.8226C23.6338 20.511 20.9998 26.8698 20.9998 33.5002V62.6669H8.49984C6.2897 62.6669 4.17008 61.7889 2.60728 60.2261C1.04448 58.6633 0.166504 56.5437 0.166504 54.3336V37.6669C0.166504 35.4568 1.04448 33.3371 2.60728 31.7743C4.17008 30.2115 6.2897 29.3336 8.49984 29.3336H12.9248C13.9416 21.279 17.8627 13.8722 23.9522 8.50305C30.0418 3.1339 37.8813 0.171387 45.9998 0.171387C54.1184 0.171387 61.9579 3.1339 68.0474 8.50305C74.137 13.8722 78.058 21.279 79.0748 29.3336ZM8.49984 37.6669V54.3336H12.6665V37.6669H8.49984ZM79.3332 37.6669V54.3336H83.4998V37.6669H79.3332ZM28.3332 61.7711L32.7498 54.7044C36.721 57.192 41.3139 58.5078 45.9998 58.5002C50.6858 58.5078 55.2787 57.192 59.2498 54.7044L63.6665 61.7711C58.3718 65.0883 52.2479 66.8432 45.9998 66.8336C39.7518 66.8432 33.6279 65.0883 28.3332 61.7711Z" fill="white"/>
</svg>
