<svg width="100" height="100" viewBox="0 0 100 100" fill="none" xmlns="http://www.w3.org/2000/svg">
<path d="M22.729 62.5002L4.1665 77.0835V12.5002C4.1665 11.3951 4.60549 10.3353 5.38689 9.55388C6.16829 8.77248 7.2281 8.3335 8.33317 8.3335H70.8332C71.9382 8.3335 72.9981 8.77248 73.7795 9.55388C74.5609 10.3353 74.9998 11.3951 74.9998 12.5002V62.5002H22.729ZM19.8457 54.1668H66.6665V16.6668H12.4998V59.9377L19.8457 54.1668ZM33.3332 70.8335H75.9873L83.3332 76.6043V33.3335H87.4998C88.6049 33.3335 89.6647 33.7725 90.4461 34.5539C91.2275 35.3353 91.6665 36.3951 91.6665 37.5002V93.7502L73.104 79.1668H37.4998C36.3948 79.1668 35.335 78.7278 34.5536 77.9464C33.7722 77.165 33.3332 76.1052 33.3332 75.0002V70.8335Z" fill="white"/>
</svg>
