<svg width="100" height="100" viewBox="0 0 100 100" fill="none" xmlns="http://www.w3.org/2000/svg">
<path d="M50.0002 45.8335C55.5255 45.8335 60.8246 48.0284 64.7316 51.9354C68.6386 55.8424 70.8335 61.1415 70.8335 66.6668V91.6668H62.5002V66.6668C62.5003 63.4785 61.2821 60.4105 59.0948 58.0907C56.9075 55.771 53.9164 54.3747 50.7335 54.1877L50.0002 54.1668C46.8118 54.1667 43.7439 55.3849 41.4241 57.5722C39.1043 59.7595 37.708 62.7506 37.521 65.9335L37.5002 66.6668V91.6668H29.1668V66.6668C29.1668 61.1415 31.3618 55.8424 35.2688 51.9354C39.1758 48.0284 44.4748 45.8335 50.0002 45.8335ZM22.9168 58.3335C24.0793 58.3335 25.2085 58.471 26.2918 58.7252C25.5794 60.846 25.1575 63.0536 25.0377 65.2877L25.0002 66.6668V67.0252C24.5212 66.8538 24.0231 66.7418 23.5168 66.6918L22.9168 66.6668C21.3632 66.6669 19.8652 67.2457 18.7151 68.2902C17.565 69.3348 16.8451 70.7703 16.696 72.3168L16.6668 72.9168V91.6668H8.3335V72.9168C8.3335 69.0491 9.86995 65.3398 12.6049 62.6049C15.3398 59.87 19.0491 58.3335 22.9168 58.3335ZM77.0835 58.3335C80.9512 58.3335 84.6606 59.87 87.3955 62.6049C90.1304 65.3398 91.6668 69.0491 91.6668 72.9168V91.6668H83.3335V72.9168C83.3334 71.3632 82.7547 69.8652 81.7101 68.7151C80.6655 67.565 79.23 66.8452 77.6835 66.696L77.0835 66.6668C76.3543 66.6668 75.6543 66.7918 75.0002 67.021V66.6668C75.0002 63.8918 74.5502 61.2252 73.7127 58.7335C74.7918 58.471 75.921 58.3335 77.0835 58.3335ZM22.9168 33.3335C25.6795 33.3335 28.329 34.431 30.2825 36.3845C32.236 38.338 33.3335 40.9875 33.3335 43.7502C33.3335 46.5128 32.236 49.1624 30.2825 51.1159C28.329 53.0694 25.6795 54.1668 22.9168 54.1668C20.1542 54.1668 17.5046 53.0694 15.5511 51.1159C13.5976 49.1624 12.5002 46.5128 12.5002 43.7502C12.5002 40.9875 13.5976 38.338 15.5511 36.3845C17.5046 34.431 20.1542 33.3335 22.9168 33.3335ZM77.0835 33.3335C79.8462 33.3335 82.4957 34.431 84.4492 36.3845C86.4027 38.338 87.5002 40.9875 87.5002 43.7502C87.5002 46.5128 86.4027 49.1624 84.4492 51.1159C82.4957 53.0694 79.8462 54.1668 77.0835 54.1668C74.3208 54.1668 71.6713 53.0694 69.7178 51.1159C67.7643 49.1624 66.6668 46.5128 66.6668 43.7502C66.6668 40.9875 67.7643 38.338 69.7178 36.3845C71.6713 34.431 74.3208 33.3335 77.0835 33.3335ZM22.9168 41.6668C22.3643 41.6668 21.8344 41.8863 21.4437 42.277C21.053 42.6677 20.8335 43.1976 20.8335 43.7502C20.8335 44.3027 21.053 44.8326 21.4437 45.2233C21.8344 45.614 22.3643 45.8335 22.9168 45.8335C23.4694 45.8335 23.9993 45.614 24.39 45.2233C24.7807 44.8326 25.0002 44.3027 25.0002 43.7502C25.0002 43.1976 24.7807 42.6677 24.39 42.277C23.9993 41.8863 23.4694 41.6668 22.9168 41.6668ZM77.0835 41.6668C76.531 41.6668 76.0011 41.8863 75.6104 42.277C75.2197 42.6677 75.0002 43.1976 75.0002 43.7502C75.0002 44.3027 75.2197 44.8326 75.6104 45.2233C76.0011 45.614 76.531 45.8335 77.0835 45.8335C77.636 45.8335 78.1659 45.614 78.5566 45.2233C78.9473 44.8326 79.1668 44.3027 79.1668 43.7502C79.1668 43.1976 78.9473 42.6677 78.5566 42.277C78.1659 41.8863 77.636 41.6668 77.0835 41.6668ZM50.0002 8.3335C54.4204 8.3335 58.6597 10.0894 61.7853 13.2151C64.9109 16.3407 66.6668 20.5799 66.6668 25.0002C66.6668 29.4204 64.9109 33.6597 61.7853 36.7853C58.6597 39.9109 54.4204 41.6668 50.0002 41.6668C45.5799 41.6668 41.3407 39.9109 38.2151 36.7853C35.0894 33.6597 33.3335 29.4204 33.3335 25.0002C33.3335 20.5799 35.0894 16.3407 38.2151 13.2151C41.3407 10.0894 45.5799 8.3335 50.0002 8.3335ZM50.0002 16.6668C47.79 16.6668 45.6704 17.5448 44.1076 19.1076C42.5448 20.6704 41.6668 22.79 41.6668 25.0002C41.6668 27.2103 42.5448 29.3299 44.1076 30.8927C45.6704 32.4555 47.79 33.3335 50.0002 33.3335C52.2103 33.3335 54.3299 32.4555 55.8927 30.8927C57.4555 29.3299 58.3335 27.2103 58.3335 25.0002C58.3335 22.79 57.4555 20.6704 55.8927 19.1076C54.3299 17.5448 52.2103 16.6668 50.0002 16.6668Z" fill="white"/>
</svg>
