<svg width="85" height="85" viewBox="0 0 85 85" fill="none" xmlns="http://www.w3.org/2000/svg">
<path d="M67.1377 61.2418L84.971 79.0793L79.0793 84.9752L61.246 67.1377C54.6036 72.4573 46.3435 75.3489 37.8335 75.3335C30.8474 75.3366 23.9995 73.3877 18.0619 69.7066C12.1244 66.0256 7.33338 60.7587 4.22933 54.5002H29.5002L24.0668 63.5543C28.3003 65.8234 33.0303 67.0073 37.8335 67.0002C45.4186 67.0121 52.708 64.059 58.146 58.771L58.771 58.146C64.059 52.708 67.0121 45.4186 67.0002 37.8335C67.0002 34.9377 66.5793 32.1418 65.7918 29.5002H74.4043C75.0127 32.1793 75.3335 34.971 75.3335 37.8335C75.3479 46.3421 72.4564 54.6005 67.1377 61.2418ZM71.4377 21.1668H46.1668L51.6002 12.1127C47.3667 9.84361 42.6367 8.65967 37.8335 8.66683C21.7168 8.66683 8.66683 21.7168 8.66683 37.8335C8.66683 40.7293 9.08767 43.5252 9.87517 46.1668H1.26267C0.643698 43.4323 0.332045 40.6372 0.333501 37.8335C0.333501 17.1127 17.1127 0.3335 37.8335 0.3335C44.8196 0.330408 51.6675 2.27929 57.6051 5.96036C63.5426 9.64143 68.3336 14.9083 71.4377 21.1668Z" fill="white"/>
</svg>
