<svg width="407" height="309" viewBox="0 0 407 309" fill="none" xmlns="http://www.w3.org/2000/svg">
<g clip-path="url(#clip0_252_67)">
<path d="M376.57 280.864C363.235 291.011 346.988 301.29 331.016 306.136C326.411 307.575 321.66 308.493 316.85 308.874C312.354 309.235 307.829 308.885 303.442 307.835C291.914 304.97 281.222 299.952 270.876 294.091C267.496 292.173 264.155 290.167 260.833 288.117C255.411 284.769 250.043 281.303 244.66 277.921C243.854 277.409 243.053 276.906 242.247 276.408H242.242C240.943 275.593 239.64 274.789 238.334 273.997C238.105 273.855 237.875 273.719 237.641 273.577C235.174 272.084 232.665 270.624 230.113 269.199C229.801 269.029 229.488 268.853 229.176 268.682C224.239 265.946 219.165 263.465 213.974 261.249C210.565 259.814 207.112 258.52 203.624 257.417H203.619C202.286 256.998 200.947 256.602 199.604 256.241C195.576 255.137 191.471 254.334 187.324 253.84C181.609 253.149 175.828 253.194 170.125 253.977C169.739 254.03 169.358 254.084 168.972 254.147C153.537 256.617 139.449 264.943 123.945 266.905C123.442 266.969 122.944 267.027 122.441 267.071C122.226 267.091 122.011 267.115 121.796 267.13C117.291 267.515 112.757 267.404 108.276 266.798C95.7561 265.148 83.5641 260.029 72.5882 253.576C46.9292 238.49 26.1205 215.302 13.4693 188.449C11.2968 183.846 9.36796 179.133 7.69077 174.329C3.00146 161.006 0.419044 147.034 0.0364948 132.916C-1.15048 83.934 26.7067 34.7905 70.4439 12.6371C114.186 -9.51623 171.727 -2.19035 207.004 31.8426C228.404 52.4878 240.786 80.4638 256.891 105.458C272.996 130.447 295.885 154.318 325.408 157.959C340.448 159.814 356.186 156.226 370.601 160.892C378.582 163.479 385.392 168.428 390.877 174.734C394.565 179.013 397.651 183.775 400.05 188.888C401.809 192.584 403.236 196.429 404.315 200.377C404.515 201.104 404.701 201.831 404.881 202.559C412.062 231.862 400.588 262.581 376.57 280.864Z" fill="#F2F2F2"/>
<path d="M136.362 227.816H90.4466C83.5674 227.816 77.9907 233.388 77.9907 240.262V240.262C77.9907 247.135 83.5674 252.707 90.4466 252.707H136.362C143.242 252.707 148.818 247.135 148.818 240.262C148.818 233.388 143.242 227.816 136.362 227.816Z" fill="#3F3D56"/>
<path d="M122.441 246.363V267.071C117.724 267.527 112.971 267.436 108.275 266.798V246.363H122.441Z" fill="#3F3D56"/>
<path d="M170.125 253.976C169.739 254.03 169.358 254.084 168.972 254.147C153.537 256.617 139.449 264.943 123.945 266.905C123.442 266.969 122.944 267.027 122.441 267.071C122.226 267.091 122.011 267.115 121.796 267.13C118.011 263.425 114.225 259.482 110.669 255.397C108.739 253.186 106.874 250.931 105.12 248.647C100.567 242.751 96.7086 236.689 94.1588 230.735C94.4177 227.879 92.6396 221.276 91.7897 216.22L91.7848 216.215C91.4234 214.092 91.228 212.247 91.4087 211.061C92.4443 204.218 98.0372 205.004 99.7566 198.298C101.308 197.012 102.959 195.851 104.695 194.828C104.983 194.657 105.276 194.486 105.579 194.315L124.238 181.43L131.37 188.419L142.224 199.059L153.986 210.582L144.002 220.661C144.002 220.661 152.345 230.271 162.099 243.083C164.718 246.524 167.438 250.199 170.125 253.976Z" fill="#2F2E41"/>
<path d="M331.016 246.363V306.136C326.411 307.575 321.659 308.493 316.85 308.874V246.363H331.016Z" fill="#3F3D56"/>
<path d="M349.333 241.482H303.417C296.538 241.482 290.961 247.054 290.961 253.928V253.928C290.961 260.801 296.538 266.373 303.417 266.373H349.333C356.212 266.373 361.789 260.801 361.789 253.928C361.789 247.054 356.212 241.482 349.333 241.482Z" fill="#3F3D56"/>
<path d="M237.641 273.577C235.174 272.084 232.665 270.624 230.114 269.199C229.801 269.028 229.488 268.853 229.176 268.682L230.856 267.964L235.389 266.017L235.433 265.998L235.482 266.163L237.641 273.577Z" fill="#FFB6B6"/>
<path d="M244.66 277.921C243.854 277.408 243.053 276.906 242.247 276.408H242.242C240.943 275.593 239.64 274.789 238.334 273.997C238.105 273.855 237.875 273.719 237.641 273.577C235.174 272.084 232.665 270.624 230.114 269.199C229.801 269.028 229.488 268.853 229.176 268.682C224.239 265.946 219.166 263.465 213.975 261.249C210.565 259.814 207.112 258.52 203.624 257.417H203.619L200.879 252.834L188.545 232.194L185.834 227.66C185.834 227.66 176.588 230.393 163.502 233.014C158.739 233.971 153.473 234.908 147.949 235.698C142.043 236.538 135.85 237.206 129.695 237.529C126.759 237.685 123.833 237.763 120.951 237.738C113.502 237.69 106.346 236.992 100.079 235.332C97.9886 233.37 91.6874 230.7 87.174 228.255H87.1691C85.2738 227.23 83.701 226.249 82.8755 225.376C78.1178 220.349 82.1818 216.429 77.9517 210.944C77.8948 208.931 77.9977 206.917 78.2595 204.921C78.3034 204.589 78.3474 204.252 78.4011 203.911L79.7346 181.284L89.6407 179.976L104.715 177.984L121.044 175.827L122.842 189.893C122.842 189.893 135.556 189.249 151.666 189.464C177.54 189.815 212.162 192.392 216.852 203.452C217.291 204.491 217.731 205.541 218.171 206.59C219.216 209.099 220.251 211.62 221.277 214.155C224.994 223.331 228.541 232.594 231.779 241.35C233.792 246.797 235.687 252.049 237.431 256.963C238.833 260.917 240.132 264.655 241.319 268.096C242.403 271.239 243.385 274.134 244.259 276.73C244.396 277.135 244.528 277.535 244.66 277.921Z" fill="#2F2E41"/>
<path d="M153.534 140.829L122.245 114.278L142.602 93.6924L156.804 116.936L209.448 127.364C211.031 126.174 212.926 125.469 214.903 125.337C216.88 125.204 218.852 125.649 220.58 126.617C222.308 127.585 223.717 129.035 224.635 130.789C225.552 132.544 225.939 134.527 225.748 136.497C225.557 138.468 224.797 140.34 223.56 141.886C222.322 143.432 220.661 144.584 218.78 145.204C216.898 145.823 214.876 145.881 212.962 145.372C211.047 144.863 209.322 143.809 207.997 142.337L153.534 140.829Z" fill="#A0616A"/>
<path d="M94.5927 79.3825C90.9767 91.1365 125.415 119.17 125.415 119.17C125.797 116.348 145.322 140.681 146.651 138.477C150.426 132.214 154.58 116.733 158.939 114.754C161.432 113.622 147.132 97.8944 147.132 97.8944C147.132 97.8944 139.838 88.2522 130.208 76.0318C127.549 72.5264 124.046 69.7502 120.025 67.9614C116.004 66.1727 111.595 65.4295 107.209 65.8013C107.209 65.8013 98.2087 67.6286 94.5927 79.3825Z" fill="#3F3D56"/>
<path d="M109.82 53.3618C121.507 53.3618 130.982 43.8949 130.982 32.2168C130.982 20.5387 121.507 11.0718 109.82 11.0718C98.1319 11.0718 88.6572 20.5387 88.6572 32.2168C88.6572 43.8949 98.1319 53.3618 109.82 53.3618Z" fill="#A0616A"/>
<path d="M120.4 67.3372C124.959 70.0454 127.687 75.0213 129.252 80.0848C132.151 89.4592 133.895 99.1516 134.448 108.948L136.101 138.275L156.581 200.722C138.832 215.728 72.1161 204.133 72.1161 204.133C72.1161 204.133 70.0681 203.451 72.1161 201.404C74.1641 199.358 76.1578 201.171 74.1098 199.124C72.0619 197.078 73.4737 199.358 74.1563 197.312C74.839 195.265 74.1563 196.63 73.4737 195.947C72.791 195.265 78.7584 189.126 78.7584 189.126L73.2972 153.281L66.4707 80.979C74.6626 70.7476 91.1375 64.7162 91.1375 64.7162L95.3944 57.0601L116.679 58.7614L120.4 67.3372Z" fill="#3F3D56"/>
<path d="M127.264 20.9829C128.909 22.2087 130.128 23.919 130.748 25.8731C130.987 22.6797 131.002 19.4735 130.794 16.278C130.544 14.0325 128.962 13.5274 127.13 12.9421C125.476 12.4133 123.604 11.816 123.101 9.63617C116.449 3.17004 104.869 3.4961 96.9436 5.75158C92.5828 6.99274 90.0735 8.58736 89.849 9.52151L89.8025 9.71381L89.6254 9.80228C86.2639 11.4816 85.6096 16.7847 85.6528 20.9376C85.7347 28.762 88.4385 37.6485 89.9617 38.3704C90.0423 38.4087 90.0627 38.3937 90.0976 38.3646C92.3911 36.5332 95.1893 38.5038 96.4189 39.575C97.1442 34.7121 99.4795 30.2322 103.052 26.8509C106.624 23.4696 111.228 21.382 116.127 20.9215C117.727 20.767 119.314 20.501 120.877 20.1256C121.669 19.9207 122.484 19.8139 123.303 19.8075C124.713 19.7861 126.095 20.1963 127.264 20.9829Z" fill="#2F2E41"/>
<path d="M100.599 172.686L94.1255 169.374C93.7786 169.127 93.5323 168.763 93.4314 168.35C93.3305 167.937 93.3818 167.501 93.5759 167.122C93.7701 166.743 94.0941 166.447 94.4888 166.287C94.8835 166.127 95.3226 166.115 95.7258 166.251L102.199 169.564C102.546 169.811 102.793 170.174 102.893 170.588C102.994 171.001 102.943 171.437 102.749 171.816C102.555 172.195 102.231 172.491 101.836 172.651C101.441 172.811 101.002 172.823 100.599 172.686L100.599 172.686Z" fill="#3B63F2"/>
<path d="M78.8117 163.811L68.1626 124.199L96.6199 118.816L95.0896 146.006L132.48 184.475C134.46 184.394 136.42 184.89 138.122 185.903C139.824 186.916 141.194 188.402 142.066 190.18C142.937 191.958 143.272 193.95 143.029 195.915C142.787 197.88 141.978 199.731 140.7 201.244C139.423 202.757 137.732 203.866 135.835 204.436C133.938 205.006 131.915 205.011 130.015 204.452C128.114 203.894 126.418 202.794 125.132 201.288C123.845 199.783 123.026 197.936 122.772 195.972L78.8117 163.811Z" fill="#A0616A"/>
<path d="M65.2508 79.7848C55.5913 87.4043 67.9892 130.024 67.9892 130.024C69.9088 127.919 72.1393 159.027 74.4856 157.968C81.1538 154.958 93.3758 144.577 98.0876 145.423C100.782 145.907 97.9591 124.846 97.9591 124.846C97.9591 124.846 97.4398 112.771 96.4639 97.2469C96.2695 92.8531 94.9656 88.5797 92.6737 84.8248C90.3817 81.0699 87.1763 77.9554 83.3556 75.7713C83.3556 75.7713 74.9102 72.1654 65.2508 79.7848Z" fill="#3F3D56"/>
<path d="M400.051 188.888L13.4694 188.449C11.2969 183.846 9.36811 179.133 7.69092 174.329L390.877 174.734C394.565 179.013 397.651 183.775 400.051 188.888Z" fill="#3F3D56"/>
<path d="M276.923 291.294C274.925 292.26 272.909 293.193 270.876 294.091C267.496 292.173 264.155 290.167 260.833 288.117L273.152 282.709L276.923 291.294Z" fill="#FFB6B6"/>
<path d="M366.742 224.038C364.739 226.723 362.673 229.353 360.543 231.93C358.58 234.307 356.564 236.639 354.496 238.924C353.641 239.871 352.777 240.813 351.893 241.745C350.266 243.488 348.604 245.201 346.905 246.885C343.848 247.846 337.654 249.54 331.016 251.121C326.185 252.268 321.119 253.357 316.85 254.05C314.46 254.478 312.043 254.736 309.616 254.821C306.734 254.845 303.808 254.767 300.873 254.611C297.561 254.435 294.244 254.162 290.966 253.81C282.443 252.917 274.188 251.526 267.066 250.096C264.457 249.579 262.005 249.052 259.749 248.539C255.475 247.578 251.899 246.68 249.31 245.997C246.394 245.235 244.733 244.742 244.733 244.742L237.431 256.963L233.64 263.303L230.856 267.964L230.114 269.199C229.801 269.028 229.488 268.853 229.176 268.682C224.239 265.946 219.166 263.465 213.975 261.249C210.565 259.814 207.112 258.52 203.624 257.417H203.619C202.286 256.998 200.947 256.602 199.604 256.241C200.024 255.114 200.449 253.978 200.879 252.834C201.68 250.701 202.497 248.549 203.331 246.377C205.133 241.672 206.999 236.899 208.919 232.15C210.492 228.25 212.094 224.365 213.716 220.534C214.463 218.767 215.982 217.215 218.107 215.854C219.123 215.214 220.182 214.646 221.277 214.155C227.359 211.388 236.317 209.587 246.189 208.43C247.005 208.337 247.825 208.245 248.651 208.157C256.823 207.298 265.493 206.854 273.602 206.649C277.661 206.546 281.578 206.507 285.222 206.502C286.399 206.502 287.544 206.505 288.656 206.512H288.661C291.665 206.527 294.43 206.57 296.862 206.619C297.336 206.629 297.795 206.644 298.245 206.653H298.25C298.552 206.658 298.85 206.668 299.143 206.673C304.463 206.81 307.726 206.976 307.726 206.976L308.991 197.058L309.25 195.057L309.494 193.154V193.149L309.523 192.91L309.724 192.905L313.241 192.836L342.802 192.26L358.951 191.943L356.392 202.905L352.166 220.993C352.596 223.853 366.889 221.613 366.742 224.038Z" fill="#2F2E41"/>
<path d="M280.567 289.488C279.36 290.103 278.144 290.708 276.923 291.294C274.925 292.26 272.909 293.193 270.876 294.091C267.495 292.173 264.154 290.167 260.833 288.117C255.411 284.769 250.042 281.303 244.66 277.921C243.854 277.409 243.053 276.906 242.247 276.408H242.242C240.024 273.118 237.762 269.692 235.481 266.164C235.447 266.115 235.418 266.066 235.389 266.017C234.802 265.119 234.22 264.215 233.64 263.303C229.991 257.593 226.323 251.639 222.762 245.557L231.779 241.35L248.543 233.531L251.435 232.184L259.748 248.539L267.163 263.128L268.814 266.373L280.567 289.488Z" fill="#2F2E41"/>
<path d="M283.093 210.967L325.834 169.782L337.681 136.266L320.207 128.674C311.232 137.265 301.53 164.022 301.53 164.022L272.118 201.41C271.889 201.489 271.66 201.572 271.434 201.672C270.11 202.255 268.958 203.171 268.091 204.329C267.223 205.487 266.67 206.85 266.484 208.284C266.297 209.719 266.484 211.177 267.027 212.518C267.57 213.86 268.449 215.038 269.581 215.94C270.713 216.843 272.058 217.438 273.487 217.669C274.917 217.9 276.381 217.758 277.74 217.258C279.098 216.758 280.305 215.916 281.243 214.814C282.181 213.712 282.818 212.387 283.093 210.967Z" fill="#FFB8B8"/>
<path d="M315.29 132.417L337.454 139.447L337.538 139.433C345.787 138.053 352.633 124.59 356.922 113.539C358.334 109.895 358.307 105.85 356.849 102.224C355.39 98.5975 352.608 95.6599 349.064 94.0048C346.442 92.8016 343.535 92.3552 340.673 92.7161C337.81 93.077 335.105 94.2308 332.864 96.0471L321.483 105.34L315.29 132.417Z" fill="#3B63F2"/>
<path d="M366.653 224.533L366.783 224.361C373.698 215.197 364.24 192.503 362.81 189.212L369.24 187.309L368.119 175.076L367.579 169.621L372.579 164.877L372.596 164.756L376.034 140.308L380.532 124.126C382.228 118.009 382.264 111.551 380.636 105.416C379.009 99.28 375.776 93.6876 371.271 89.2127L362.074 80.0893L351.056 62.8574L332.583 62.3809L325.94 74.172C319.762 75.4318 314.223 78.8171 310.286 83.7382C306.349 88.6593 304.265 94.8043 304.397 101.103L305.022 132.493L298.394 171.386L298.208 178.45L291.702 185.31L292.905 192.246L288.038 194.183L285.657 204.037C284.747 205.174 278.742 212.759 278.687 214.874C278.679 215.191 278.906 215.504 279.4 215.857C283.287 218.636 305.014 224.658 314.792 221.038C325.208 217.185 366.03 224.421 366.441 224.494L366.653 224.533Z" fill="#3B63F2"/>
<path d="M340.206 57.0985C353.722 57.0985 364.68 46.1501 364.68 32.6446C364.68 19.1391 353.722 8.19067 340.206 8.19067C326.689 8.19067 315.732 19.1391 315.732 32.6446C315.732 46.1501 326.689 57.0985 340.206 57.0985Z" fill="#FFB8B8"/>
<path d="M337.221 57.4256C341.01 57.4846 344.799 57.2201 348.543 56.6349C352.255 55.8807 360.559 49.8004 362.874 46.1416C364.594 43.4231 365.694 39.178 366.314 36.0957C367.149 32.0168 367.117 27.8083 366.22 23.7425C365.324 19.6767 363.583 15.8444 361.11 12.4937C360.159 11.0922 358.848 9.97339 357.313 9.25568C357.177 9.20254 357.037 9.15545 356.896 9.11519C354.659 8.52732 352.65 7.28508 351.126 5.54796C350.83 5.19661 350.51 4.86698 350.167 4.56164C348.444 3.10886 346.401 2.0841 344.206 1.57112C340.663 0.623585 335.535 1.56414 328.965 4.36937C325.664 5.77878 322.055 5.26871 319.278 4.66683C319.122 4.63677 318.961 4.64798 318.811 4.69936C318.661 4.75073 318.527 4.84048 318.422 4.95967C317.241 6.06793 315.683 6.68828 314.063 6.69605C313.07 6.7396 312.029 8.11279 310.77 9.90349C310.485 10.31 310.151 10.7844 309.911 11.0729L309.879 10.5186L309.317 11.137C308.435 12.109 307.813 13.2883 307.509 14.5652C307.206 15.842 307.23 17.1749 307.581 18.4396C307.932 19.7043 308.597 20.8598 309.515 21.7984C310.433 22.737 311.574 23.4283 312.831 23.8077C313.83 24.0732 314.853 24.2361 315.884 24.2939C316.509 24.35 317.155 24.4081 317.775 24.5155C319.763 24.9223 321.611 25.8371 323.14 27.1707C324.668 28.5043 325.824 30.2111 326.495 32.1245C326.654 32.5668 326.912 32.9667 327.25 33.2934C327.588 33.6201 327.997 33.8649 328.444 34.0087C328.892 34.1526 329.367 34.1918 329.832 34.1232C330.297 34.0547 330.74 33.8802 331.127 33.6133C331.773 33.1113 332.53 32.7727 333.334 32.6263C334.139 32.4799 334.967 32.5301 335.748 32.7726C336.423 33.1476 336.948 33.743 337.236 34.4589C337.585 35.2566 338.165 35.9321 338.9 36.3993C341.416 37.6952 341.589 43.4358 340.686 48.2213C339.815 52.8342 338.093 56.1711 336.499 56.3361C335.272 56.4629 335.132 56.55 335.043 56.7669L334.964 56.961L335.102 57.1425C335.779 57.388 336.502 57.4846 337.221 57.4256Z" fill="#2F2E41"/>
<path d="M321.368 125.023L311.931 106.225C298.234 107.16 271.049 122.984 271.049 122.984L219.615 133.88C218.091 133.295 216.44 133.121 214.828 133.376C213.215 133.631 211.699 134.306 210.43 135.333C209.162 136.36 208.187 137.703 207.603 139.226C207.019 140.749 206.847 142.399 207.104 144.01C207.362 145.62 208.039 147.135 209.068 148.401C210.097 149.667 211.442 150.64 212.967 151.221C214.492 151.803 216.144 151.973 217.756 151.714C219.367 151.455 220.882 150.776 222.148 149.747L287.576 145.06L321.368 125.023Z" fill="#FFB8B8"/>
<path d="M317.562 128.11L342.207 109.81L346.548 94.1787C347.389 91.1069 347.353 87.8613 346.445 84.8087C345.537 81.756 343.792 79.018 341.408 76.904C338.158 74.0601 333.947 72.5557 329.629 72.6949C325.311 72.8341 321.206 74.6066 318.146 77.6539C308.871 86.9034 298.294 99.8073 300.566 108.755L300.589 108.846L317.562 128.11Z" fill="#3B63F2"/>
<path d="M287.054 177.057H221.111V185.842H287.054V177.057Z" fill="white"/>
<path d="M118.533 177.057H52.5903V185.842H118.533V177.057Z" fill="white"/>
<path d="M126.233 134.809V176.638C126.234 177.172 126.446 177.683 126.823 178.06C127.2 178.436 127.712 178.648 128.245 178.649H190.283C190.816 178.648 191.328 178.436 191.705 178.06C192.082 177.683 192.294 177.172 192.295 176.638V134.809C192.293 134.277 192.081 133.766 191.704 133.39C191.327 133.013 190.816 132.802 190.283 132.801H128.245C127.712 132.802 127.201 133.013 126.824 133.39C126.447 133.766 126.235 134.277 126.233 134.809Z" fill="#3F3D56"/>
<path d="M127.689 135.33V176.122C127.689 176.407 127.803 176.68 128.004 176.882C128.206 177.083 128.479 177.196 128.764 177.197H189.766C190.052 177.196 190.325 177.083 190.526 176.882C190.728 176.68 190.841 176.407 190.842 176.122V135.33C190.842 135.044 190.729 134.771 190.527 134.569C190.325 134.367 190.052 134.254 189.766 134.253H128.764C128.479 134.254 128.205 134.367 128.004 134.569C127.802 134.771 127.689 135.044 127.689 135.33Z" fill="#3B63F2"/>
<path d="M124.936 184.796C125.05 184.939 125.194 185.053 125.358 185.132C125.523 185.211 125.703 185.251 125.885 185.25H192.313C192.494 185.25 192.674 185.209 192.838 185.131C193.002 185.053 193.146 184.939 193.26 184.798C193.375 184.657 193.456 184.492 193.499 184.316C193.542 184.14 193.545 183.956 193.507 183.778L192.476 178.884C192.434 178.685 192.342 178.499 192.209 178.344C192.076 178.189 191.906 178.07 191.715 177.997C191.577 177.943 191.43 177.915 191.281 177.915H126.912C126.764 177.915 126.617 177.943 126.479 177.997C126.288 178.07 126.118 178.189 125.985 178.344C125.852 178.499 125.76 178.685 125.718 178.884L124.686 183.778C124.65 183.956 124.653 184.139 124.696 184.315C124.739 184.491 124.821 184.656 124.936 184.796Z" fill="#2F2E41"/>
<path d="M189.002 180.023H190.571C190.703 180.023 190.81 179.917 190.81 179.785V179.035C190.81 178.903 190.703 178.797 190.571 178.797H189.002C188.87 178.797 188.764 178.903 188.764 179.035V179.785C188.764 179.917 188.87 180.023 189.002 180.023Z" fill="#3F3D56"/>
<path d="M184.91 180.023H186.479C186.611 180.023 186.718 179.917 186.718 179.785V179.035C186.718 178.903 186.611 178.797 186.479 178.797H184.91C184.779 178.797 184.672 178.903 184.672 179.035V179.785C184.672 179.917 184.779 180.023 184.91 180.023Z" fill="#3F3D56"/>
<path d="M180.819 180.023H182.388C182.519 180.023 182.626 179.917 182.626 179.785V179.035C182.626 178.903 182.519 178.797 182.388 178.797H180.819C180.687 178.797 180.58 178.903 180.58 179.035V179.785C180.58 179.917 180.687 180.023 180.819 180.023Z" fill="#3F3D56"/>
<path d="M176.727 180.023H178.296C178.427 180.023 178.534 179.917 178.534 179.785V179.035C178.534 178.903 178.427 178.797 178.296 178.797H176.727C176.595 178.797 176.488 178.903 176.488 179.035V179.785C176.488 179.917 176.595 180.023 176.727 180.023Z" fill="#3F3D56"/>
<path d="M172.635 180.023H174.204C174.336 180.023 174.442 179.917 174.442 179.785V179.035C174.442 178.903 174.336 178.797 174.204 178.797H172.635C172.503 178.797 172.396 178.903 172.396 179.035V179.785C172.396 179.917 172.503 180.023 172.635 180.023Z" fill="#3F3D56"/>
<path d="M168.543 180.023H170.112C170.244 180.023 170.351 179.917 170.351 179.785V179.035C170.351 178.903 170.244 178.797 170.112 178.797H168.543C168.411 178.797 168.305 178.903 168.305 179.035V179.785C168.305 179.917 168.411 180.023 168.543 180.023Z" fill="#3F3D56"/>
<path d="M164.451 180.023H166.02C166.152 180.023 166.258 179.917 166.258 179.785V179.035C166.258 178.903 166.152 178.797 166.02 178.797H164.451C164.319 178.797 164.212 178.903 164.212 179.035V179.785C164.212 179.917 164.319 180.023 164.451 180.023Z" fill="#3F3D56"/>
<path d="M160.359 180.023H161.928C162.06 180.023 162.167 179.917 162.167 179.785V179.035C162.167 178.903 162.06 178.797 161.928 178.797H160.359C160.227 178.797 160.121 178.903 160.121 179.035V179.785C160.121 179.917 160.227 180.023 160.359 180.023Z" fill="#3F3D56"/>
<path d="M156.267 180.023H157.836C157.968 180.023 158.075 179.917 158.075 179.785V179.035C158.075 178.903 157.968 178.797 157.836 178.797H156.267C156.136 178.797 156.029 178.903 156.029 179.035V179.785C156.029 179.917 156.136 180.023 156.267 180.023Z" fill="#3F3D56"/>
<path d="M152.175 180.023H153.744C153.876 180.023 153.983 179.917 153.983 179.785V179.035C153.983 178.903 153.876 178.797 153.744 178.797H152.175C152.044 178.797 151.937 178.903 151.937 179.035V179.785C151.937 179.917 152.044 180.023 152.175 180.023Z" fill="#3F3D56"/>
<path d="M148.084 180.023H149.653C149.784 180.023 149.891 179.917 149.891 179.785V179.035C149.891 178.903 149.784 178.797 149.653 178.797H148.084C147.952 178.797 147.845 178.903 147.845 179.035V179.785C147.845 179.917 147.952 180.023 148.084 180.023Z" fill="#3F3D56"/>
<path d="M143.992 180.023H145.561C145.693 180.023 145.799 179.917 145.799 179.785V179.035C145.799 178.903 145.693 178.797 145.561 178.797H143.992C143.86 178.797 143.753 178.903 143.753 179.035V179.785C143.753 179.917 143.86 180.023 143.992 180.023Z" fill="#3F3D56"/>
<path d="M139.9 180.023H141.469C141.601 180.023 141.708 179.917 141.708 179.785V179.035C141.708 178.903 141.601 178.797 141.469 178.797H139.9C139.768 178.797 139.662 178.903 139.662 179.035V179.785C139.662 179.917 139.768 180.023 139.9 180.023Z" fill="#3F3D56"/>
<path d="M135.808 180.023H137.377C137.508 180.023 137.615 179.917 137.615 179.785V179.035C137.615 178.903 137.508 178.797 137.377 178.797H135.808C135.676 178.797 135.569 178.903 135.569 179.035V179.785C135.569 179.917 135.676 180.023 135.808 180.023Z" fill="#3F3D56"/>
<path d="M131.716 180.023H133.285C133.417 180.023 133.523 179.917 133.523 179.785V179.035C133.523 178.903 133.417 178.797 133.285 178.797H131.716C131.584 178.797 131.478 178.903 131.478 179.035V179.785C131.478 179.917 131.584 180.023 131.716 180.023Z" fill="#3F3D56"/>
<path d="M127.624 180.023H129.193C129.325 180.023 129.432 179.917 129.432 179.785V179.035C129.432 178.903 129.325 178.797 129.193 178.797H127.624C127.492 178.797 127.386 178.903 127.386 179.035V179.785C127.386 179.917 127.492 180.023 127.624 180.023Z" fill="#3F3D56"/>
<path d="M189.05 182.067H190.619C190.751 182.067 190.858 181.961 190.858 181.829V181.079C190.858 180.948 190.751 180.841 190.619 180.841H189.05C188.919 180.841 188.812 180.948 188.812 181.079V181.829C188.812 181.961 188.919 182.067 189.05 182.067Z" fill="#3F3D56"/>
<path d="M184.959 182.067H186.528C186.659 182.067 186.766 181.961 186.766 181.829V181.079C186.766 180.948 186.659 180.841 186.528 180.841H184.959C184.827 180.841 184.72 180.948 184.72 181.079V181.829C184.72 181.961 184.827 182.067 184.959 182.067Z" fill="#3F3D56"/>
<path d="M180.867 182.067H182.436C182.568 182.067 182.674 181.961 182.674 181.829V181.079C182.674 180.948 182.568 180.841 182.436 180.841H180.867C180.735 180.841 180.628 180.948 180.628 181.079V181.829C180.628 181.961 180.735 182.067 180.867 182.067Z" fill="#3F3D56"/>
<path d="M176.775 182.067H178.344C178.476 182.067 178.583 181.961 178.583 181.829V181.079C178.583 180.948 178.476 180.841 178.344 180.841H176.775C176.643 180.841 176.537 180.948 176.537 181.079V181.829C176.537 181.961 176.643 182.067 176.775 182.067Z" fill="#3F3D56"/>
<path d="M172.683 182.067H174.252C174.384 182.067 174.491 181.961 174.491 181.829V181.079C174.491 180.948 174.384 180.841 174.252 180.841H172.683C172.552 180.841 172.445 180.948 172.445 181.079V181.829C172.445 181.961 172.552 182.067 172.683 182.067Z" fill="#3F3D56"/>
<path d="M168.591 182.067H170.16C170.292 182.067 170.399 181.961 170.399 181.829V181.079C170.399 180.948 170.292 180.841 170.16 180.841H168.591C168.46 180.841 168.353 180.948 168.353 181.079V181.829C168.353 181.961 168.46 182.067 168.591 182.067Z" fill="#3F3D56"/>
<path d="M164.499 182.067H166.068C166.2 182.067 166.307 181.961 166.307 181.829V181.079C166.307 180.948 166.2 180.841 166.068 180.841H164.499C164.368 180.841 164.261 180.948 164.261 181.079V181.829C164.261 181.961 164.368 182.067 164.499 182.067Z" fill="#3F3D56"/>
<path d="M160.407 182.067H161.976C162.108 182.067 162.215 181.961 162.215 181.829V181.079C162.215 180.948 162.108 180.841 161.976 180.841H160.407C160.276 180.841 160.169 180.948 160.169 181.079V181.829C160.169 181.961 160.276 182.067 160.407 182.067Z" fill="#3F3D56"/>
<path d="M156.316 182.067H157.885C158.016 182.067 158.123 181.961 158.123 181.829V181.079C158.123 180.948 158.016 180.841 157.885 180.841H156.316C156.184 180.841 156.077 180.948 156.077 181.079V181.829C156.077 181.961 156.184 182.067 156.316 182.067Z" fill="#3F3D56"/>
<path d="M152.224 182.067H153.793C153.924 182.067 154.031 181.961 154.031 181.829V181.079C154.031 180.948 153.924 180.841 153.793 180.841H152.224C152.092 180.841 151.985 180.948 151.985 181.079V181.829C151.985 181.961 152.092 182.067 152.224 182.067Z" fill="#3F3D56"/>
<path d="M148.132 182.067H149.701C149.833 182.067 149.939 181.961 149.939 181.829V181.079C149.939 180.948 149.833 180.841 149.701 180.841H148.132C148 180.841 147.893 180.948 147.893 181.079V181.829C147.893 181.961 148 182.067 148.132 182.067Z" fill="#3F3D56"/>
<path d="M144.04 182.067H145.609C145.741 182.067 145.848 181.961 145.848 181.829V181.079C145.848 180.948 145.741 180.841 145.609 180.841H144.04C143.908 180.841 143.802 180.948 143.802 181.079V181.829C143.802 181.961 143.908 182.067 144.04 182.067Z" fill="#3F3D56"/>
<path d="M139.948 182.067H141.517C141.649 182.067 141.756 181.961 141.756 181.829V181.079C141.756 180.948 141.649 180.841 141.517 180.841H139.948C139.817 180.841 139.71 180.948 139.71 181.079V181.829C139.71 181.961 139.817 182.067 139.948 182.067Z" fill="#3F3D56"/>
<path d="M135.856 182.067H137.425C137.557 182.067 137.664 181.961 137.664 181.829V181.079C137.664 180.948 137.557 180.841 137.425 180.841H135.856C135.724 180.841 135.618 180.948 135.618 181.079V181.829C135.618 181.961 135.724 182.067 135.856 182.067Z" fill="#3F3D56"/>
<path d="M131.764 182.067H133.333C133.465 182.067 133.572 181.961 133.572 181.829V181.079C133.572 180.948 133.465 180.841 133.333 180.841H131.764C131.633 180.841 131.526 180.948 131.526 181.079V181.829C131.526 181.961 131.633 182.067 131.764 182.067Z" fill="#3F3D56"/>
<path d="M127.673 182.067H129.242C129.373 182.067 129.48 181.961 129.48 181.829V181.079C129.48 180.948 129.373 180.841 129.242 180.841H127.673C127.541 180.841 127.434 180.948 127.434 181.079V181.829C127.434 181.961 127.541 182.067 127.673 182.067Z" fill="#3F3D56"/>
<path d="M155.088 184.521H170.979C171.111 184.521 171.217 184.414 171.217 184.282V183.532C171.217 183.401 171.111 183.294 170.979 183.294H155.088C154.957 183.294 154.85 183.401 154.85 183.532V184.282C154.85 184.414 154.957 184.521 155.088 184.521Z" fill="#3F3D56"/>
</g>
<defs>
<clipPath id="clip0_252_67">
<rect width="407" height="309" fill="white"/>
</clipPath>
</defs>
</svg>
