<svg width="30" height="30" viewBox="0 0 30 30" fill="none" xmlns="http://www.w3.org/2000/svg">
<path d="M21.0628 0H8.93699C4.00908 0 0 4.00909 0 8.93702V21.0629C0 25.9906 4.00908 30 8.93709 30H21.0629C25.9906 30 30 25.9908 30 21.0629V8.93702C29.9999 4.00909 25.9907 0 21.0628 0ZM26.9819 21.063C26.9819 24.332 24.3319 26.982 21.0629 26.982H8.93709C5.66813 26.982 3.01807 24.332 3.01807 21.063V8.93712C3.01807 5.66815 5.66813 3.01797 8.93709 3.01797H21.0629C24.3319 3.01797 26.9819 5.66825 26.9819 8.93712V21.063Z" fill="white"/>
<path d="M15.0004 7.24072C10.7221 7.24072 7.24121 10.7216 7.24121 14.9999C7.24121 19.2779 10.7221 22.7588 15.0004 22.7588C19.2787 22.7588 22.7593 19.2783 22.7593 14.9999C22.7593 10.7216 19.2787 7.24072 15.0004 7.24072ZM15.0004 19.7408C12.382 19.7408 10.2592 17.6185 10.2592 14.9999C10.2592 12.3814 12.382 10.2587 15.0004 10.2587C17.6188 10.2587 19.7413 12.3813 19.7413 14.9999C19.7413 17.6184 17.6188 19.7408 15.0004 19.7408Z" fill="white"/>
<path d="M24.6326 7.29869C24.6326 8.32539 23.8002 9.15792 22.7733 9.15792C21.7466 9.15792 20.9141 8.32539 20.9141 7.29869C20.9141 6.27188 21.7466 5.43945 22.7733 5.43945C23.8004 5.43945 24.6326 6.27167 24.6326 7.29869Z" fill="white"/>
<path d="M21.0631 0H14.9414V3.01797H21.0631C24.3321 3.01797 26.9821 5.66825 26.9821 8.93712V21.063C26.9821 24.332 24.3321 26.982 21.0631 26.982H14.9414V30H21.0631C25.9908 30 30.0001 25.9908 30.0001 21.0629V8.93702C30.0001 4.00909 25.9909 0 21.0631 0Z" fill="white"/>
<path d="M15.0002 7.24072C14.9804 7.24072 14.9612 7.24216 14.9414 7.24216V10.2601C14.961 10.2599 14.9804 10.2587 15.0002 10.2587C17.6186 10.2587 19.741 12.3813 19.741 14.9999C19.741 17.6184 17.6187 19.7408 15.0002 19.7408C14.9804 19.7408 14.961 19.7396 14.9414 19.7394V22.7574C14.9612 22.7576 14.9804 22.7588 15.0002 22.7588C19.2785 22.7588 22.759 19.2782 22.759 14.9999C22.759 10.7216 19.2785 7.24072 15.0002 7.24072Z" fill="white"/>
</svg>
