<svg width="163" height="167" viewBox="0 0 163 167" fill="none" xmlns="http://www.w3.org/2000/svg">
<path d="M163 71.6151L122.67 83.5L163 95.3799L121 95.2597L156.397 118.188L116.136 106.073L143.729 138.182L108.461 115.053L126.018 153.743L98.6031 121.479L104.698 163.614L87.3574 124.824L81.5 167L75.6426 124.824L58.3025 163.614L64.397 121.479L36.9866 153.743L54.5391 115.053L19.2712 138.182L46.8642 106.073L6.60317 118.188L41.9995 95.2597L0 95.3799L40.3302 83.5L0 71.6151L41.9995 71.7353L6.60317 48.8118L46.8642 60.9272L19.2712 28.8183L54.5391 51.9471L36.9866 13.2572L64.397 45.5213L58.3025 3.38067L75.6426 42.1757L81.5 0L87.3574 42.1757L104.698 3.38067L98.6031 45.5213L126.018 13.2572L108.461 51.9471L143.729 28.8183L116.136 60.9272L156.397 48.8118L121 71.7353L163 71.6151Z" fill="#BBCAFF"/>
</svg>
