<svg width="190" height="161" viewBox="0 0 190 161" fill="none" xmlns="http://www.w3.org/2000/svg">
<g clip-path="url(#clip0_152_598)">
<path d="M183.351 67.4025C173.849 79.5411 155.92 82.3207 141.085 78.0929C136.231 76.6758 131.548 74.7283 127.121 72.2858C124.55 70.8909 122.04 69.3607 119.582 67.7303C118.977 67.3308 118.372 66.9253 117.774 66.5115C117.365 66.2329 116.959 65.9509 116.553 65.6655C111.477 62.0973 106.599 58.1829 101.803 54.291C89.8301 44.5756 77.5296 34.5611 62.8197 29.9257C59.7892 28.9711 55.8688 28.5246 53.9947 31.0892C52.3687 33.3157 53.3611 36.4682 54.7369 38.8566C59.8405 47.7034 69.1043 53.2893 78.3764 57.5847C87.6484 61.8802 97.4701 65.3603 105.53 71.6406C113.591 77.9209 119.744 87.9026 118.095 97.9785C116.674 106.661 109.578 113.716 101.327 116.791C93.076 119.863 83.8736 119.435 75.2967 117.44C66.7197 115.443 58.5774 111.959 50.2998 108.956C45.309 107.143 38.7846 105.889 35.4731 110.037C32.6763 113.542 34.2838 119.07 37.6896 121.987C41.0953 124.904 45.7048 125.881 50.1029 126.758C63.7588 129.482 77.4148 132.206 91.0707 134.929C95.2597 135.763 99.5472 136.635 103.197 138.856C106.847 141.074 109.791 144.949 109.687 149.216C109.582 153.421 106.5 157.137 102.723 158.999C98.9484 160.859 94.5892 161.146 90.3838 160.945C74.6242 160.191 29.4428 135.179 18.6062 131.981C11.6429 129.929 4.02971 126.914 1.09342 120.281C-2.56252 112.024 3.45352 102.034 11.6655 98.2632C19.8754 94.4901 29.3935 95.3258 38.3417 96.5958C47.2898 97.8658 56.5331 99.4819 65.2434 97.069C73.9536 94.656 81.9339 86.7903 81.0748 77.8021C80.3263 69.9814 73.275 64.0883 65.8543 61.491C60.0455 59.4569 53.8655 58.9039 47.7635 57.9883C46.0697 57.7363 44.3822 57.4536 42.7112 57.1054C38.4315 56.2097 34.2568 54.871 30.2548 53.1111C26.0551 51.2682 22.0654 48.9808 18.354 46.288C15.3939 44.1434 12.6275 41.7438 10.0867 39.1167C9.69915 38.7152 9.3157 38.3049 8.93635 37.8856C8.57552 37.4842 8.2187 37.0745 7.87018 36.6566C3.3346 31.2428 -0.0158867 24.5754 0.988907 17.7052C1.9915 10.8534 7.33705 5.14871 13.7016 2.408C17.3801 0.82462 21.3477 0.115886 25.3645 0.0134676C28.3015 -0.0451725 31.2378 0.166015 34.1362 0.644364C47.5481 2.78695 59.8384 9.29666 71.446 16.3451C83.0514 23.3935 94.3616 31.1301 106.978 36.1548C119.594 41.1815 133.956 43.3097 146.754 38.7644C159.553 34.2211 170.068 21.8244 169.442 8.27042C177.931 15.5728 185.145 24.7515 188.339 35.4768C191.534 46.202 190.25 58.5864 183.351 67.4025Z" fill="#3F3D56"/>
<path d="M122.188 53.3951C123.012 53.3951 123.68 52.7276 123.68 51.9043C123.68 51.081 123.012 50.4136 122.188 50.4136C121.363 50.4136 120.695 51.081 120.695 51.9043C120.695 52.7276 121.363 53.3951 122.188 53.3951Z" fill="#3B63F2"/>
<path d="M174.884 34.5447C176.158 34.5447 177.191 33.5128 177.191 32.2399C177.191 30.967 176.158 29.9351 174.884 29.9351C173.61 29.9351 172.577 30.967 172.577 32.2399C172.577 33.5128 173.61 34.5447 174.884 34.5447Z" fill="#FF6584"/>
<path d="M23.5619 105.604C24.0327 105.604 24.4144 105.222 24.4144 104.752C24.4144 104.282 24.0327 103.9 23.5619 103.9C23.0911 103.9 22.7095 104.282 22.7095 104.752C22.7095 105.222 23.0911 105.604 23.5619 105.604Z" fill="#FF6584"/>
<path d="M48.0301 55.7967C48.0306 56.5354 47.9411 57.2714 47.7636 57.9885C46.0699 57.7365 44.3824 57.4538 42.7113 57.1056C38.4316 56.2099 34.2569 54.8712 30.2549 53.1113C30.8985 51.0355 32.2658 49.259 34.1086 48.1044C35.9514 46.9498 38.1475 46.4935 40.2984 46.8184C42.4492 47.1434 44.4121 48.228 45.8308 49.8753C47.2494 51.5227 48.0297 53.6236 48.0301 55.7967Z" fill="#FF6584"/>
<path d="M160.121 48.0642C160.602 48.0642 160.993 47.6742 160.993 47.1932C160.993 46.7122 160.602 46.3223 160.121 46.3223C159.639 46.3223 159.249 46.7122 159.249 47.1932C159.249 47.6742 159.639 48.0642 160.121 48.0642Z" fill="#F0F0F0"/>
<path d="M80.3587 143.927C80.8402 143.927 81.2305 143.538 81.2305 143.056C81.2305 142.575 80.8402 142.186 80.3587 142.186C79.8771 142.186 79.4868 142.575 79.4868 143.056C79.4868 143.538 79.8771 143.927 80.3587 143.927Z" fill="#F0F0F0"/>
<path d="M92.8665 156.012C93.348 156.012 93.7383 155.622 93.7383 155.141C93.7383 154.66 93.348 154.271 92.8665 154.271C92.385 154.271 91.9946 154.66 91.9946 155.141C91.9946 155.622 92.385 156.012 92.8665 156.012Z" fill="#F0F0F0"/>
<path d="M15.5652 121.6C16.0467 121.6 16.437 121.21 16.437 120.729C16.437 120.248 16.0467 119.858 15.5652 119.858C15.0837 119.858 14.6934 120.248 14.6934 120.729C14.6934 121.21 15.0837 121.6 15.5652 121.6Z" fill="#F0F0F0"/>
<path d="M58.4192 105.418C58.9007 105.418 59.291 105.028 59.291 104.547C59.291 104.066 58.9007 103.676 58.4192 103.676C57.9377 103.676 57.5474 104.066 57.5474 104.547C57.5474 105.028 57.9377 105.418 58.4192 105.418Z" fill="#F0F0F0"/>
<path d="M54.113 18.9773C54.5946 18.9773 54.9849 18.5873 54.9849 18.1063C54.9849 17.6253 54.5946 17.2354 54.113 17.2354C53.6315 17.2354 53.2412 17.6253 53.2412 18.1063C53.2412 18.5873 53.6315 18.9773 54.113 18.9773Z" fill="#F0F0F0"/>
<path d="M106.809 87.1877C107.291 87.1877 107.681 86.7978 107.681 86.3168C107.681 85.8357 107.291 85.4458 106.809 85.4458C106.328 85.4458 105.938 85.8357 105.938 86.3168C105.938 86.7978 106.328 87.1877 106.809 87.1877Z" fill="#F0F0F0"/>
<path d="M113.371 102.345C113.852 102.345 114.243 101.955 114.243 101.474C114.243 100.993 113.852 100.604 113.371 100.604C112.889 100.604 112.499 100.993 112.499 101.474C112.499 101.955 112.889 102.345 113.371 102.345Z" fill="#F0F0F0"/>
<path d="M34.7844 20.8865C34.7908 25.284 33.7506 29.6201 31.7498 33.5372C31.4852 34.0534 31.205 34.5607 30.9091 35.0591C27.9789 40.0023 23.5951 43.9233 18.3542 46.2882C15.3941 44.1436 12.6277 41.744 10.0869 39.1169C9.69936 38.7154 9.31591 38.3051 8.93656 37.8858C8.57573 37.4844 8.21891 37.0747 7.87039 36.6568C3.33481 31.243 -0.0156738 24.5756 0.98912 17.7054C1.99171 10.8536 7.33727 5.14891 13.7018 2.4082C17.3803 0.824812 21.3479 0.11609 25.3647 0.0136719C28.5054 2.7845 30.9813 6.22619 32.6089 10.0834C32.8139 10.5689 33.0025 11.0605 33.1809 11.5582C34.2451 14.5533 34.7874 17.7084 34.7844 20.8865Z" fill="#3B63F2"/>
<path d="M47.4968 22.3204C47.4968 26.5872 43.3262 30.5446 35.7519 33.4676C34.2366 34.0534 32.6147 34.584 30.9088 35.0592C24.5237 36.8372 16.9248 37.8224 8.93628 37.8859C8.57545 37.4844 8.21863 37.0748 7.87012 36.6569C7.95622 36.659 8.04232 36.659 8.12842 36.659C16.8038 36.659 25.0343 35.561 31.7495 33.5372C32.99 33.1624 34.1793 32.7568 35.309 32.3205C42.2723 29.6351 46.2665 25.989 46.2665 22.3204C46.2665 18.6518 42.2723 15.0078 35.309 12.3203C34.6201 12.054 33.9107 11.8 33.1807 11.5583C33.0023 11.0606 32.8137 10.569 32.6086 10.0835C33.6994 10.4235 34.7472 10.7868 35.7519 11.1732C43.3262 14.0962 47.4968 18.0557 47.4968 22.3204Z" fill="#E4E4E4"/>
<path d="M9.41383 7.0969C9.89534 7.0969 10.2857 6.70695 10.2857 6.22594C10.2857 5.74492 9.89534 5.35498 9.41383 5.35498C8.93233 5.35498 8.54199 5.74492 8.54199 6.22594C8.54199 6.70695 8.93233 7.0969 9.41383 7.0969Z" fill="#F0F0F0"/>
<path d="M27.6624 12.6272C28.1439 12.6272 28.5342 12.2372 28.5342 11.7562C28.5342 11.2752 28.1439 10.8853 27.6624 10.8853C27.1809 10.8853 26.7905 11.2752 26.7905 11.7562C26.7905 12.2372 27.1809 12.6272 27.6624 12.6272Z" fill="#F0F0F0"/>
<path d="M18.2307 29.034C22.9131 29.034 26.7089 25.242 26.7089 20.5644C26.7089 15.8867 22.9131 12.0947 18.2307 12.0947C13.5483 12.0947 9.75244 15.8867 9.75244 20.5644C9.75244 25.242 13.5483 29.034 18.2307 29.034Z" fill="#F0F0F0"/>
<path opacity="0.3" d="M174.802 65.3911C172.899 65.9524 168.704 66.3661 164.091 66.6201C159.479 66.8721 154.421 66.9827 149.426 67.0892C140.683 67.2777 131.941 67.4668 123.199 67.6566C121.997 67.6832 120.792 67.7078 119.582 67.7303C118.977 67.3309 118.372 66.9253 117.773 66.5116C118.846 66.5177 119.918 66.5116 120.982 66.4911C125.528 66.401 129.377 66.0466 133.761 65.8786C140.507 65.6185 147.79 65.8233 154.821 65.9278C161.852 66.0343 169.863 65.9954 174.802 65.3911Z" fill="#F0F0F0"/>
<path opacity="0.3" d="M40.6158 129.962L12.7461 106.768L39.821 130.891C39.8735 130.979 39.9462 131.054 40.0332 131.108C40.1202 131.163 40.219 131.196 40.3213 131.204C40.4236 131.213 40.5266 131.197 40.6216 131.159C40.7166 131.12 40.801 131.059 40.8677 130.981C40.9345 130.903 40.9816 130.81 41.0053 130.71C41.029 130.61 41.0284 130.506 41.0038 130.407C40.9792 130.307 40.9311 130.215 40.8637 130.137C40.7962 130.06 40.7112 130 40.6158 129.962H40.6158Z" fill="#F0F0F0"/>
<path d="M19.4607 42.1238C19.9422 42.1238 20.3325 41.7338 20.3325 41.2528C20.3325 40.7718 19.9422 40.3818 19.4607 40.3818C18.9792 40.3818 18.5889 40.7718 18.5889 41.2528C18.5889 41.7338 18.9792 42.1238 19.4607 42.1238Z" fill="#F0F0F0"/>
<path d="M92.6832 142.172L96.2893 142.171L98.0049 128.276L92.6826 128.276L92.6832 142.172Z" fill="#FFB6B6"/>
<path d="M91.7632 140.995L92.7782 140.995L96.741 139.385L98.865 140.995H98.8653C100.066 140.995 101.217 141.471 102.065 142.319C102.914 143.167 103.391 144.317 103.391 145.516V145.663L91.7634 145.664L91.7632 140.995Z" fill="#2F2E41"/>
<path d="M65.6772 142.172L62.0711 142.171L60.3555 128.276L65.6778 128.276L65.6772 142.172Z" fill="#FFB6B6"/>
<path d="M66.597 145.664L54.9692 145.663V145.516C54.9693 144.317 55.4462 143.167 56.2949 142.319C57.1437 141.471 58.2948 140.995 59.4951 140.995H59.4954L61.6193 139.385L65.5822 140.995L66.5972 140.995L66.597 145.664Z" fill="#2F2E41"/>
<path d="M78.5982 35.6802L74.9468 38.4578L65.2472 41.0239C65.2472 41.0239 68.7227 65.3913 67.0824 67.03C65.442 68.6687 66.9214 68.7127 66.5918 70.8415C66.2622 72.9703 64.9487 78.5906 64.9487 78.5906H93.8984C93.8984 78.5906 94.1316 75.0976 92.7046 74.3412C91.2775 73.5848 94.0201 70.0542 92.8539 69.4638C91.6876 68.8735 93.328 63.7526 93.328 63.7526L96.8829 46.9869L87.4275 39.5964L85.9894 36.1352L78.5982 35.6802Z" fill="#3B63F2"/>
<path d="M83.1545 57.4543C83.8522 57.4543 84.4178 56.8893 84.4178 56.1923C84.4178 55.4952 83.8522 54.9302 83.1545 54.9302C82.4567 54.9302 81.8911 55.4952 81.8911 56.1923C81.8911 56.8893 82.4567 57.4543 83.1545 57.4543Z" fill="#F2F2F2"/>
<path d="M64.949 78.5903L63.7552 109.3C63.7552 109.3 58.6007 131.981 59.4961 132.577C60.3914 133.174 60.7707 136.729 60.7707 136.729L65.8444 137.325C65.8444 137.325 65.8444 134.94 67.0382 134.046C68.232 133.151 79.2746 91.1125 79.2746 91.1125L90.0476 131.758C90.0476 131.758 90.3173 134.046 91.2126 134.046C92.108 134.046 92.4064 137.325 92.4064 137.325H97.4801V134.046C97.4801 134.046 99.7598 133.324 98.8644 130.939C97.9691 128.553 93.8987 78.5903 93.8987 78.5903H64.949Z" fill="#2F2E41"/>
<path d="M82.3902 33.85C85.7692 33.85 88.5084 31.1136 88.5084 27.738C88.5084 24.3624 85.7692 21.626 82.3902 21.626C79.0112 21.626 76.272 24.3624 76.272 27.738C76.272 31.1136 79.0112 33.85 82.3902 33.85Z" fill="#FFB6B6"/>
<path opacity="0.1" d="M92.854 55.1859L94.0478 56.0804L94.6447 51.9062L92.854 55.1859Z" fill="black"/>
<path d="M65.8193 41.0001C65.8193 41.0001 64.3271 40.7019 63.4317 43.3853C62.5364 46.0686 59.2534 56.2056 59.2534 57.9945C59.2534 59.7834 79.6984 67.6765 79.6984 67.6765L77.5711 60.2213L68.2069 55.3112L65.8193 41.0001Z" fill="#3B63F2"/>
<path d="M80.6469 66.5714C82.572 66.5714 84.1326 65.0123 84.1326 63.0892C84.1326 61.166 82.572 59.6069 80.6469 59.6069C78.7218 59.6069 77.1611 61.166 77.1611 63.0892C77.1611 65.0123 78.7218 66.5714 80.6469 66.5714Z" fill="#FFB6B6"/>
<path opacity="0.1" d="M67.9341 51.6182L68.207 55.3112L76.8662 59.8516L69.1643 54.6907L67.9341 51.6182Z" fill="black"/>
<path d="M88.7509 52.1445H88.6386V49.0703C88.6386 48.8366 88.5925 48.6053 88.503 48.3894C88.4135 48.1735 88.2823 47.9774 88.1169 47.8122C87.9515 47.6469 87.7552 47.5159 87.5391 47.4265C87.323 47.337 87.0914 47.291 86.8575 47.291H80.3377C80.1038 47.291 79.8722 47.337 79.6561 47.4265C79.44 47.5159 79.2437 47.6469 79.0783 47.8122C78.9129 47.9774 78.7817 48.1735 78.6922 48.3894C78.6027 48.6053 78.5566 48.8366 78.5566 49.0703V65.9358C78.5566 66.1695 78.6027 66.4008 78.6922 66.6167C78.7817 66.8326 78.9129 67.0287 79.0783 67.194C79.2437 67.3592 79.44 67.4902 79.6561 67.5797C79.8722 67.6691 80.1038 67.7151 80.3377 67.7151H86.8575C87.0914 67.7151 87.323 67.6691 87.5391 67.5797C87.7552 67.4902 87.9515 67.3592 88.1169 67.194C88.2823 67.0287 88.4135 66.8326 88.503 66.6167C88.5925 66.4008 88.6386 66.1695 88.6386 65.9358V54.3328H88.7509V52.1445Z" fill="#F0F0F0"/>
<path d="M96.8829 46.9868C96.8829 46.9868 97.7783 47.5831 98.3752 50.2664C98.9721 52.9498 102.852 63.0868 101.36 65.472C99.8674 67.8572 99.4269 70.4029 94.3532 66.8251L87.3325 60.4035L92.4062 55.6331L94.4953 57.1239L96.8829 46.9868Z" fill="#3B63F2"/>
<path d="M83.6773 54.8081C84.5014 54.8081 85.1695 54.1407 85.1695 53.3174C85.1695 52.4941 84.5014 51.8267 83.6773 51.8267C82.8532 51.8267 82.1851 52.4941 82.1851 53.3174C82.1851 54.1407 82.8532 54.8081 83.6773 54.8081Z" fill="#3B63F2"/>
<path d="M87.997 60.0655C89.9221 60.0655 91.4827 58.5065 91.4827 56.5833C91.4827 54.6601 89.9221 53.1011 87.997 53.1011C86.0718 53.1011 84.5112 54.6601 84.5112 56.5833C84.5112 58.5065 86.0718 60.0655 87.997 60.0655Z" fill="#FFB6B6"/>
<path opacity="0.1" d="M67.7697 62.7637L77.7763 67.1855L67.4917 65.1775L67.7697 62.7637Z" fill="black"/>
<path d="M76.2174 28.9562L75.3774 25.7624C75.1582 24.9291 74.9372 24.0789 74.9864 23.2187C75.0357 22.3585 75.4009 21.4708 76.1264 21.0048C76.8518 20.5388 77.9592 20.6488 78.4261 21.3733C78.5148 20.2165 79.5683 19.3266 80.686 19.0114C81.8037 18.6962 82.9904 18.8208 84.1506 18.874C85.3108 18.9272 86.5355 18.8901 87.5368 18.3022C87.6131 18.531 87.6081 18.779 87.5226 19.0044C87.4371 19.2299 87.2763 19.4189 87.0674 19.5397C87.3164 19.6076 87.5818 19.5784 87.81 19.4582C88.0382 19.3379 88.2122 19.1356 88.2967 18.892C88.3043 19.562 88.0565 20.2098 87.6034 20.7039C88.0356 20.4897 88.532 20.4438 88.9961 20.5751C89.4602 20.7064 89.8588 21.0055 90.1144 21.4142C90.6254 22.2992 90.3391 23.4107 90.0401 24.3878L88.5056 29.4027C88.2729 28.6403 88.229 27.8355 88.1045 27.0482C87.98 26.261 87.7586 25.4571 87.2384 24.8528C86.7182 24.2485 85.8346 23.8985 85.0954 24.1986C84.6807 24.3669 84.3645 24.7084 83.9901 24.9535C83.222 25.4564 82.2448 25.5286 81.3321 25.4262C80.4194 25.3239 79.53 25.0643 78.6174 24.9606C78.046 24.8956 77.4084 24.9128 76.9773 25.293C76.6808 25.6008 76.485 25.9914 76.4158 26.4129C76.2123 27.2531 76.1323 28.1184 76.1784 28.9817" fill="#2F2E41"/>
</g>
<defs>
<clipPath id="clip0_152_598">
<rect width="190" height="161" fill="white"/>
</clipPath>
</defs>
</svg>
