<svg width="187" height="182" viewBox="0 0 187 182" fill="none" xmlns="http://www.w3.org/2000/svg">
<g clip-path="url(#clip0_152_408)">
<path d="M175.931 50.2327C174.181 47.0699 172.238 44.0175 170.115 41.0924C168.627 39.0402 167.055 37.0565 165.399 35.1413H165.395C162.398 31.6743 159.139 28.4436 155.646 25.4782C154.931 24.8702 154.207 24.2747 153.473 23.6916C146.846 18.4119 139.496 14.1115 131.65 10.9219L131.719 22.4044L132.47 153.298H67.3926L63.7327 22.6514L64.0053 11.3522C32.0997 24.7902 9.69729 56.3852 9.69729 93.2221C9.69135 100.825 10.66 108.398 12.5795 115.754C13.3902 118.864 14.3718 121.926 15.5197 124.928C15.9341 126.017 16.3713 127.097 16.8312 128.167C17.053 128.688 17.2788 129.204 17.5129 129.719C17.8134 130.391 18.1263 131.061 18.4474 131.723C18.6961 132.244 18.9516 132.761 19.2141 133.275C19.5518 133.95 19.9006 134.619 20.2605 135.282C20.5381 135.803 20.824 136.319 21.1141 136.834C25.7941 145.124 31.7703 152.609 38.8154 159.005C40.8232 160.829 42.9125 162.558 45.0832 164.193C60.4429 175.751 79.1359 182 98.3486 182C117.561 182 136.254 175.751 151.614 164.193C152.795 163.304 153.952 162.387 155.085 161.439C155.837 160.812 156.577 160.174 157.304 159.524C157.497 159.352 157.689 159.179 157.88 159.005C164.375 153.109 169.965 146.284 174.468 138.751C176.122 135.99 177.622 133.138 178.961 130.211C179.315 129.439 179.658 128.66 179.99 127.874C181.519 124.272 182.806 120.571 183.84 116.796C184 116.213 184.154 115.628 184.302 115.04V115.038C184.327 114.937 184.354 114.833 184.379 114.731C184.532 114.113 184.679 113.49 184.82 112.868V112.866C185.276 110.859 185.661 108.829 185.974 106.774C186.014 106.51 186.053 106.247 186.09 105.983C186.105 105.888 186.119 105.792 186.13 105.697V105.695C186.354 104.107 186.535 102.508 186.675 100.897C186.89 98.368 186.999 95.8096 187 93.2221C187.023 78.1825 183.214 63.3858 175.931 50.2327Z" fill="#F2F2F2"/>
<path d="M167.225 146.813C172.472 139.712 174.49 129.712 170.409 121.881C166.581 130.689 159.765 137.857 151.168 142.116C147.846 143.747 143.982 145.215 142.445 148.584C141.488 150.681 141.671 153.156 142.44 155.329C143.209 157.501 144.517 159.434 145.811 161.341L145.879 161.912C154.027 158.529 161.978 153.913 167.225 146.813Z" fill="#E6E6E6"/>
<path d="M170.235 121.944C169.999 129.251 167.471 136.299 163.009 142.085C162.07 143.348 160.939 144.455 159.656 145.365C158.378 146.211 156.897 146.698 155.367 146.777C153.941 146.88 152.472 146.819 151.096 147.266C150.396 147.506 149.753 147.891 149.212 148.396C148.67 148.902 148.241 149.516 147.953 150.199C147.192 151.883 147.08 153.74 147.033 155.56C146.981 157.58 146.959 159.68 146.008 161.517C145.892 161.739 146.244 161.905 146.359 161.683C148.015 158.487 146.94 154.75 147.927 151.391C148.387 149.823 149.322 148.385 150.885 147.757C152.251 147.208 153.767 147.269 155.211 147.178C156.704 147.123 158.162 146.702 159.456 145.953C160.781 145.112 161.953 144.05 162.922 142.815C165.149 140.068 166.93 136.988 168.201 133.688C169.673 129.929 170.492 125.945 170.622 121.91C170.63 121.66 170.242 121.696 170.235 121.944Z" fill="white"/>
<path d="M164.555 140.307C165.626 140.925 166.882 141.141 168.098 140.918C169.313 140.694 170.41 140.045 171.192 139.087C171.35 138.892 171.056 138.638 170.898 138.833C170.171 139.727 169.149 140.331 168.017 140.537C166.884 140.743 165.715 140.536 164.721 139.955C164.505 139.829 164.34 140.181 164.555 140.307Z" fill="white"/>
<path d="M156.096 146.821C155.418 144.383 155.683 141.779 156.837 139.528C156.951 139.305 156.6 139.139 156.485 139.361C155.289 141.706 155.019 144.417 155.73 146.952C155.798 147.194 156.164 147.061 156.096 146.821H156.096Z" fill="white"/>
<path d="M169.158 129.947C168.694 129.794 168.275 129.529 167.938 129.174C167.602 128.819 167.359 128.386 167.231 127.914C167.166 127.671 166.801 127.804 166.865 128.045C167.009 128.566 167.278 129.044 167.648 129.437C168.019 129.83 168.48 130.126 168.992 130.299C169.038 130.319 169.091 130.321 169.139 130.304C169.187 130.287 169.227 130.252 169.25 130.206C169.272 130.159 169.275 130.106 169.257 130.057C169.24 130.009 169.204 129.969 169.158 129.947Z" fill="white"/>
<path d="M141.2 115.649C141.236 115.802 141.272 115.954 141.306 116.109C141.782 118.162 142.091 120.25 142.23 122.352C142.243 122.514 142.254 122.679 142.263 122.842C142.542 127.911 141.88 132.988 140.309 137.814C139.682 139.735 138.91 141.604 138 143.407C136.743 145.897 135.182 148.496 134.83 151.177C134.79 151.457 134.768 151.738 134.763 152.02L145.178 161.951C145.213 161.961 145.246 161.974 145.281 161.985L145.678 162.401C145.732 162.311 145.785 162.217 145.839 162.127C145.87 162.075 145.899 162.021 145.93 161.969C145.95 161.934 145.97 161.898 145.99 161.868C145.997 161.856 146.003 161.844 146.008 161.835C146.028 161.804 146.044 161.773 146.061 161.745C146.362 161.22 146.659 160.691 146.953 160.159C146.955 160.157 146.955 160.157 146.955 160.152C149.186 156.095 151.098 151.816 152.3 147.383C152.336 147.249 152.375 147.114 152.406 146.976C152.937 144.974 153.304 142.933 153.503 140.872C153.608 139.743 153.656 138.609 153.647 137.475C153.617 134.545 153.128 131.638 152.197 128.861C150.339 123.324 146.734 118.444 141.594 115.844C141.463 115.778 141.334 115.713 141.2 115.649Z" fill="#E6E6E6"/>
<path d="M141.097 115.804C145.303 121.781 147.521 128.932 147.437 136.243C147.447 137.817 147.209 139.383 146.732 140.883C146.22 142.329 145.331 143.611 144.156 144.597C143.08 145.538 141.87 146.375 141.041 147.562C140.625 148.176 140.344 148.87 140.216 149.601C140.087 150.331 140.114 151.08 140.295 151.799C140.699 153.602 141.726 155.152 142.783 156.634C143.956 158.278 145.201 159.968 145.545 162.008C145.587 162.255 145.968 162.176 145.926 161.929C145.327 158.379 142.222 156.044 140.99 152.766C140.415 151.237 140.297 149.525 141.167 148.081C141.928 146.819 143.175 145.954 144.273 145.011C145.432 144.066 146.343 142.852 146.926 141.473C147.478 140.002 147.776 138.448 147.807 136.877C147.933 133.342 147.504 129.809 146.535 126.407C145.45 122.518 143.708 118.844 141.386 115.544C141.243 115.34 140.955 115.601 141.097 115.804Z" fill="white"/>
<path d="M147.603 133.89C148.83 133.738 149.962 133.154 150.799 132.242C151.635 131.331 152.121 130.151 152.169 128.914C152.178 128.664 151.79 128.638 151.781 128.889C151.738 130.041 151.286 131.14 150.505 131.987C149.725 132.834 148.667 133.374 147.524 133.509C147.276 133.539 147.356 133.92 147.603 133.89H147.603Z" fill="white"/>
<path d="M144.765 144.192C142.758 142.654 141.403 140.416 140.971 137.922C140.929 137.675 140.548 137.755 140.591 138.001C141.045 140.595 142.459 142.922 144.552 144.517C144.751 144.669 144.963 144.343 144.765 144.192V144.192Z" fill="white"/>
<path d="M145.049 122.844C144.587 123.002 144.093 123.042 143.611 122.961C143.129 122.881 142.675 122.682 142.289 122.382C142.091 122.227 141.879 122.554 142.075 122.707C142.503 123.036 143.005 123.256 143.537 123.346C144.07 123.436 144.616 123.395 145.128 123.225C145.178 123.213 145.221 123.182 145.249 123.14C145.277 123.097 145.288 123.045 145.279 122.995C145.268 122.944 145.238 122.9 145.195 122.872C145.152 122.843 145.1 122.833 145.049 122.844Z" fill="white"/>
<path d="M4.13858 107.047C-0.515073 99.5432 -1.71482 89.4111 2.98881 81.939C6.08938 91.0289 12.3007 98.7276 20.5238 103.673C23.702 105.569 27.434 107.346 28.6929 110.829C29.4763 112.997 29.0938 115.449 28.151 117.552C27.2081 119.655 25.7476 121.475 24.303 123.27L24.1886 123.834C16.3423 119.799 8.79224 114.55 4.13858 107.047Z" fill="#E6E6E6"/>
<path d="M3.15725 82.0159C2.79857 89.3183 4.74664 96.5483 8.72476 102.679C9.55776 104.014 10.5957 105.209 11.8003 106.22C13.0056 107.167 14.4421 107.774 15.9607 107.977C17.3729 108.195 18.8425 108.254 20.1772 108.812C20.8561 109.108 21.4649 109.544 21.9638 110.092C22.4626 110.64 22.8402 111.287 23.0717 111.991C23.6941 113.731 23.6551 115.591 23.5539 117.409C23.4416 119.427 23.2929 121.521 24.0924 123.429C24.1893 123.661 23.8254 123.798 23.7287 123.567C22.3377 120.247 23.7126 116.61 23.0017 113.181C22.67 111.581 21.8548 110.072 20.3483 109.319C19.0308 108.66 17.5154 108.598 16.0836 108.389C14.5993 108.213 13.1807 107.675 11.9517 106.823C10.6996 105.876 9.6174 104.723 8.75156 103.413C6.75529 100.494 5.22969 97.2797 4.23063 93.8865C3.06896 90.0202 2.5763 85.9833 2.77395 81.9507C2.78629 81.7011 3.16952 81.768 3.15726 82.0159L3.15725 82.0159Z" fill="white"/>
<path d="M7.32797 100.78C6.21026 101.309 4.94125 101.423 3.74758 101.101C2.5539 100.779 1.51329 100.043 0.81158 99.0239C0.670303 98.8172 0.984407 98.5877 1.12587 98.7947C1.77755 99.7449 2.74696 100.431 3.85912 100.728C4.97128 101.025 6.15293 100.915 7.19081 100.416C7.41648 100.308 7.55235 100.673 7.32797 100.78Z" fill="white"/>
<path d="M15.2304 107.961C16.1041 105.586 16.0519 102.969 15.0844 100.632C14.9883 100.4 15.3522 100.263 15.4481 100.494C16.4504 102.929 16.4992 105.652 15.5846 108.121C15.4973 108.357 15.1435 108.195 15.2304 107.961Z" fill="white"/>
<path d="M3.58108 90.0797C4.05612 89.9654 4.49536 89.7347 4.85936 89.4083C5.22336 89.0819 5.50071 88.6702 5.66652 88.2099C5.75083 87.9737 6.10448 88.1357 6.02071 88.3704C5.83516 88.878 5.5283 89.3324 5.12694 89.6939C4.72557 90.0553 4.24192 90.3129 3.71824 90.444C3.66991 90.4605 3.61713 90.4579 3.5706 90.4369C3.52408 90.4158 3.48732 90.3778 3.46779 90.3305C3.44987 90.2822 3.45172 90.2287 3.47293 90.1818C3.49414 90.1348 3.53301 90.0981 3.58108 90.0797Z" fill="white"/>
<path d="M32.6068 78.1055C32.5583 78.2545 32.5099 78.4035 32.4634 78.5552C31.8223 80.5621 31.345 82.6178 31.0364 84.7021C31.0099 84.8629 30.9856 85.0262 30.9638 85.1874C30.2737 90.2169 30.5219 95.331 31.696 100.27C32.165 102.235 32.7826 104.161 33.5434 106.032C34.5943 108.616 35.939 111.333 36.0722 114.034C36.0893 114.316 36.0889 114.598 36.0711 114.88L24.8846 123.93C24.8489 123.938 24.8151 123.948 24.7793 123.956L24.3491 124.338C24.3031 124.244 24.2575 124.146 24.2115 124.052C24.1846 123.998 24.1602 123.941 24.1333 123.887C24.1162 123.85 24.0991 123.813 24.0816 123.781C24.0758 123.769 24.0702 123.757 24.0665 123.747C24.0489 123.715 24.036 123.683 24.0205 123.653C23.7638 123.105 23.5104 122.554 23.2604 122C23.2584 121.997 23.2584 121.997 23.2588 121.993C21.365 117.768 19.8067 113.347 18.9679 108.831C18.9427 108.695 18.9153 108.556 18.8953 108.416C18.5285 106.378 18.3286 104.314 18.2977 102.243C18.2844 101.109 18.3285 99.9752 18.4297 98.8458C18.6968 95.9281 19.4205 93.0706 20.5743 90.3781C22.8752 85.0109 26.8646 80.4404 32.1977 78.2675C32.3342 78.212 32.4682 78.1584 32.6068 78.1055Z" fill="#E6E6E6"/>
<path d="M32.6963 78.2678C28.0196 83.8822 25.2283 90.8294 24.7189 98.1228C24.5814 99.691 24.6916 101.271 25.0454 102.805C25.4383 104.288 26.2205 105.638 27.3109 106.716C28.3074 107.742 29.4453 108.675 30.1755 109.925C30.5398 110.571 30.7637 111.286 30.8326 112.024C30.9015 112.762 30.8138 113.507 30.5752 114.209C30.0262 115.973 28.8769 117.435 27.7033 118.825C26.4003 120.368 25.0225 121.951 24.5136 123.957C24.452 124.2 24.0791 124.09 24.1406 123.847C25.0259 120.358 28.3104 118.283 29.8041 115.116C30.5011 113.639 30.7577 111.942 30.0077 110.432C29.3518 109.112 28.1793 108.149 27.1613 107.119C26.0823 106.083 25.2729 104.799 24.8039 103.377C24.3732 101.867 24.2024 100.293 24.2988 98.7253C24.4596 95.1913 25.1743 91.7046 26.4166 88.393C27.8136 84.6056 29.8472 81.0853 32.4295 77.9846C32.5894 77.7928 32.8552 78.0773 32.6963 78.2679V78.2678Z" fill="white"/>
<path d="M24.7445 95.7645C23.5342 95.5128 22.4526 94.8384 21.693 93.8619C20.9333 92.8853 20.545 91.6701 20.5975 90.4333C20.6001 90.3829 20.6221 90.3354 20.659 90.301C20.6958 90.2665 20.7446 90.2477 20.795 90.2486C20.8454 90.2494 20.8935 90.2698 20.9292 90.3055C20.9649 90.3411 20.9853 90.3893 20.9863 90.4397C20.9353 91.5913 21.2971 92.7233 22.0064 93.6312C22.7156 94.5391 23.7256 95.1633 24.854 95.391C25.0992 95.4408 24.9883 95.814 24.7445 95.7645Z" fill="white"/>
<path d="M26.7369 106.263C28.862 104.894 30.3938 102.773 31.0267 100.323C31.0892 100.08 31.4622 100.19 31.3997 100.432C30.7363 102.981 29.1378 105.185 26.9233 106.604C26.7121 106.74 26.5269 106.397 26.7369 106.263V106.263Z" fill="white"/>
<path d="M28.1861 84.9619C28.6342 85.1571 29.1236 85.2377 29.6104 85.1966C30.0973 85.1555 30.5663 84.9939 30.9754 84.7264C31.1847 84.5886 31.3697 84.9312 31.1617 85.0681C30.7084 85.3615 30.1902 85.5393 29.6524 85.5859C29.1146 85.6325 28.5736 85.5466 28.0767 85.3355C28.0282 85.3195 27.9875 85.2857 27.9631 85.2408C27.9386 85.1959 27.9321 85.1434 27.9449 85.0939C27.9596 85.0445 27.9932 85.0029 28.0384 84.9782C28.0836 84.9535 28.1367 84.9477 28.1861 84.9619Z" fill="white"/>
<path d="M90.5255 30.4523C97.3277 30.4523 102.842 24.9302 102.842 18.1182C102.842 11.3063 97.3277 5.78418 90.5255 5.78418C83.7233 5.78418 78.209 11.3063 78.209 18.1182C78.209 24.9302 83.7233 30.4523 90.5255 30.4523Z" fill="#FF6584"/>
<path d="M128.236 17.4744C127.126 16.3003 125.954 15.1865 124.726 14.1378C122.326 12.1002 119.67 10.3676 116.709 9.27616C115.594 8.86389 114.442 8.56023 113.269 8.36938C113.129 8.34657 112.99 8.32374 112.849 8.30506C112.838 8.30402 112.828 8.30402 112.818 8.30506C112.796 8.29892 112.774 8.29475 112.751 8.29261C112.463 8.25526 112.175 8.22621 111.885 8.20547C110.323 8.10146 108.754 8.24289 107.236 8.62462C106.355 8.84723 105.495 9.14718 104.666 9.52099C103.836 9.92791 103.032 10.3845 102.257 10.8884C101.84 11.1416 101.412 11.3736 100.972 11.5835C99.6884 12.1926 98.3297 12.628 96.9315 12.8783C95.9873 13.0479 95.0312 13.1423 94.0721 13.1605C93.2392 13.1771 92.4539 13.2062 91.6645 13.507C90.8219 13.824 90.0652 14.334 89.4546 14.9963C88.8441 15.6585 88.3967 16.4546 88.1482 17.3208C88.1286 17.3978 88.1342 17.479 88.164 17.5525C88.1938 17.6261 88.2464 17.6881 88.314 17.7296C88.5274 17.8832 88.7346 18.0575 88.9605 18.1944C89.1598 18.2855 89.3725 18.3437 89.5903 18.3666C89.9467 18.4413 90.3038 18.514 90.6616 18.5845C91.9773 18.8459 93.2986 19.0777 94.6254 19.2796C97.2941 19.6842 99.9781 19.9692 102.677 20.1345C102.694 20.1369 102.71 20.1383 102.727 20.1387C105.776 20.323 108.833 20.3528 111.885 20.2279C112.347 20.2092 112.807 20.1864 113.269 20.1594C115.194 20.0515 117.114 19.8814 119.03 19.649C120.801 19.4332 122.566 19.1655 124.324 18.8459C125.579 18.6177 126.83 18.3632 128.076 18.0824C128.137 18.0644 128.191 18.0312 128.235 17.9858C128.279 17.9404 128.311 17.8845 128.327 17.8234C128.343 17.7623 128.343 17.698 128.327 17.6369C128.311 17.5758 128.28 17.5198 128.236 17.4744Z" fill="#E6E6E6"/>
<path d="M102.636 33.9206C100.853 32.0104 98.8879 30.2787 96.7697 28.7498C96.0673 28.2559 95.3442 27.7911 94.6003 27.3657C93.6883 26.8386 92.7413 26.3747 91.7658 25.9776C91.5482 25.8884 91.3286 25.8033 91.109 25.7224C89.8612 25.2595 88.5668 24.9339 87.2488 24.7513C87.2384 24.7492 87.2281 24.7513 87.2177 24.7492C87.197 24.7451 87.1742 24.7409 87.1535 24.7367C86.5145 24.6538 85.8708 24.6143 85.2265 24.6185C84.7644 24.6185 84.3003 24.6434 83.8403 24.689C83.0971 24.7623 82.3603 24.8899 81.6357 25.0708C81.2772 25.1601 80.9208 25.2638 80.5707 25.3821C80.0599 25.5504 79.5585 25.7457 79.0684 25.9672C79.0602 25.9714 79.054 25.9734 79.0457 25.9776C78.223 26.3806 77.4259 26.8338 76.6587 27.3346C76.6421 27.345 76.6235 27.3554 76.6069 27.3657C75.7355 27.8878 74.8136 28.3202 73.8553 28.6564C73.0326 28.9445 72.1888 29.1679 71.3315 29.3245C70.3875 29.4946 69.4312 29.5883 68.4722 29.6046C67.6392 29.6212 66.8539 29.6503 66.0665 29.9532C65.2238 30.2702 64.4667 30.7801 63.8558 31.4423C63.2449 32.1045 62.7971 32.9006 62.5483 33.767C62.5291 33.844 62.5348 33.925 62.5646 33.9985C62.5944 34.072 62.6467 34.1341 62.714 34.1758C62.9274 34.3294 63.1367 34.5016 63.3605 34.6385C63.5595 34.7303 63.7724 34.7885 63.9904 34.8108C64.3468 34.8855 64.7032 34.9602 65.0616 35.0307C66.3773 35.2922 67.6993 35.5232 69.0275 35.7238C70.8488 35.9997 72.6777 36.2204 74.5142 36.3857C75.3844 36.4666 76.2553 36.533 77.127 36.5849C79.3627 36.7197 81.6005 36.7723 83.8403 36.7426C84.3024 36.7363 84.7645 36.726 85.2265 36.7114C87.9699 36.6305 90.7049 36.4244 93.4317 36.0931C96.4711 35.7248 99.4898 35.202 102.476 34.5265C102.536 34.5088 102.591 34.4757 102.635 34.4305C102.679 34.3854 102.711 34.3296 102.727 34.2686C102.743 34.2077 102.743 34.1436 102.727 34.0826C102.711 34.0217 102.679 33.9658 102.636 33.9206Z" fill="#E6E6E6"/>
<path d="M71.936 0.818727L82.7865 150.976L61.0854 152.905V2.72916C63.6713 0.706372 67.3833 0.389902 71.936 0.818727Z" fill="#CCCCCC"/>
<path d="M125.496 0.818727L114.646 150.976L136.347 152.905V2.72916C133.761 0.706372 130.049 0.389902 125.496 0.818727Z" fill="#CCCCCC"/>
<path d="M136.857 2.79485C136.184 1.14145 134.752 0 133.096 0H64.1043C61.8023 0 59.9312 2.21187 59.9312 4.93324V154.178C59.9111 155.558 60.4266 156.893 61.3692 157.901C61.8624 158.42 62.4868 158.795 63.176 158.986C63.4783 159.07 63.7906 159.112 64.1043 159.111H133.096C133.41 159.112 133.722 159.07 134.025 158.986C135.881 158.486 137.269 156.522 137.269 154.178V4.93325C137.271 4.20045 137.131 3.47424 136.857 2.79485ZM135.885 154.178C135.885 155.995 134.634 157.475 133.096 157.475H64.1043C62.83 157.475 61.7505 156.458 61.421 155.074C61.3506 154.781 61.3151 154.48 61.3153 154.178V4.93325C61.3153 3.11574 62.5669 1.63871 64.1043 1.63871H133.096C133.379 1.63849 133.66 1.68909 133.925 1.78813C135.059 2.20454 135.885 3.45622 135.885 4.93325V154.178Z" fill="#CCCCCC"/>
<path d="M136.577 45.3652H60.6235V46.7524H136.577V45.3652Z" fill="#CCCCCC"/>
<path d="M136.577 16.7305H60.6235V18.1176H136.577V16.7305Z" fill="#CCCCCC"/>
<path d="M136.577 68.4844H60.6235V69.8715H136.577V68.4844Z" fill="#CCCCCC"/>
<path d="M85.2714 0.622559H83.8862V88.1357H85.2714V0.622559Z" fill="#CCCCCC"/>
<path d="M113.315 0.622559H111.93V88.1357H113.315V0.622559Z" fill="#CCCCCC"/>
<path d="M145.234 150.442H54.2746C52.6222 150.444 51.0381 151.102 49.8696 152.272C48.7012 153.442 48.0439 155.029 48.042 156.683C48.0412 157.479 48.1938 158.268 48.4916 159.005C48.9543 160.163 49.7525 161.155 50.7831 161.853C51.8138 162.552 53.0299 162.926 54.2746 162.927H145.234C146.322 162.927 147.391 162.641 148.335 162.099C149.279 161.556 150.064 160.776 150.613 159.835C150.77 159.569 150.905 159.292 151.019 159.005C151.317 158.268 151.47 157.479 151.469 156.683C151.467 155.028 150.809 153.442 149.64 152.272C148.471 151.102 146.887 150.444 145.234 150.442Z" fill="#CCCCCC"/>
<path d="M136.577 84.8989H61.0854V89.5228H136.577V84.8989Z" fill="#CCCCCC"/>
<path d="M98.1386 83.5117H99.5238C100.197 83.5117 100.843 83.7797 101.319 84.2566C101.796 84.7335 102.063 85.3804 102.063 86.0548H95.5991C95.5991 85.7209 95.6648 85.3902 95.7924 85.0816C95.92 84.7731 96.1071 84.4927 96.3429 84.2566C96.5787 84.0204 96.8587 83.8331 97.1668 83.7053C97.4749 83.5775 97.8051 83.5117 98.1386 83.5117Z" fill="#CCCCCC"/>
<path d="M100.163 97.9392C108.065 97.9392 114.47 91.5246 114.47 83.6119C114.47 75.6992 108.065 69.2847 100.163 69.2847C92.2618 69.2847 85.8564 75.6992 85.8564 83.6119C85.8564 91.5246 92.2618 97.9392 100.163 97.9392Z" fill="#FFB8B8"/>
<path d="M84.2035 69.8289C84.3117 68.1836 85.3982 66.4999 88.8501 65.6202C88.8501 65.6202 94.7743 58.0339 102.825 62.0122C102.825 62.0122 106.727 61.3398 109.621 65.3949C109.621 65.3949 112.49 63.7002 113.701 66.704C113.701 66.704 117.066 72.8309 115.827 79.0803C114.588 85.3298 113.954 86.1097 113.954 86.1097C113.954 86.1097 115.533 73.1828 106.438 74.0792C97.3426 74.9755 90.0199 71.7724 87.9601 78.7856C86.2498 84.609 86.4652 87.6334 86.4652 87.6334C86.4652 87.6334 80.7458 81.824 82.6904 77.2496C83.685 74.9099 84.0367 72.3662 84.2035 69.8289Z" fill="#2F2E41"/>
<path d="M61.2573 161.91H140.392C139.863 155.865 139.518 132.758 139.518 131.237C139.518 124.529 134.037 117.209 134.037 117.209L132.075 116.123L115.691 111.004L111.451 105.489C111.007 104.909 110.435 104.441 109.78 104.121C109.125 103.8 108.404 103.637 107.675 103.642L94.2817 103.743C93.1031 103.752 91.9703 104.201 91.1054 105.003L82.8117 112.708L70.6473 118.525L70.6266 118.505L70.4995 118.599L68.6942 119.901L67.533 120.742C67.533 120.742 64.4868 124.402 62.0521 135.379C61.6858 137.03 61.4287 158.404 61.2573 161.91Z" fill="#3B63F2"/>
<path d="M158.708 159.005C158.518 159.179 158.325 159.351 158.132 159.524C157.403 160.173 156.663 160.811 155.913 161.439C154.78 162.385 153.623 163.303 152.443 164.192H45.9119C43.7425 162.561 41.6532 160.832 39.644 159.005H158.708Z" fill="#CCCCCC"/>
<path d="M119.659 160.25H80.498L81.3267 156.308H118.83L119.659 160.25Z" fill="#2F2E41"/>
<path d="M155.089 143.235H144.899C144.669 143.235 144.441 143.284 144.233 143.381C144.024 143.478 143.839 143.62 143.691 143.796C143.549 143.768 143.404 143.754 143.26 143.754C142.942 143.754 142.628 143.816 142.334 143.938C142.041 144.059 141.774 144.237 141.549 144.462C141.324 144.687 141.146 144.954 141.025 145.248C140.903 145.542 140.84 145.856 140.84 146.175C140.84 146.493 140.903 146.808 141.025 147.101C141.146 147.395 141.324 147.662 141.549 147.887C141.774 148.112 142.041 148.29 142.334 148.411C142.628 148.533 142.942 148.595 143.26 148.595C143.625 148.595 143.985 148.511 144.312 148.35L144.482 150.442L145.158 158.708C145.19 158.812 145.233 158.911 145.286 159.005C145.423 159.256 145.624 159.466 145.87 159.612C146.115 159.758 146.395 159.835 146.681 159.835H153.307C153.593 159.835 153.873 159.758 154.119 159.612C154.364 159.466 154.566 159.256 154.703 159.005C154.755 158.911 154.798 158.811 154.83 158.708L156.612 145.3C156.685 145.061 156.701 144.809 156.659 144.563C156.618 144.317 156.519 144.084 156.37 143.883C156.222 143.682 156.029 143.519 155.807 143.406C155.584 143.294 155.338 143.235 155.089 143.235ZM143.26 147.904C142.802 147.904 142.363 147.721 142.04 147.397C141.716 147.073 141.535 146.633 141.535 146.175C141.535 145.716 141.716 145.277 142.04 144.952C142.363 144.628 142.802 144.446 143.26 144.445C143.291 144.445 143.32 144.453 143.351 144.455C143.283 144.734 143.291 145.026 143.376 145.3L144.105 147.674C143.848 147.823 143.557 147.903 143.26 147.904Z" fill="#3F3D56"/>
<path d="M132.073 99.3638H67.5668C67.0125 99.3647 66.4813 99.5855 66.0894 99.978C65.6975 100.37 65.477 100.902 65.4761 101.457V145.049C65.4766 145.604 65.697 146.136 66.089 146.528C66.481 146.921 67.0124 147.142 67.5668 147.142H132.073C132.627 147.142 133.159 146.921 133.551 146.528C133.943 146.136 134.163 145.604 134.164 145.049V101.457C134.163 100.902 133.942 100.37 133.55 99.978C133.158 99.5855 132.627 99.3647 132.073 99.3638Z" fill="#3F3D56"/>
<path d="M107.084 134.292H91.9939C91.7804 134.292 91.5758 134.378 91.425 134.529C91.2743 134.68 91.1897 134.885 91.1899 135.099V158.972H107.89V135.099C107.89 134.993 107.87 134.888 107.829 134.79C107.789 134.692 107.729 134.603 107.654 134.528C107.58 134.453 107.491 134.394 107.393 134.353C107.295 134.313 107.19 134.292 107.084 134.292ZM99.5899 147.856C99.118 147.854 98.666 147.665 98.3323 147.331C97.9986 146.997 97.8102 146.544 97.808 146.072V143.318C97.8085 142.845 97.9965 142.392 98.3306 142.058C98.6647 141.723 99.1177 141.536 99.5899 141.536C100.062 141.536 100.515 141.723 100.849 142.058C101.183 142.392 101.371 142.845 101.372 143.318V146.072C101.37 146.544 101.181 146.997 100.848 147.331C100.514 147.665 100.062 147.854 99.5899 147.856Z" fill="#2F2E41"/>
<path d="M91.1382 158.208V160.512C91.1384 160.631 91.1859 160.745 91.2701 160.83C91.3544 160.914 91.4686 160.962 91.5878 160.962H107.493C107.612 160.961 107.726 160.914 107.81 160.829C107.894 160.745 107.942 160.631 107.942 160.512V158.208H91.1382Z" fill="#3F3D56"/>
<path d="M130.701 144.593C131.263 144.593 131.719 144.137 131.719 143.574C131.719 143.01 131.263 142.554 130.701 142.554C130.139 142.554 129.683 143.01 129.683 143.574C129.683 144.137 130.139 144.593 130.701 144.593Z" fill="#2F2E41"/>
<path d="M75.7099 142.094C75.6631 142.094 75.6168 142.103 75.5735 142.121C75.5303 142.139 75.491 142.166 75.4579 142.199C75.4248 142.232 75.3986 142.271 75.3806 142.315C75.3627 142.358 75.3535 142.404 75.3535 142.451V144.287C75.3538 144.382 75.3914 144.473 75.4582 144.539C75.525 144.606 75.6155 144.643 75.7099 144.643C75.8043 144.643 75.8948 144.606 75.9616 144.539C76.0284 144.473 76.0661 144.382 76.0663 144.287V142.451C76.0663 142.404 76.0571 142.358 76.0392 142.315C76.0213 142.271 75.995 142.232 75.9619 142.199C75.9288 142.166 75.8895 142.139 75.8463 142.121C75.8031 142.103 75.7567 142.094 75.7099 142.094Z" fill="#2F2E41"/>
<path d="M77.645 142.094C77.5982 142.094 77.5518 142.103 77.5086 142.121C77.4653 142.139 77.426 142.166 77.393 142.199C77.3599 142.232 77.3336 142.271 77.3157 142.315C77.2978 142.358 77.2886 142.404 77.2886 142.451V144.287C77.2886 144.382 77.3261 144.473 77.393 144.54C77.4598 144.607 77.5504 144.644 77.645 144.644C77.7395 144.644 77.8301 144.607 77.897 144.54C77.9638 144.473 78.0014 144.382 78.0014 144.287V142.451C78.0014 142.404 77.9921 142.358 77.9742 142.315C77.9563 142.271 77.9301 142.232 77.897 142.199C77.8639 142.166 77.8246 142.139 77.7813 142.121C77.7381 142.103 77.6918 142.094 77.645 142.094Z" fill="#2F2E41"/>
<path d="M79.5805 142.094C79.5337 142.094 79.4874 142.103 79.4441 142.121C79.4009 142.139 79.3616 142.166 79.3285 142.199C79.2954 142.232 79.2692 142.271 79.2512 142.315C79.2333 142.358 79.2241 142.404 79.2241 142.451V144.287C79.2244 144.382 79.262 144.473 79.3288 144.539C79.3956 144.606 79.4862 144.643 79.5805 144.643C79.6749 144.643 79.7654 144.606 79.8322 144.539C79.899 144.473 79.9367 144.382 79.9369 144.287V142.451C79.9369 142.404 79.9277 142.358 79.9098 142.315C79.8919 142.271 79.8656 142.232 79.8325 142.199C79.7994 142.166 79.7601 142.139 79.7169 142.121C79.6737 142.103 79.6273 142.094 79.5805 142.094Z" fill="#2F2E41"/>
<path d="M81.5156 142.094C81.4688 142.094 81.4224 142.103 81.3792 142.121C81.3359 142.139 81.2967 142.166 81.2636 142.199C81.2305 142.232 81.2042 142.271 81.1863 142.315C81.1684 142.358 81.1592 142.404 81.1592 142.451V144.287C81.1594 144.382 81.1971 144.473 81.2639 144.539C81.3307 144.606 81.4212 144.643 81.5156 144.643C81.6099 144.643 81.7004 144.606 81.7672 144.539C81.8341 144.473 81.8717 144.382 81.8719 144.287V142.451C81.872 142.404 81.8627 142.358 81.8448 142.315C81.8269 142.271 81.8007 142.232 81.7676 142.199C81.7345 142.166 81.6952 142.139 81.6519 142.121C81.6087 142.103 81.5624 142.094 81.5156 142.094Z" fill="#2F2E41"/>
<path d="M83.0596 159.213C86.0349 159.213 88.4469 156.797 88.4469 153.818C88.4469 150.838 86.0349 148.423 83.0596 148.423C80.0843 148.423 77.6724 150.838 77.6724 153.818C77.6724 156.797 80.0843 159.213 83.0596 159.213Z" fill="#FFB8B8"/>
<path d="M120.695 160.25C123.671 160.25 126.083 157.834 126.083 154.855C126.083 151.875 123.671 149.46 120.695 149.46C117.72 149.46 115.308 151.875 115.308 154.855C115.308 157.834 117.72 160.25 120.695 160.25Z" fill="#FFB8B8"/>
<path d="M176.302 89.7364C175.769 88.8546 175.138 87.9132 174.15 87.6253C173.006 87.2919 171.831 87.9542 170.834 88.6078C167.853 90.5625 164.982 92.6809 162.234 94.9531L162.237 94.9874C164.376 94.8396 166.152 100.536 168.291 100.388C169.836 100.281 171.799 94.316 173.165 93.5838C173.683 93.306 174.188 92.9349 174.775 92.909C175.505 92.8769 176.141 93.3872 176.641 93.9204C179.599 97.0742 180.455 101.897 183.773 104.668C181.68 99.5009 179.182 94.508 176.302 89.7364Z" fill="#3F3D56"/>
<path d="M181.994 97.397C183.554 100.219 185.209 102.985 186.959 105.695V105.697C186.948 105.792 186.934 105.888 186.919 105.983C186.708 105.66 186.499 105.334 186.291 105.008C184.721 102.541 183.228 100.027 181.814 97.4655C181.142 96.2475 180.488 95.0198 179.849 93.7824C179.356 92.8237 178.874 91.8596 178.401 90.8899C178.266 90.6118 178.136 90.3338 178.005 90.0537C177.699 89.398 177.396 88.7381 177.073 88.0907C176.704 87.352 176.255 86.5801 175.577 86.0842C175.269 85.849 174.9 85.7065 174.514 85.6734C173.97 85.6767 173.438 85.8295 172.974 86.1153C169.469 87.9604 166.198 90.2195 163.23 92.8445C160.258 95.4591 157.602 98.4124 155.315 101.644C155.244 101.744 155.078 101.649 155.149 101.547C155.429 101.153 155.71 100.765 156.001 100.379C159.596 95.591 164.004 91.4738 169.023 88.2152C169.866 87.6674 170.726 87.1452 171.603 86.6486C172.044 86.3975 172.488 86.1506 172.939 85.9182C173.372 85.6644 173.857 85.5139 174.357 85.4783C176.076 85.4513 176.967 87.4018 177.579 88.7132C177.769 89.1261 177.963 89.5384 178.161 89.9499C178.905 91.5061 179.677 93.0499 180.479 94.5812C180.972 95.5254 181.477 96.464 181.994 97.397Z" fill="#3F3D56"/>
<path d="M163.061 91.8812C162.961 91.7697 162.862 91.6582 162.761 91.5467C161.968 90.6685 161.117 89.8006 160.029 89.2972C159.509 89.0496 158.943 88.918 158.368 88.9117C157.774 88.928 157.189 89.0557 156.643 89.2883C156.384 89.3921 156.13 89.51 155.88 89.6356C155.594 89.7796 155.313 89.9332 155.034 90.088C154.51 90.3786 153.992 90.6819 153.481 90.998C152.465 91.627 151.481 92.3039 150.528 93.0289C150.034 93.4049 149.551 93.7932 149.077 94.1938C148.637 94.5659 148.205 94.9481 147.783 95.3402C147.693 95.4237 147.558 95.2886 147.648 95.2051C147.759 95.1012 147.872 94.998 147.985 94.896C148.303 94.608 148.626 94.3255 148.954 94.0485C149.553 93.5425 150.167 93.0561 150.797 92.5892C151.777 91.8627 152.79 91.1856 153.836 90.5577C154.359 90.2441 154.89 89.9438 155.427 89.6566C155.59 89.5699 155.754 89.4852 155.92 89.4049C156.297 89.2145 156.688 89.0549 157.091 88.9276C157.661 88.7429 158.264 88.6836 158.859 88.7536C159.434 88.8373 159.987 89.0291 160.491 89.3189C161.56 89.9172 162.389 90.8425 163.196 91.7455C163.277 91.8373 163.143 91.973 163.061 91.8812Z" fill="#3F3D56"/>
<path d="M155.238 96.1062C154.966 96.1197 154.698 96.0427 154.474 95.8872C153.883 95.4383 153.898 94.3603 154.522 92.5913C154.691 92.112 154.957 91.6727 155.303 91.3004C155.649 90.9281 156.068 90.6307 156.533 90.4267C156.969 90.2316 157.44 90.1294 157.917 90.1265C158.395 90.1237 158.867 90.2203 159.305 90.4102C159.382 90.4434 159.457 90.4791 159.532 90.5174C160.039 90.8017 160.514 91.1394 160.95 91.5248C161.32 91.8464 161.715 92.1385 162.13 92.3982L162.269 92.4797L162.138 92.5725C158.781 94.9388 156.506 96.1062 155.238 96.1062Z" fill="#3F3D56"/>
<path d="M168.144 82.0234C167.041 82.0232 165.971 81.6395 165.119 80.9377C164.266 80.236 163.683 79.2596 163.469 78.1753C162.546 78.3624 161.699 78.8191 161.035 79.4877C160.371 80.1563 159.92 81.0069 159.738 81.9321C159.557 82.8573 159.653 83.8156 160.015 84.6862C160.376 85.5568 160.987 86.3005 161.771 86.8236C162.554 87.3468 163.475 87.6258 164.416 87.6255C165.358 87.6252 166.278 87.3456 167.061 86.8219C167.844 86.2983 168.455 85.5541 168.816 84.6833C169.177 83.8125 169.273 82.8541 169.09 81.929C168.779 81.9918 168.462 82.0235 168.144 82.0234Z" fill="#3F3D56"/>
<path opacity="0.74" d="M40.5751 89.7008C44.5028 89.7008 47.6868 86.5122 47.6868 82.5789C47.6868 78.6456 44.5028 75.457 40.5751 75.457C36.6474 75.457 33.4634 78.6456 33.4634 82.5789C33.4634 86.5122 36.6474 89.7008 40.5751 89.7008Z" fill="#3F3D56"/>
<path opacity="0.74" d="M47.6869 89.7008C51.6146 89.7008 54.7986 86.5122 54.7986 82.5789C54.7986 78.6456 51.6146 75.457 47.6869 75.457C43.7592 75.457 40.5752 78.6456 40.5752 82.5789C40.5752 86.5122 43.7592 89.7008 47.6869 89.7008Z" fill="#3B63F2"/>
<path opacity="0.74" d="M44.1913 84.025C48.119 84.025 51.303 80.8364 51.303 76.9031C51.303 72.9698 48.119 69.7812 44.1913 69.7812C40.2636 69.7812 37.0796 72.9698 37.0796 76.9031C37.0796 80.8364 40.2636 84.025 44.1913 84.025Z" fill="#FF6584"/>
<path d="M62.7872 74.8618L44.52 80.6089L44.6442 81.0048L62.9114 75.2578L62.7872 74.8618Z" fill="#3F3D56"/>
<path d="M62.9035 75.8236C63.3612 75.8236 63.7323 75.452 63.7323 74.9936C63.7323 74.5352 63.3612 74.1636 62.9035 74.1636C62.4458 74.1636 62.0747 74.5352 62.0747 74.9936C62.0747 75.452 62.4458 75.8236 62.9035 75.8236Z" fill="#3F3D56"/>
<path d="M181.493 112.341C182.707 113.198 183.873 114.071 185.208 114.731C185.183 114.833 185.156 114.937 185.131 115.038C184.967 114.961 184.808 114.881 184.648 114.798C183.295 114.088 182.131 113.123 180.861 112.285C180.231 111.849 179.543 111.504 178.818 111.26C178.061 111.032 177.271 110.939 176.483 110.986C173.194 111.148 170.376 113.113 167.32 114.102C165.824 114.588 164.233 114.847 162.673 114.542C161.112 114.237 159.726 113.407 158.348 112.656C156.989 111.913 155.507 111.166 153.92 111.166C152.627 111.168 151.268 111.687 150.576 112.833C150.555 112.867 150.521 112.891 150.481 112.901C150.442 112.91 150.401 112.904 150.366 112.884C150.331 112.863 150.306 112.83 150.295 112.791C150.284 112.752 150.289 112.71 150.309 112.675C150.464 112.414 150.654 112.176 150.874 111.967C151.778 111.11 153.106 110.772 154.326 110.872C155.905 111 157.345 111.747 158.711 112.498C160.159 113.295 161.643 114.152 163.317 114.327C164.97 114.501 166.607 114.067 168.141 113.484C171.11 112.353 174.04 110.469 177.342 110.679C178.901 110.778 180.235 111.455 181.493 112.341Z" fill="#3F3D56"/>
<path d="M51.5273 52.3304V52.7516C51.3881 52.724 51.2465 52.7101 51.1046 52.7101H48.9372V57.3705C48.9368 58.0605 48.663 58.7221 48.1758 59.21C47.6886 59.6979 47.0279 59.9721 46.3389 59.9725H43.1356V60.6905C43.1356 60.9783 43.1926 61.2632 43.3034 61.5288H42.86C42.7673 61.259 42.7204 60.9757 42.7212 60.6905V59.9725H40.96V59.5575H42.7212V54.8971C42.7216 54.2071 42.9955 53.5455 43.4826 53.0576C43.9698 52.5698 44.6305 52.2955 45.3195 52.2951H48.5228V51.5688H48.9372V52.2951H51.1046C51.2462 52.2952 51.3876 52.307 51.5273 52.3304Z" fill="#3B63F2"/>
<path d="M46.339 48.9751H40.5539C39.8649 48.9755 39.2042 49.2498 38.717 49.7377C38.2298 50.2255 37.956 50.8871 37.9556 51.5771V57.3705C37.956 58.0605 38.2298 58.7221 38.717 59.2099C39.2042 59.6978 39.8649 59.9721 40.5539 59.9725H46.339C47.0279 59.9721 47.6886 59.6978 48.1758 59.2099C48.663 58.7221 48.9369 58.0605 48.9373 57.3705V51.5688C48.9348 50.8803 48.66 50.2207 48.173 49.7346C47.686 49.2485 47.0266 48.9754 46.339 48.9751ZM48.5229 57.3705C48.5221 57.9503 48.2917 58.5061 47.8823 58.9161C47.473 59.3261 46.9179 59.5567 46.339 59.5575H40.5539C39.9749 59.5567 39.4199 59.3261 39.0105 58.9161C38.6011 58.5061 38.3708 57.9503 38.37 57.3705V51.5771C38.3708 50.9973 38.6011 50.4415 39.0105 50.0315C39.4199 49.6215 39.9749 49.3909 40.5539 49.3901H46.339C46.9165 49.3908 47.4704 49.6203 47.8795 50.0285C48.2887 50.4367 48.52 50.9904 48.5229 51.5688V57.3705Z" fill="#3F3D56"/>
<path d="M42.7212 59.5578V59.9728H43.1356V59.5578H42.7212ZM42.7212 59.5578V59.9728H43.1356V59.5578H42.7212ZM51.5273 52.3307C51.3876 52.3074 51.2462 52.2956 51.1046 52.2954H45.3195C44.6305 52.2958 43.9699 52.5701 43.4827 53.058C42.9955 53.5458 42.7216 54.2074 42.7212 54.8974V60.6908C42.7204 60.976 42.7674 61.2593 42.86 61.5291C43.0349 62.0433 43.3661 62.4898 43.8072 62.8061C44.2482 63.1224 44.777 63.2926 45.3195 63.2928H51.1046C51.7936 63.2924 52.4543 63.0181 52.9414 62.5302C53.4286 62.0423 53.7025 61.3807 53.7029 60.6908V54.8974C53.7027 54.2808 53.4839 53.6843 53.0855 53.2142C52.687 52.7441 52.1348 52.431 51.5273 52.3307ZM53.2885 60.6908C53.2877 61.2706 53.0574 61.8264 52.648 62.2364C52.2386 62.6463 51.6836 62.877 51.1046 62.8778H45.3195C44.7406 62.877 44.1855 62.6463 43.7762 62.2363C43.3668 61.8264 43.1364 61.2706 43.1356 60.6908V54.8974C43.1364 54.3176 43.3667 53.7618 43.7761 53.3518C44.1855 52.9419 44.7405 52.7112 45.3195 52.7104H51.1046C51.6837 52.7106 52.2391 52.9411 52.6486 53.3512C53.0581 53.7613 53.2883 54.3175 53.2885 54.8974V60.6908ZM42.7212 59.5578V59.9728H43.1356V59.5578H42.7212Z" fill="#3F3D56"/>
<path d="M38.6288 113.65H14.0547C13.8836 113.65 13.7196 113.718 13.5984 113.839C13.4772 113.96 13.4089 114.124 13.4082 114.296V115.754C14.219 118.864 15.2005 121.927 16.3484 124.928H38.6288C38.7135 124.928 38.7973 124.911 38.8755 124.879C38.9537 124.847 39.0248 124.799 39.0847 124.739C39.1445 124.679 39.192 124.608 39.2243 124.53C39.2567 124.451 39.2733 124.367 39.2732 124.283V114.296C39.273 114.125 39.2051 113.961 39.0843 113.84C38.9635 113.719 38.7997 113.651 38.6288 113.65Z" fill="#3B63F2"/>
<path d="M36.2876 128.167H17.6602C17.8819 128.687 18.1077 129.204 18.3419 129.719H36.2876C37.2988 129.733 37.2884 128.152 36.2876 128.167Z" fill="#E4E4E4"/>
<path d="M36.2876 131.723H19.2764C19.525 132.244 19.7805 132.761 20.043 133.275H36.2876C37.2988 133.29 37.2884 131.711 36.2876 131.723Z" fill="#E4E4E4"/>
<path d="M36.2876 135.282H21.0894C21.367 135.803 21.6529 136.319 21.943 136.834H36.2876C37.2988 136.848 37.2884 135.267 36.2876 135.282Z" fill="#E4E4E4"/>
<path d="M163.686 39.6328H163.568C163.935 39.6331 164.298 39.719 164.626 39.8835H164.089C163.51 39.8842 162.955 40.1148 162.546 40.5248C162.136 40.9348 161.906 41.4907 161.905 42.0705V47.864C161.906 48.4438 162.136 48.9997 162.546 49.4097C162.955 49.8197 163.51 50.0503 164.089 50.0509H164.432C164.156 50.1591 163.863 50.2148 163.568 50.2152H163.686C164.32 50.2145 164.927 49.962 165.376 49.5131C165.824 49.0642 166.076 48.4556 166.077 47.8208V42.0272C166.076 41.3924 165.824 40.7838 165.376 40.3349C164.927 39.886 164.32 39.6335 163.686 39.6328Z" fill="#3F3D56"/>
<path opacity="0.21" d="M163.686 39.6328H163.568C163.935 39.6331 164.298 39.719 164.626 39.8835H164.089C163.51 39.8842 162.955 40.1148 162.546 40.5248C162.136 40.9348 161.906 41.4907 161.905 42.0705V47.864C161.906 48.4438 162.136 48.9997 162.546 49.4097C162.955 49.8197 163.51 50.0503 164.089 50.0509H164.432C164.156 50.1591 163.863 50.2148 163.568 50.2152H163.686C164.32 50.2145 164.927 49.962 165.376 49.5131C165.824 49.0642 166.076 48.4556 166.077 47.8208V42.0272C166.076 41.3924 165.824 40.7838 165.376 40.3349C164.927 39.886 164.32 39.6335 163.686 39.6328Z" fill="black"/>
<path d="M148.353 39.6328H148.235C148.602 39.6331 148.965 39.719 149.293 39.8835H148.756C148.177 39.8842 147.622 40.1148 147.213 40.5248C146.803 40.9348 146.573 41.4907 146.572 42.0705V47.864C146.573 48.4438 146.803 48.9997 147.213 49.4097C147.622 49.8197 148.177 50.0503 148.756 50.0509H149.099C148.823 50.1591 148.53 50.2148 148.235 50.2152H148.353C148.987 50.2145 149.594 49.962 150.043 49.5131C150.491 49.0642 150.743 48.4556 150.744 47.8208V42.0272C150.743 41.3924 150.491 40.7838 150.043 40.3349C149.594 39.886 148.987 39.6335 148.353 39.6328Z" fill="#3B63F2"/>
<path opacity="0.21" d="M148.353 39.6328H148.235C148.602 39.6331 148.965 39.719 149.293 39.8835H148.756C148.177 39.8842 147.622 40.1148 147.213 40.5248C146.803 40.9348 146.573 41.4907 146.572 42.0705V47.864C146.573 48.4438 146.803 48.9997 147.213 49.4097C147.622 49.8197 148.177 50.0503 148.756 50.0509H149.099C148.823 50.1591 148.53 50.2148 148.235 50.2152H148.353C148.987 50.2145 149.594 49.962 150.043 49.5131C150.491 49.0642 150.743 48.4556 150.744 47.8208V42.0272C150.743 41.3924 150.491 40.7838 150.043 40.3349C149.594 39.886 148.987 39.6335 148.353 39.6328Z" fill="black"/>
<path d="M148.78 50.0685C148.201 50.0679 147.646 49.8373 147.236 49.4273C146.827 49.0173 146.597 48.4614 146.596 47.8816V42.0881C146.597 41.5083 146.827 40.9524 147.236 40.5424C147.646 40.1324 148.201 39.9018 148.78 39.9011H149.317C148.988 39.7366 148.626 39.6507 148.258 39.6504H142.473C141.839 39.6511 141.231 39.9036 140.783 40.3525C140.335 40.8014 140.083 41.41 140.082 42.0448V47.8384C140.083 48.4732 140.335 49.0818 140.783 49.5307C141.231 49.9796 141.839 50.2321 142.473 50.2328H148.258C148.554 50.2324 148.847 50.1767 149.122 50.0685L148.78 50.0685Z" fill="#3B63F2"/>
<path d="M164.112 50.0685C163.533 50.0679 162.978 49.8373 162.569 49.4273C162.159 49.0173 161.929 48.4614 161.928 47.8816V42.0881C161.929 41.5083 162.159 40.9524 162.569 40.5424C162.978 40.1324 163.533 39.9018 164.112 39.9011H164.649C164.321 39.7366 163.958 39.6507 163.591 39.6504H157.806C157.172 39.6511 156.564 39.9036 156.116 40.3525C155.667 40.8014 155.415 41.41 155.415 42.0448V47.8384C155.415 48.4732 155.667 49.0818 156.116 49.5307C156.564 49.9796 157.172 50.2321 157.806 50.2328H163.591C163.886 50.2324 164.179 50.1767 164.455 50.0685L164.112 50.0685Z" fill="#3F3D56"/>
<path d="M170.944 41.0923C173.067 44.0174 175.009 47.0698 176.76 50.2326H173.138C172.504 50.2316 171.897 49.979 171.448 49.5302C171 49.0813 170.748 48.4728 170.747 47.8381V42.0447C170.747 41.7171 170.814 41.3929 170.944 41.0923Z" fill="#FF6584"/>
<path d="M163.681 53.2727L161.655 50.2329L160.174 48.0106C160.087 47.8808 159.966 47.7781 159.823 47.7146C159.681 47.6511 159.524 47.6292 159.37 47.6516C159.215 47.674 159.071 47.7396 158.952 47.841C158.834 47.9424 158.746 48.0753 158.7 48.2243L158.077 50.2329L156.821 54.2687C156.771 54.4295 156.772 54.6016 156.823 54.7621C156.873 54.9225 156.971 55.0637 157.104 55.1668C157.237 55.2698 157.398 55.3298 157.566 55.3388C157.734 55.3478 157.9 55.3053 158.043 55.217L158.489 54.941C158.579 54.8856 158.681 54.8541 158.786 54.8494C158.891 54.8448 158.996 54.8671 159.09 54.9142C159.184 54.9614 159.265 55.0319 159.325 55.119C159.384 55.2061 159.42 55.307 159.43 55.412L159.838 59.8732C159.857 60.0781 159.952 60.2686 160.103 60.4074C160.255 60.5463 160.453 60.6236 160.658 60.6244C160.683 60.6244 160.708 60.6223 160.735 60.6202L161.361 60.5642C161.469 60.5544 161.574 60.5233 161.67 60.4729C161.766 60.4224 161.851 60.3534 161.92 60.2699C161.989 60.1865 162.041 60.0902 162.073 59.9865C162.105 59.8828 162.117 59.7738 162.107 59.6657L161.686 55.0593C161.676 54.9511 161.695 54.8421 161.74 54.7434C161.786 54.6448 161.856 54.5598 161.945 54.4971C162.034 54.4344 162.137 54.3962 162.245 54.3864C162.353 54.3765 162.462 54.3953 162.561 54.4409L162.652 54.4824C162.815 54.5577 162.998 54.5775 163.174 54.5388C163.349 54.5001 163.507 54.405 163.624 54.2681C163.741 54.1311 163.809 53.9597 163.82 53.7801C163.83 53.6004 163.782 53.4222 163.681 53.2727Z" fill="#CCCCCC"/>
</g>
<defs>
<clipPath id="clip0_152_408">
<rect width="187" height="182" fill="white"/>
</clipPath>
</defs>
</svg>
