<svg width="246" height="160" viewBox="0 0 246 160" fill="none" xmlns="http://www.w3.org/2000/svg">
<g clip-path="url(#clip0_152_488)">
<path d="M48.3017 101.953L46.9419 101.109C46.8122 101.029 46.6846 100.942 46.5549 100.86C49.4499 100.364 52.0897 98.8991 54.0405 96.7061C55.9912 94.5132 57.1368 91.7228 57.289 88.7935C57.4412 85.8642 56.5909 82.9704 54.8778 80.5877C53.1647 78.205 50.6909 76.4751 47.8628 75.6824L47.9298 81.0081L45.0006 75.2161H44.9595C43.2621 75.1369 41.5656 75.3923 39.967 75.9679C38.3685 76.5434 36.8991 77.4277 35.6428 78.5704C34.3865 79.713 33.368 81.0916 32.6453 82.6274C31.9226 84.1632 31.5099 85.8261 31.4308 87.5212C31.4179 87.7673 31.4308 88.0112 31.4308 88.2552C30.4126 87.0937 29.4852 85.8481 28.8734 84.4838C27.6347 81.7227 27.6109 78.5925 27.7082 74.7909C27.9027 67.2546 28.2292 59.6622 28.6529 52.0935C31.7118 51.7534 34.5491 50.3356 36.6554 48.0946C38.7616 45.8535 39.999 42.9361 40.1451 39.8662C40.1624 39.4711 40.1559 39.0804 40.1451 38.6939C40.1451 38.5968 40.1451 38.4997 40.13 38.4047C40.104 38.029 40.0695 37.6577 40.0111 37.2907C40.0111 37.2303 39.9895 37.172 39.9787 37.1137C39.9268 36.8028 39.8619 36.4963 39.7884 36.1919C39.7603 36.0797 39.7322 35.976 39.702 35.853C39.6112 35.5249 39.5117 35.2054 39.395 34.8794C39.3561 34.7736 39.3107 34.6635 39.2696 34.5642C39.1788 34.3289 39.0793 34.0957 38.9734 33.8669C38.9172 33.746 38.8632 33.6251 38.8048 33.5064C38.7875 33.4762 38.7767 33.4438 38.7594 33.4136C37.3933 30.7181 35.1239 28.5865 32.3462 27.3897C29.5685 26.1929 26.4584 26.0068 23.5575 26.8638L23.644 33.7935L20.7471 28.0684C18.3651 29.4312 16.4814 31.5185 15.3711 34.0257C14.2608 36.5329 13.9819 39.3288 14.5751 42.0055H14.5621C14.5816 42.0983 14.6097 42.1847 14.6313 42.2775C14.6724 42.4481 14.7156 42.6164 14.7632 42.7848C14.8237 43.0007 14.8929 43.2166 14.9642 43.4325C15.0183 43.59 15.0702 43.7498 15.1307 43.9074C15.2193 44.1362 15.3188 44.3586 15.4182 44.5809C15.4766 44.7104 15.5285 44.8443 15.5912 44.9717C15.7555 45.307 15.9342 45.633 16.1273 45.9496C16.1943 46.0618 16.27 46.1655 16.3435 46.2756C16.4818 46.4914 16.6202 46.7073 16.7758 46.9081C16.8688 47.0355 16.9683 47.1563 17.0655 47.2816C17.2082 47.4607 17.3531 47.6378 17.4979 47.8083C17.6038 47.9313 17.7141 48.0479 17.8243 48.1667C17.9843 48.3329 18.1464 48.4948 18.3151 48.6545C18.4253 48.7603 18.5312 48.8704 18.6545 48.9697C18.8447 49.1381 19.0436 49.3 19.2446 49.4576C19.3463 49.5353 19.4457 49.6195 19.5495 49.6972C19.8564 49.9131 20.1721 50.129 20.4985 50.3449C20.559 50.3837 20.6261 50.4139 20.6866 50.4506C20.9611 50.6104 21.2378 50.7615 21.5232 50.9018C21.6464 50.9623 21.7718 51.0141 21.8972 51.0702C22.1307 51.176 22.3663 51.2861 22.6084 51.3681C22.749 51.4221 22.8916 51.4717 23.0408 51.5214C23.2786 51.6013 23.5207 51.6747 23.765 51.7373C23.9077 51.7761 24.0525 51.8171 24.1974 51.8517C24.4611 51.9143 24.7313 51.9661 25.0037 52.0136L25.0556 52.0244C24.8783 55.2165 24.7198 58.4108 24.58 61.6072C23.8095 60.0246 22.7231 58.616 21.3876 57.4679C20.0521 56.3198 18.4957 55.4564 16.8139 54.9307C15.1321 54.4051 13.3605 54.2283 11.6078 54.4112C9.85513 54.5941 8.15839 55.1329 6.62178 55.9944L8.90899 62.2548L4.19838 57.7214C1.67582 60.0247 0.172044 63.2338 0.017421 66.6436C-0.0428441 67.8398 0.0677992 69.0384 0.346018 70.2035C0.937507 72.724 2.27375 75.009 4.18145 76.762C6.08916 78.515 8.48031 79.6552 11.0448 80.0347C13.6093 80.4142 16.2288 80.0155 18.5637 78.8903C20.8985 77.7651 22.8409 75.9654 24.139 73.7244C24.139 74.0482 24.1174 74.3721 24.1087 74.698C24.0223 78.0528 23.9142 82.2279 25.5896 85.9561C26.7245 88.4818 28.5491 90.5327 30.3456 92.3719C31.5195 93.5701 32.7366 94.7272 33.9839 95.8476C35.2108 97.495 36.813 98.8271 38.6578 99.7334C40.7072 101.311 42.8301 102.795 45.0244 104.163L46.3949 105.014C47.6272 105.776 48.8897 106.559 50.1262 107.373C49.9101 107.352 49.6939 107.328 49.4777 107.317C46.7342 107.19 44.0211 107.936 41.7306 109.45C39.4401 110.963 37.691 113.165 36.7359 115.736L44.8211 122.306L35.9274 120.246C35.9302 122.431 36.4875 124.58 37.5472 126.492C38.607 128.403 40.1347 130.016 41.9876 131.178C43.8404 132.34 45.9581 133.015 48.1427 133.138C50.3274 133.262 52.5077 132.83 54.4802 131.884C54.2813 132.134 54.0809 132.383 53.8792 132.631C53.4814 133.125 53.0887 133.615 52.701 134.103C47.4391 140.757 45.9756 147.075 48.5805 151.892L51.7498 150.182C49.214 145.495 53.0274 139.494 55.5265 136.333C55.907 135.851 56.2932 135.369 56.6852 134.887C60.0512 130.705 63.8603 125.982 63.7673 120.179C63.6268 111.438 55.1201 106.179 48.3017 101.953Z" fill="#F2F2F2"/>
<path d="M173.473 75.6154L174.833 74.7713C174.963 74.6914 175.09 74.6051 175.22 74.523C172.325 74.0253 169.687 72.5592 167.737 70.3654C165.787 68.1717 164.643 65.381 164.492 62.4519C164.341 59.5228 165.193 56.6295 166.907 54.2476C168.62 51.8657 171.095 50.1369 173.923 49.3452L173.856 54.6709L176.785 48.8789H176.822C178.519 48.7997 180.216 49.0551 181.814 49.6306C183.413 50.2061 184.882 51.0905 186.139 52.2331C187.395 53.3758 188.413 54.7544 189.136 56.2902C189.859 57.826 190.271 59.4889 190.351 61.1839C190.363 61.43 190.351 61.674 190.351 61.9179C191.369 60.7565 192.296 59.5109 192.908 58.1465C194.147 55.3854 194.17 52.2552 194.073 48.4536C193.879 40.9173 193.552 33.3249 193.128 25.7562C190.07 25.4161 187.232 23.9983 185.126 21.7573C183.02 19.5163 181.782 16.5989 181.636 13.5289C181.619 13.1338 181.625 12.7431 181.636 12.3567C181.636 12.2595 181.636 12.1624 181.651 12.0674C181.677 11.6918 181.712 11.3205 181.77 10.9535C181.77 10.893 181.792 10.8347 181.803 10.7765C181.855 10.4656 181.919 10.159 181.993 9.85466C182.021 9.7424 182.049 9.63878 182.079 9.51573C182.17 9.1876 182.27 8.8681 182.386 8.54212C182.425 8.43634 182.471 8.32624 182.512 8.22694C182.603 7.99163 182.702 7.75849 182.808 7.52966C182.864 7.40876 182.918 7.28787 182.979 7.16914C182.994 7.13892 183.005 7.10653 183.022 7.07631C184.387 4.38234 186.655 2.25153 189.431 1.05447C192.207 -0.14258 195.315 -0.330139 198.215 0.52442L198.129 7.4541L201.026 1.72902C203.408 3.09161 205.293 5.1791 206.404 7.68678C207.514 10.1945 207.793 12.991 207.2 15.6682H207.213C207.193 15.7611 207.165 15.8474 207.144 15.9403C207.102 16.1108 207.059 16.2792 207.012 16.4476C206.951 16.6634 206.882 16.8793 206.811 17.0952C206.757 17.2528 206.705 17.4125 206.644 17.5701C206.556 17.799 206.456 18.0213 206.357 18.2437C206.298 18.3732 206.246 18.507 206.184 18.6344C206.019 18.9697 205.841 19.2957 205.648 19.6123C205.581 19.7246 205.505 19.8282 205.431 19.9383C205.293 20.1542 205.155 20.3701 204.999 20.5708C204.906 20.6982 204.807 20.8191 204.709 20.9443C204.567 21.1235 204.422 21.3005 204.277 21.471C204.171 21.5941 204.061 21.7107 203.951 21.8294C203.793 21.9956 203.628 22.1575 203.46 22.3173C203.35 22.4231 203.244 22.5332 203.12 22.6325C202.93 22.8008 202.731 22.9628 202.53 23.1204C202.429 23.1981 202.329 23.2823 202.225 23.36C201.918 23.5759 201.603 23.7917 201.276 23.9968C201.216 24.0357 201.149 24.0659 201.088 24.1026C200.814 24.2623 200.537 24.4135 200.252 24.5538C200.128 24.6142 200.003 24.666 199.878 24.7222C199.644 24.8279 199.409 24.938 199.166 25.0201C199.026 25.074 198.883 25.1237 198.734 25.1733C198.496 25.2532 198.254 25.3266 198.01 25.3892C197.867 25.4281 197.722 25.4691 197.577 25.5036C197.314 25.5662 197.043 25.6181 196.771 25.6656H196.719C196.896 28.8591 197.055 32.0534 197.195 35.2484C197.965 33.6658 199.052 32.2572 200.387 31.109C201.723 29.9609 203.279 29.0975 204.961 28.5719C206.643 28.0463 208.414 27.8695 210.167 28.0524C211.92 28.2353 213.616 28.774 215.153 29.6355L212.866 35.896L217.572 31.3842C220.095 33.6875 221.598 36.8966 221.753 40.3064C221.813 41.5026 221.703 42.7012 221.425 43.8662C220.833 46.3868 219.497 48.6717 217.589 50.4248C215.681 52.1778 213.29 53.318 210.726 53.6975C208.161 54.077 205.542 53.6783 203.207 52.5531C200.872 51.4279 198.93 49.6281 197.632 47.3872C197.632 47.711 197.655 48.0348 197.662 48.3608C197.748 51.7155 197.856 55.8906 196.181 59.6188C195.046 62.1446 193.221 64.1954 191.425 66.0347C190.251 67.2328 189.034 68.3899 187.787 69.5103C186.56 71.1578 184.958 72.4898 183.113 73.3961C181.063 74.9742 178.94 76.4573 176.746 77.826L175.376 78.6765C174.143 79.4386 172.881 80.2222 171.644 81.036C171.86 81.0145 172.077 80.9907 172.293 80.9799C175.036 80.8523 177.749 81.5992 180.04 83.1126C182.33 84.6261 184.08 86.8277 185.035 89.3992L176.949 95.9683L185.843 93.9088C185.84 96.0939 185.283 98.2426 184.223 100.154C183.164 102.066 181.636 103.678 179.783 104.841C177.93 106.003 175.812 106.677 173.628 106.801C171.443 106.924 169.263 106.493 167.29 105.547C167.489 105.797 167.69 106.046 167.891 106.294C168.289 106.787 168.682 107.278 169.07 107.766C174.331 114.419 175.795 120.738 173.19 125.554L170.021 123.845C172.557 119.158 168.743 113.157 166.244 109.996C165.864 109.514 165.477 109.032 165.085 108.55C161.724 104.379 157.915 99.6512 158.008 93.8527C158.148 85.101 166.646 79.8423 173.473 75.6154Z" fill="#F2F2F2"/>
<path d="M138.951 160C198.072 160 246 156.81 246 152.876C246 148.941 198.072 145.752 138.951 145.752C79.8293 145.752 31.9019 148.941 31.9019 152.876C31.9019 156.81 79.8293 160 138.951 160Z" fill="#F2F2F2"/>
<path d="M142.546 153.092L104.024 152.599L104.137 151.613L106 135.338H139.831L142.319 151.613L142.509 152.846L142.546 153.092Z" fill="#2F2E41"/>
<path opacity="0.1" d="M142.509 152.846H123.284L104.024 152.6L104.137 151.613H142.319L142.509 152.846Z" fill="black"/>
<path d="M148.72 151.859H97.604V153.092H148.72V151.859Z" fill="#3F3D56"/>
<path d="M197.491 37.5865C197.493 37.165 197.412 36.7472 197.252 36.3569C197.092 35.9667 196.857 35.6117 196.56 35.3122C196.263 35.0127 195.91 34.7746 195.521 34.6115C195.131 34.4483 194.714 34.3633 194.292 34.3613H51.5423C51.1202 34.3633 50.7025 34.4483 50.3133 34.6115C49.924 34.7746 49.5707 35.0127 49.2736 35.3122C48.9765 35.6117 48.7414 35.9667 48.5817 36.3569C48.422 36.7472 48.3408 37.165 48.3428 37.5865V123.994H197.491V37.5865Z" fill="#3F3D56"/>
<path d="M48.3428 123.132V133.253C48.3428 134.1 48.6799 134.913 49.2799 135.512C49.8799 136.111 50.6937 136.448 51.5423 136.448H194.292C195.14 136.448 195.954 136.111 196.554 135.512C197.154 134.913 197.491 134.1 197.491 133.253V123.132H48.3428Z" fill="#3F3D56"/>
<path d="M192.056 39.7861H54.5146V117.461H192.056V39.7861Z" fill="#2F2E41"/>
<path d="M123.649 132.607C124.155 132.608 124.653 132.493 125.107 132.273C125.562 132.053 125.96 131.732 126.272 131.336C126.367 131.214 126.454 131.087 126.531 130.953L124.702 130.653L126.68 130.668C126.87 130.256 126.973 129.81 126.984 129.356C126.995 128.903 126.914 128.452 126.745 128.03L124.09 129.406L126.538 127.609C126.308 127.215 125.999 126.872 125.631 126.602C125.263 126.331 124.843 126.139 124.397 126.038C123.952 125.936 123.49 125.928 123.041 126.012C122.592 126.096 122.165 126.272 121.786 126.528C121.408 126.784 121.086 127.115 120.841 127.5C120.597 127.885 120.434 128.317 120.363 128.768C120.292 129.219 120.315 129.679 120.43 130.121C120.545 130.563 120.75 130.976 121.032 131.336C121.343 131.732 121.74 132.052 122.194 132.272C122.647 132.492 123.145 132.607 123.649 132.607Z" fill="#3B63F2"/>
<path opacity="0.1" d="M126.99 136.448L142.358 151.859L140 136.448H126.99Z" fill="black"/>
<path d="M168.265 146.965L172.405 144.547C171.844 143.594 171.129 142.74 170.288 142.019L162.482 144.444L168.598 140.852C167.083 140.023 165.379 139.603 163.653 139.632C161.926 139.661 160.237 140.138 158.751 141.017C157.266 141.896 156.035 143.147 155.18 144.645C154.325 146.143 153.876 147.838 153.876 149.562C153.876 155.048 158.329 155.238 163.82 155.238C169.311 155.238 173.765 155.048 173.765 149.562C173.766 148.175 173.476 146.802 172.913 145.534L168.265 146.965Z" fill="#57B894"/>
<path opacity="0.1" d="M169.32 152.297C168.879 151.857 168.386 151.471 167.852 151.147C167.102 150.648 166.324 150.141 165.438 149.97C164.662 149.821 163.857 149.947 163.06 149.903C161.683 149.819 160.388 149.226 159.426 148.239C158.859 147.656 158.416 146.944 157.735 146.493C157.002 146.013 156.073 145.91 155.206 146.028C154.953 146.066 154.703 146.118 154.456 146.184C154.065 147.264 153.866 148.403 153.868 149.552C153.868 155.037 158.321 155.227 163.812 155.227C166.478 155.227 168.899 155.182 170.684 154.508L170.386 153.951C170.102 153.357 169.744 152.802 169.32 152.297Z" fill="black"/>
<path opacity="0.3" d="M65.1962 69.7524H60.624V71.1384H65.1962V69.7524Z" fill="#3B63F2"/>
<path opacity="0.3" d="M187.199 69.7935H182.626V71.1794H187.199V69.7935Z" fill="#3B63F2"/>
<path opacity="0.3" d="M65.2373 79.4946H60.665V80.8806H65.2373V79.4946Z" fill="#3B63F2"/>
<path opacity="0.3" d="M65.2783 89.2373H60.7061V90.6232H65.2783V89.2373Z" fill="#3B63F2"/>
<path opacity="0.3" d="M65.3193 98.978H60.7471V100.364H65.3193V98.978Z" fill="#3B63F2"/>
<g opacity="0.2">
<path opacity="0.2" d="M66.4934 70.4194H65.1963V70.4734H66.4934V70.4194Z" fill="#F2F2F2"/>
<path opacity="0.2" d="M178.698 70.4734H176.15V70.4194H178.698V70.4734ZM173.599 70.4734H171.05V70.4194H173.599V70.4734ZM168.499 70.4734H165.948V70.4194H168.499V70.4734ZM163.399 70.4734H160.848V70.4194H163.399V70.4734ZM158.299 70.4734H155.749V70.4194H158.299V70.4734ZM153.198 70.4734H150.649V70.4194H153.198V70.4734ZM148.098 70.4734H145.547V70.4194H148.098V70.4734ZM142.998 70.4734H140.447V70.4194H142.998V70.4734ZM137.898 70.4734H135.347V70.4194H137.898V70.4734ZM132.796 70.4734H130.248V70.4194H132.796V70.4734ZM127.697 70.4734H125.146V70.4194H127.697V70.4734ZM122.597 70.4734H120.046V70.4194H122.597V70.4734ZM117.497 70.4734H114.946V70.4194H117.497V70.4734ZM112.395 70.4734H109.847V70.4194H112.395V70.4734ZM107.296 70.4734H104.747V70.4194H107.296V70.4734ZM102.196 70.4734H99.6536V70.4194H102.205L102.196 70.4734ZM97.0962 70.4734H94.5453V70.4194H97.0962V70.4734ZM91.9943 70.4734H89.4455V70.4194H91.9943V70.4734ZM86.8946 70.4734H84.3458V70.4194H86.8989L86.8946 70.4734ZM81.7948 70.4734H79.2439V70.4194H81.7948V70.4734ZM76.6951 70.4734H74.1442V70.4194H76.6951V70.4734ZM71.5932 70.4734H69.0444V70.4194H71.5932V70.4734Z" fill="#F2F2F2"/>
<path opacity="0.2" d="M182.547 70.4194H181.25V70.4734H182.547V70.4194Z" fill="#F2F2F2"/>
<path opacity="0.2" d="M66.4934 70.4194H65.1963V70.4734H66.4934V70.4194Z" fill="#F2F2F2"/>
<path opacity="0.2" d="M178.698 70.4734H176.15V70.4194H178.698V70.4734ZM173.599 70.4734H171.05V70.4194H173.599V70.4734ZM168.499 70.4734H165.948V70.4194H168.499V70.4734ZM163.399 70.4734H160.848V70.4194H163.399V70.4734ZM158.299 70.4734H155.749V70.4194H158.299V70.4734ZM153.198 70.4734H150.649V70.4194H153.198V70.4734ZM148.098 70.4734H145.547V70.4194H148.098V70.4734ZM142.998 70.4734H140.447V70.4194H142.998V70.4734ZM137.898 70.4734H135.347V70.4194H137.898V70.4734ZM132.796 70.4734H130.248V70.4194H132.796V70.4734ZM127.697 70.4734H125.146V70.4194H127.697V70.4734ZM122.597 70.4734H120.046V70.4194H122.597V70.4734ZM117.497 70.4734H114.946V70.4194H117.497V70.4734ZM112.395 70.4734H109.847V70.4194H112.395V70.4734ZM107.296 70.4734H104.747V70.4194H107.296V70.4734ZM102.196 70.4734H99.6536V70.4194H102.205L102.196 70.4734ZM97.0962 70.4734H94.5453V70.4194H97.0962V70.4734ZM91.9943 70.4734H89.4455V70.4194H91.9943V70.4734ZM86.8946 70.4734H84.3458V70.4194H86.8989L86.8946 70.4734ZM81.7948 70.4734H79.2439V70.4194H81.7948V70.4734ZM76.6951 70.4734H74.1442V70.4194H76.6951V70.4734ZM71.5932 70.4734H69.0444V70.4194H71.5932V70.4734Z" fill="#F2F2F2"/>
<path opacity="0.2" d="M182.547 70.4194H181.25V70.4734H182.547V70.4194Z" fill="#F2F2F2"/>
</g>
<path opacity="0.3" d="M65.1962 60.0376H60.624V61.4235H65.1962V60.0376Z" fill="#3B63F2"/>
<path opacity="0.3" d="M187.199 60.0786H182.626V61.4646H187.199V60.0786Z" fill="#3B63F2"/>
<g opacity="0.2">
<path opacity="0.2" d="M66.4934 60.7051H65.1963V60.7591H66.4934V60.7051Z" fill="#F2F2F2"/>
<path opacity="0.2" d="M178.698 60.759H176.15V60.7051H178.698V60.759ZM173.599 60.759H171.05V60.7051H173.599V60.759ZM168.499 60.759H165.948V60.7051H168.499V60.759ZM163.399 60.759H160.848V60.7051H163.399V60.759ZM158.299 60.759H155.749V60.7051H158.299V60.759ZM153.198 60.759H150.649V60.7051H153.198V60.759ZM148.098 60.759H145.547V60.7051H148.098V60.759ZM142.998 60.759H140.447V60.7051H142.998V60.759ZM137.898 60.759H135.347V60.7051H137.898V60.759ZM132.796 60.759H130.248V60.7051H132.796V60.759ZM127.697 60.759H125.146V60.7051H127.697V60.759ZM122.597 60.759H120.046V60.7051H122.597V60.759ZM117.497 60.759H114.946V60.7051H117.497V60.759ZM112.395 60.759H109.847V60.7051H112.395V60.759ZM107.296 60.759H104.747V60.7051H107.296V60.759ZM102.196 60.759H99.6536V60.7051H102.205L102.196 60.759ZM97.0962 60.759H94.5453V60.7051H97.0962V60.759ZM91.9943 60.759H89.4455V60.7051H91.9943V60.759ZM86.8946 60.759H84.3458V60.7051H86.8989L86.8946 60.759ZM81.7948 60.759H79.2439V60.7051H81.7948V60.759ZM76.6951 60.759H74.1442V60.7051H76.6951V60.759ZM71.5932 60.759H69.0444V60.7051H71.5932V60.759Z" fill="#F2F2F2"/>
<path opacity="0.2" d="M182.547 60.7051H181.25V60.759H182.547V60.7051Z" fill="#F2F2F2"/>
</g>
<path opacity="0.3" d="M187.199 79.4946H182.626V80.8806H187.199V79.4946Z" fill="#3B63F2"/>
<g opacity="0.2">
<path opacity="0.2" d="M66.4934 80.1206H65.1963V80.1746H66.4934V80.1206Z" fill="#F2F2F2"/>
<path opacity="0.2" d="M178.698 80.1726H176.15V80.1187H178.698V80.1726ZM173.599 80.1726H171.05V80.1187H173.599V80.1726ZM168.499 80.1726H165.948V80.1187H168.499V80.1726ZM163.399 80.1726H160.848V80.1187H163.399V80.1726ZM158.299 80.1726H155.749V80.1187H158.299V80.1726ZM153.198 80.1726H150.649V80.1187H153.198V80.1726ZM148.098 80.1726H145.547V80.1187H148.098V80.1726ZM142.998 80.1726H140.447V80.1187H142.998V80.1726ZM137.898 80.1726H135.347V80.1187H137.898V80.1726ZM132.796 80.1726H130.248V80.1187H132.796V80.1726ZM127.697 80.1726H125.146V80.1187H127.697V80.1726ZM122.597 80.1726H120.046V80.1187H122.597V80.1726ZM117.497 80.1726H114.946V80.1187H117.497V80.1726ZM112.395 80.1726H109.847V80.1187H112.395V80.1726ZM107.296 80.1726H104.747V80.1187H107.296V80.1726ZM102.196 80.1726H99.6536V80.1187H102.205L102.196 80.1726ZM97.0962 80.1726H94.5453V80.1187H97.0962V80.1726ZM91.9943 80.1726H89.4455V80.1187H91.9943V80.1726ZM86.8946 80.1726H84.3458V80.1187H86.8989L86.8946 80.1726ZM81.7948 80.1726H79.2439V80.1187H81.7948V80.1726ZM76.6951 80.1726H74.1442V80.1187H76.6951V80.1726ZM71.5932 80.1726H69.0444V80.1187H71.5932V80.1726Z" fill="#F2F2F2"/>
<path opacity="0.2" d="M182.547 80.1206H181.25V80.1746H182.547V80.1206Z" fill="#F2F2F2"/>
<path opacity="0.2" d="M66.4934 80.1206H65.1963V80.1746H66.4934V80.1206Z" fill="#F2F2F2"/>
<path opacity="0.2" d="M178.698 80.1726H176.15V80.1187H178.698V80.1726ZM173.599 80.1726H171.05V80.1187H173.599V80.1726ZM168.499 80.1726H165.948V80.1187H168.499V80.1726ZM163.399 80.1726H160.848V80.1187H163.399V80.1726ZM158.299 80.1726H155.749V80.1187H158.299V80.1726ZM153.198 80.1726H150.649V80.1187H153.198V80.1726ZM148.098 80.1726H145.547V80.1187H148.098V80.1726ZM142.998 80.1726H140.447V80.1187H142.998V80.1726ZM137.898 80.1726H135.347V80.1187H137.898V80.1726ZM132.796 80.1726H130.248V80.1187H132.796V80.1726ZM127.697 80.1726H125.146V80.1187H127.697V80.1726ZM122.597 80.1726H120.046V80.1187H122.597V80.1726ZM117.497 80.1726H114.946V80.1187H117.497V80.1726ZM112.395 80.1726H109.847V80.1187H112.395V80.1726ZM107.296 80.1726H104.747V80.1187H107.296V80.1726ZM102.196 80.1726H99.6536V80.1187H102.205L102.196 80.1726ZM97.0962 80.1726H94.5453V80.1187H97.0962V80.1726ZM91.9943 80.1726H89.4455V80.1187H91.9943V80.1726ZM86.8946 80.1726H84.3458V80.1187H86.8989L86.8946 80.1726ZM81.7948 80.1726H79.2439V80.1187H81.7948V80.1726ZM76.6951 80.1726H74.1442V80.1187H76.6951V80.1726ZM71.5932 80.1726H69.0444V80.1187H71.5932V80.1726Z" fill="#F2F2F2"/>
<path opacity="0.2" d="M182.547 80.1206H181.25V80.1746H182.547V80.1206Z" fill="#F2F2F2"/>
</g>
<path opacity="0.3" d="M187.199 89.1963H182.626V90.5822H187.199V89.1963Z" fill="#3B63F2"/>
<g opacity="0.2">
<path opacity="0.2" d="M66.4934 89.8203H65.1963V89.8743H66.4934V89.8203Z" fill="#F2F2F2"/>
<path opacity="0.2" d="M178.698 89.8743H176.15V89.8203H178.698V89.8743ZM173.599 89.8743H171.05V89.8203H173.599V89.8743ZM168.499 89.8743H165.948V89.8203H168.499V89.8743ZM163.399 89.8743H160.848V89.8203H163.399V89.8743ZM158.299 89.8743H155.749V89.8203H158.299V89.8743ZM153.198 89.8743H150.649V89.8203H153.198V89.8743ZM148.098 89.8743H145.547V89.8203H148.098V89.8743ZM142.998 89.8743H140.447V89.8203H142.998V89.8743ZM137.898 89.8743H135.347V89.8203H137.898V89.8743ZM132.796 89.8743H130.248V89.8203H132.796V89.8743ZM127.697 89.8743H125.146V89.8203H127.697V89.8743ZM122.597 89.8743H120.046V89.8203H122.597V89.8743ZM117.497 89.8743H114.946V89.8203H117.497V89.8743ZM112.395 89.8743H109.847V89.8203H112.395V89.8743ZM107.296 89.8743H104.747V89.8203H107.296V89.8743ZM102.196 89.8743H99.6536V89.8203H102.205L102.196 89.8743ZM97.0962 89.8743H94.5453V89.8203H97.0962V89.8743ZM91.9943 89.8743H89.4455V89.8203H91.9943V89.8743ZM86.8946 89.8743H84.3458V89.8203H86.8989L86.8946 89.8743ZM81.7948 89.8743H79.2439V89.8203H81.7948V89.8743ZM76.6951 89.8743H74.1442V89.8203H76.6951V89.8743ZM71.5932 89.8743H69.0444V89.8203H71.5932V89.8743Z" fill="#F2F2F2"/>
<path opacity="0.2" d="M182.547 89.8203H181.25V89.8743H182.547V89.8203Z" fill="#F2F2F2"/>
<path opacity="0.2" d="M66.4934 89.8203H65.1963V89.8743H66.4934V89.8203Z" fill="#F2F2F2"/>
<path opacity="0.2" d="M178.698 89.8743H176.15V89.8203H178.698V89.8743ZM173.599 89.8743H171.05V89.8203H173.599V89.8743ZM168.499 89.8743H165.948V89.8203H168.499V89.8743ZM163.399 89.8743H160.848V89.8203H163.399V89.8743ZM158.299 89.8743H155.749V89.8203H158.299V89.8743ZM153.198 89.8743H150.649V89.8203H153.198V89.8743ZM148.098 89.8743H145.547V89.8203H148.098V89.8743ZM142.998 89.8743H140.447V89.8203H142.998V89.8743ZM137.898 89.8743H135.347V89.8203H137.898V89.8743ZM132.796 89.8743H130.248V89.8203H132.796V89.8743ZM127.697 89.8743H125.146V89.8203H127.697V89.8743ZM122.597 89.8743H120.046V89.8203H122.597V89.8743ZM117.497 89.8743H114.946V89.8203H117.497V89.8743ZM112.395 89.8743H109.847V89.8203H112.395V89.8743ZM107.296 89.8743H104.747V89.8203H107.296V89.8743ZM102.196 89.8743H99.6536V89.8203H102.205L102.196 89.8743ZM97.0962 89.8743H94.5453V89.8203H97.0962V89.8743ZM91.9943 89.8743H89.4455V89.8203H91.9943V89.8743ZM86.8946 89.8743H84.3458V89.8203H86.8989L86.8946 89.8743ZM81.7948 89.8743H79.2439V89.8203H81.7948V89.8743ZM76.6951 89.8743H74.1442V89.8203H76.6951V89.8743ZM71.5932 89.8743H69.0444V89.8203H71.5932V89.8743Z" fill="#F2F2F2"/>
<path opacity="0.2" d="M182.547 89.8203H181.25V89.8743H182.547V89.8203Z" fill="#F2F2F2"/>
</g>
<path opacity="0.3" d="M187.199 98.896H182.626V100.282H187.199V98.896Z" fill="#3B63F2"/>
<g opacity="0.2">
<path opacity="0.2" d="M66.4934 99.522H65.1963V99.5759H66.4934V99.522Z" fill="#F2F2F2"/>
<path opacity="0.2" d="M178.698 99.5759H176.15V99.522H178.698V99.5759ZM173.599 99.5759H171.05V99.522H173.599V99.5759ZM168.499 99.5759H165.948V99.522H168.499V99.5759ZM163.399 99.5759H160.848V99.522H163.399V99.5759ZM158.299 99.5759H155.749V99.522H158.299V99.5759ZM153.198 99.5759H150.649V99.522H153.198V99.5759ZM148.098 99.5759H145.547V99.522H148.098V99.5759ZM142.998 99.5759H140.447V99.522H142.998V99.5759ZM137.898 99.5759H135.347V99.522H137.898V99.5759ZM132.796 99.5759H130.248V99.522H132.796V99.5759ZM127.697 99.5759H125.146V99.522H127.697V99.5759ZM122.597 99.5759H120.046V99.522H122.597V99.5759ZM117.497 99.5759H114.946V99.522H117.497V99.5759ZM112.395 99.5759H109.847V99.522H112.395V99.5759ZM107.296 99.5759H104.747V99.522H107.296V99.5759ZM102.196 99.5759H99.6536V99.522H102.205L102.196 99.5759ZM97.0962 99.5759H94.5453V99.522H97.0962V99.5759ZM91.9943 99.5759H89.4455V99.522H91.9943V99.5759ZM86.8946 99.5759H84.3458V99.522H86.8989L86.8946 99.5759ZM81.7948 99.5759H79.2439V99.522H81.7948V99.5759ZM76.6951 99.5759H74.1442V99.522H76.6951V99.5759ZM71.5932 99.5759H69.0444V99.522H71.5932V99.5759Z" fill="#F2F2F2"/>
<path opacity="0.2" d="M182.547 99.522H181.25V99.5759H182.547V99.522Z" fill="#F2F2F2"/>
<path opacity="0.2" d="M66.4934 99.522H65.1963V99.5759H66.4934V99.522Z" fill="#F2F2F2"/>
<path opacity="0.2" d="M178.698 99.5759H176.15V99.522H178.698V99.5759ZM173.599 99.5759H171.05V99.522H173.599V99.5759ZM168.499 99.5759H165.948V99.522H168.499V99.5759ZM163.399 99.5759H160.848V99.522H163.399V99.5759ZM158.299 99.5759H155.749V99.522H158.299V99.5759ZM153.198 99.5759H150.649V99.522H153.198V99.5759ZM148.098 99.5759H145.547V99.522H148.098V99.5759ZM142.998 99.5759H140.447V99.522H142.998V99.5759ZM137.898 99.5759H135.347V99.522H137.898V99.5759ZM132.796 99.5759H130.248V99.522H132.796V99.5759ZM127.697 99.5759H125.146V99.522H127.697V99.5759ZM122.597 99.5759H120.046V99.522H122.597V99.5759ZM117.497 99.5759H114.946V99.522H117.497V99.5759ZM112.395 99.5759H109.847V99.522H112.395V99.5759ZM107.296 99.5759H104.747V99.522H107.296V99.5759ZM102.196 99.5759H99.6536V99.522H102.205L102.196 99.5759ZM97.0962 99.5759H94.5453V99.522H97.0962V99.5759ZM91.9943 99.5759H89.4455V99.522H91.9943V99.5759ZM86.8946 99.5759H84.3458V99.522H86.8989L86.8946 99.5759ZM81.7948 99.5759H79.2439V99.522H81.7948V99.5759ZM76.6951 99.5759H74.1442V99.522H76.6951V99.5759ZM71.5932 99.5759H69.0444V99.522H71.5932V99.5759Z" fill="#F2F2F2"/>
<path opacity="0.2" d="M182.547 99.522H181.25V99.5759H182.547V99.522Z" fill="#F2F2F2"/>
</g>
<path d="M80.1021 60.772V99.671" stroke="#F2F2F2" stroke-width="0.1" stroke-miterlimit="10"/>
<path d="M95.8833 60.772V99.671" stroke="#F2F2F2" stroke-width="0.1" stroke-miterlimit="10"/>
<path d="M111.665 60.772V99.671" stroke="#F2F2F2" stroke-width="0.1" stroke-miterlimit="10"/>
<path d="M127.446 60.772V99.671" stroke="#F2F2F2" stroke-width="0.1" stroke-miterlimit="10"/>
<path d="M143.227 60.772V99.671" stroke="#F2F2F2" stroke-width="0.1" stroke-miterlimit="10"/>
<path d="M159.008 60.772V99.671" stroke="#F2F2F2" stroke-width="0.1" stroke-miterlimit="10"/>
<path d="M174.79 60.772V99.671" stroke="#F2F2F2" stroke-width="0.1" stroke-miterlimit="10"/>
<path opacity="0.3" d="M178.203 58.1467L176.398 60.0249C176.361 60.0641 176.331 60.1085 176.307 60.1565L175.187 62.46C175.143 62.5525 175.071 62.6294 174.982 62.6807C174.893 62.7319 174.791 62.755 174.688 62.7471L174.329 62.719C174.225 62.7116 174.126 62.6724 174.044 62.6068C173.963 62.5412 173.904 62.4522 173.875 62.352L173.529 61.1561C173.499 61.0515 173.436 60.9592 173.35 60.8927C173.264 60.8262 173.158 60.7889 173.049 60.7863C172.94 60.7836 172.833 60.8157 172.744 60.878C172.655 60.9402 172.587 61.0293 172.552 61.1323L171.971 62.8334C171.936 62.9349 171.871 63.0231 171.783 63.0854C171.696 63.1478 171.592 63.1812 171.484 63.181H169.264C169.142 63.1805 169.024 63.1368 168.932 63.0578C168.839 62.9787 168.778 62.8694 168.758 62.7492L168.131 58.8311C168.115 58.7239 168.064 58.6248 167.988 58.548C167.911 58.4713 167.812 58.4209 167.704 58.4041C167.597 58.3872 167.487 58.4049 167.391 58.4545C167.294 58.5041 167.216 58.583 167.167 58.6799L163.952 65.016C163.919 65.0815 163.872 65.1392 163.815 65.1851C163.757 65.231 163.691 65.2639 163.619 65.2818C163.548 65.2996 163.474 65.3018 163.401 65.2884C163.329 65.2749 163.26 65.2461 163.2 65.2038L161.289 63.8567C161.185 63.7836 161.057 63.7515 160.931 63.7667C160.804 63.7818 160.688 63.8431 160.604 63.9387L159.88 64.7742C159.858 64.7989 159.839 64.8256 159.823 64.854L157.891 68.1937C157.842 68.2793 157.769 68.3487 157.681 68.3936C157.593 68.4384 157.494 68.4567 157.396 68.4463L156.217 68.3297C156.135 68.3217 156.052 68.3335 155.975 68.3642L154.92 68.7852C154.798 68.8312 154.663 68.8289 154.542 68.7787C154.422 68.7286 154.325 68.6344 154.272 68.5153L154.04 67.9864C153.999 67.8917 153.929 67.8118 153.841 67.7571C153.754 67.7024 153.651 67.6755 153.548 67.6799L152.341 67.736C152.267 67.7392 152.194 67.7588 152.127 67.7935C152.061 67.8282 152.004 67.8772 151.959 67.9368L151.617 68.3815C151.561 68.4548 151.486 68.5116 151.4 68.5458C151.314 68.58 151.22 68.5904 151.129 68.5757C151.038 68.5611 150.952 68.5221 150.881 68.4628C150.81 68.4036 150.757 68.3262 150.726 68.239L150.294 67.0193C150.267 66.9434 150.223 66.8749 150.165 66.8192C150.107 66.7636 150.036 66.7224 149.959 66.6991C149.882 66.6758 149.801 66.6709 149.721 66.6849C149.642 66.6989 149.567 66.7314 149.503 66.7797L147.449 68.3167L145.179 70.1452C145.102 70.2074 145.008 70.2458 144.909 70.2558C144.81 70.2657 144.71 70.2468 144.621 70.2013L142.86 69.2882C142.765 69.2398 142.658 69.2217 142.553 69.2364L138.983 69.735C138.88 69.749 138.783 69.794 138.706 69.8642C138.629 69.9344 138.575 70.0264 138.551 70.1279L137.918 72.8761C137.898 72.9618 137.856 73.041 137.797 73.106C137.738 73.1711 137.662 73.2197 137.579 73.2473C137.495 73.2748 137.406 73.2804 137.319 73.2634C137.233 73.2464 137.152 73.2074 137.085 73.1502C137.026 73.0997 136.956 73.0633 136.881 73.0438C136.805 73.0243 136.726 73.0221 136.65 73.0375C136.573 73.0529 136.501 73.0854 136.439 73.1326C136.377 73.1798 136.327 73.2405 136.292 73.31L135.806 74.2836C135.769 74.3555 135.716 74.418 135.651 74.466C135.586 74.5139 135.511 74.5461 135.432 74.5599L134.327 74.7434C134.256 74.7558 134.188 74.783 134.128 74.8233L132.388 75.9804C132.304 76.0366 132.205 76.0667 132.104 76.0667H131.289C131.189 76.0669 131.091 76.0378 131.008 75.9829C130.924 75.928 130.858 75.8499 130.818 75.758L130.602 75.2421C130.574 75.1795 130.535 75.1231 130.485 75.0762C130.435 75.0293 130.377 74.9928 130.313 74.9688C130.248 74.9449 130.18 74.934 130.112 74.9368C130.044 74.9396 129.976 74.9561 129.915 74.9852L128.025 75.8681C127.949 75.9038 127.865 75.9204 127.781 75.9162C127.697 75.9121 127.615 75.8874 127.543 75.8444L126.678 75.3241C126.599 75.2764 126.507 75.2511 126.415 75.2507H124.506C124.405 75.251 124.306 75.2811 124.222 75.3371L122.318 76.6C122.245 76.6486 122.16 76.6775 122.072 76.684C121.984 76.6904 121.896 76.6741 121.816 76.6367L120.952 76.2286C120.851 76.1816 120.738 76.1686 120.629 76.1916C120.52 76.2146 120.422 76.2723 120.348 76.356L119.938 76.8245C119.884 76.8865 119.816 76.9347 119.74 76.9649C119.663 76.9952 119.581 77.0065 119.499 76.998C119.417 76.9896 119.339 76.9615 119.27 76.9163C119.202 76.871 119.145 76.8099 119.105 76.7381L118.982 76.5222C118.949 76.4626 118.904 76.4102 118.85 76.3683C118.796 76.3263 118.734 76.2955 118.668 76.2778C118.602 76.2601 118.533 76.2558 118.465 76.2652C118.397 76.2745 118.332 76.2973 118.273 76.3323L116.775 77.2195C116.697 77.264 116.609 77.2874 116.52 77.2874C116.43 77.2874 116.342 77.264 116.265 77.2195L115.647 76.8763C115.577 76.837 115.499 76.8148 115.419 76.8114C115.339 76.808 115.259 76.8236 115.186 76.8568L114.598 77.1245C114.532 77.1541 114.46 77.1695 114.388 77.1697C114.315 77.1698 114.244 77.1548 114.177 77.1255C114.111 77.0961 114.052 77.0532 114.003 76.9995C113.955 76.9458 113.918 76.8825 113.895 76.8137L113.515 75.6825C113.483 75.5786 113.418 75.488 113.33 75.4238C113.242 75.3597 113.135 75.3255 113.026 75.3263H112.473C112.386 75.3266 112.3 75.3043 112.224 75.2615L110.099 74.0979C110.013 74.0512 109.915 74.0303 109.817 74.0375C109.719 74.0448 109.625 74.08 109.546 74.1389L107.987 75.3047C107.899 75.371 107.791 75.4066 107.68 75.4061H105.719C105.619 75.4062 105.52 75.4363 105.436 75.4925L105.069 75.7364C105.008 75.7769 104.94 75.804 104.868 75.8161C104.796 75.8281 104.723 75.8247 104.652 75.8061C104.582 75.7875 104.517 75.7541 104.46 75.7083C104.404 75.6624 104.358 75.605 104.325 75.54L104.236 75.3651C104.194 75.2796 104.129 75.2075 104.048 75.1572C103.967 75.1068 103.874 75.0801 103.778 75.0802H102.795C102.716 75.0803 102.639 75.0983 102.569 75.1327C102.499 75.1671 102.438 75.2171 102.39 75.2788L101.781 76.0581C101.73 76.1227 101.665 76.1743 101.59 76.2084C101.515 76.2426 101.434 76.2583 101.352 76.2543C101.27 76.2502 101.19 76.2266 101.119 76.1853C101.048 76.144 100.988 76.0863 100.944 76.0171L100.771 75.7472C100.7 75.6342 100.587 75.5537 100.457 75.523C100.326 75.4923 100.189 75.5139 100.075 75.5832L99.5691 75.8854C99.483 75.9368 99.3837 75.962 99.2834 75.9577C99.1832 75.9535 99.0863 75.9201 99.0049 75.8616L96.9663 74.3872C96.9298 74.3615 96.8907 74.3398 96.8495 74.3224L95.2563 73.7115C95.1322 73.6664 94.9955 73.6709 94.8747 73.724C94.7539 73.7771 94.6582 73.8747 94.6077 73.9965L93.4987 76.6949C93.4826 76.7329 93.4717 76.7728 93.4663 76.8137L93.1074 79.2445C93.0916 79.3473 93.0448 79.4429 92.9734 79.5186L92.2146 80.3325C92.1359 80.4155 92.0319 80.47 91.9188 80.4876C91.8057 80.5052 91.69 80.4848 91.5898 80.4296L90.2733 79.7C90.2078 79.6633 90.135 79.6415 90.0601 79.6361C89.9852 79.6307 89.9101 79.6417 89.84 79.6685C89.7698 79.6953 89.7065 79.7371 89.6543 79.791C89.6022 79.845 89.5626 79.9097 89.5382 79.9806L88.7038 82.4179C88.6849 82.4712 88.6754 82.5275 88.6757 82.5841V84.1211C88.6754 84.2208 88.6461 84.3182 88.5911 84.4014C88.5362 84.4847 88.4582 84.5501 88.3665 84.5896L87.0284 85.1811C86.954 85.2131 86.8731 85.227 86.7923 85.2218C86.7115 85.2165 86.6332 85.1922 86.5636 85.1509L85.5562 84.5594C85.4558 84.5007 85.3384 84.4778 85.2232 84.4946L83.457 84.7472C83.356 84.7616 83.253 84.7455 83.1613 84.7008C83.0696 84.6562 82.9934 84.5851 82.9425 84.4968L82.6442 83.9873C82.5798 83.8774 82.4764 83.7957 82.3545 83.7585L81.5525 83.508C81.459 83.4783 81.3589 83.4761 81.2642 83.5018C81.1694 83.5275 81.0842 83.5798 81.0185 83.6527L79.9052 84.8875C79.8173 84.9844 79.6961 85.0445 79.5658 85.0559L77.9228 85.194C77.8466 85.1983 77.7725 85.2205 77.7066 85.2588L74.8422 86.9038C74.7528 86.9545 74.6502 86.9773 74.5477 86.9692C74.4452 86.9611 74.3475 86.9225 74.2671 86.8585L73.4543 86.2108C73.3633 86.1387 73.2506 86.0991 73.1343 86.0986H70.0559C69.979 86.0989 69.9031 86.0817 69.8338 86.0484C69.7646 86.0151 69.7037 85.9666 69.656 85.9064L68.8799 84.9393C68.8334 84.8815 68.7748 84.8345 68.7083 84.8015C68.6418 84.7685 68.5689 84.7504 68.4947 84.7483C68.4204 84.7463 68.3467 84.7604 68.2784 84.7896C68.2102 84.8189 68.1491 84.8626 68.0995 84.9177L67.1656 85.9539C67.081 86.0475 67.0341 86.169 67.0337 86.295V99.17C67.0337 99.3057 67.0877 99.4358 67.1838 99.5317C67.2798 99.6277 67.4102 99.6816 67.546 99.6816H178.605C178.673 99.6816 178.739 99.6683 178.802 99.6425C178.864 99.6166 178.921 99.5787 178.968 99.531C179.016 99.4832 179.054 99.4266 179.079 99.3643C179.105 99.3019 179.118 99.2352 179.118 99.1678L179.087 58.5116C179.089 58.4086 179.059 58.3075 179.003 58.2215C178.946 58.1355 178.865 58.0685 178.769 58.0292C178.674 57.9898 178.569 57.98 178.468 58.001C178.367 58.022 178.275 58.0727 178.203 58.1467Z" fill="#3B63F2"/>
<path opacity="0.3" d="M178.104 74.8189L176.431 75.9328C176.372 75.9723 176.32 76.0212 176.277 76.0775L175.237 77.4483C175.174 77.5295 175.093 77.5946 174.999 77.6381C174.906 77.6817 174.804 77.7024 174.701 77.6987L174.362 77.6814C174.245 77.6756 174.132 77.6379 174.036 77.5724C173.94 77.5069 173.863 77.4162 173.815 77.3101L173.599 76.8503C173.55 76.7423 173.472 76.65 173.374 76.5841C173.276 76.5181 173.161 76.4811 173.043 76.4773C172.924 76.4734 172.807 76.5029 172.705 76.5624C172.602 76.6219 172.519 76.7089 172.464 76.8136L172.031 77.6404C171.977 77.7418 171.897 77.8266 171.798 77.8856C171.699 77.9445 171.586 77.9755 171.471 77.975H169.327C169.185 77.9757 169.048 77.9287 168.937 77.8418C168.825 77.7548 168.746 77.6329 168.713 77.4958L168.198 75.4385C168.17 75.3238 168.109 75.2194 168.024 75.1372C167.939 75.055 167.833 74.9982 167.717 74.9732C167.602 74.9483 167.481 74.9562 167.37 74.9961C167.259 75.0359 167.161 75.1062 167.087 75.1988L163.996 79.1019C163.909 79.2129 163.786 79.2913 163.649 79.3246C163.512 79.3579 163.368 79.3441 163.239 79.2854L161.252 78.3895C161.148 78.3409 161.033 78.3215 160.919 78.3332C160.805 78.345 160.696 78.3876 160.604 78.4564L159.893 78.981C159.859 79.0064 159.827 79.0353 159.8 79.0674L157.923 81.142C157.86 81.2142 157.781 81.2712 157.693 81.3086C157.605 81.346 157.509 81.3628 157.413 81.3578L156.187 81.2801C156.12 81.2761 156.053 81.2819 155.988 81.2974L154.884 81.5802C154.758 81.613 154.625 81.6062 154.503 81.5606C154.381 81.515 154.276 81.4329 154.203 81.3255L154.077 81.1398C154.017 81.0526 153.936 80.9819 153.842 80.934C153.748 80.8861 153.643 80.8626 153.537 80.8656L152.305 80.9023C152.162 80.9047 152.026 80.9566 151.918 81.0491L151.615 81.3017C151.543 81.3618 151.459 81.4053 151.369 81.429C151.278 81.4528 151.184 81.4562 151.092 81.439C151 81.4219 150.913 81.3847 150.837 81.3299C150.761 81.2752 150.698 81.2044 150.653 81.1225L150.333 80.544C150.255 80.4026 150.126 80.2963 149.972 80.2469C149.818 80.1975 149.651 80.2088 149.505 80.2784L147.432 81.2736L145.138 82.4567C145.063 82.4951 144.982 82.5182 144.898 82.5245C144.814 82.5308 144.729 82.5202 144.65 82.4934L142.823 81.8889C142.741 81.8619 142.654 81.8517 142.568 81.8587L139.031 82.1587C138.911 82.1711 138.797 82.2167 138.701 82.2903C138.606 82.3639 138.533 82.4626 138.491 82.5754L137.978 84.0045C137.947 84.0904 137.898 84.1685 137.834 84.2336C137.77 84.2987 137.693 84.3492 137.607 84.3816C137.522 84.414 137.43 84.4276 137.339 84.4214C137.248 84.4151 137.159 84.3893 137.079 84.3456L137.057 84.3348C136.926 84.2621 136.773 84.2386 136.626 84.2687C136.479 84.2988 136.347 84.3804 136.255 84.4989L135.853 85.0127C135.746 85.1464 135.591 85.2326 135.421 85.2523L134.314 85.371C134.252 85.3773 134.19 85.3925 134.132 85.4163L132.379 86.1654C132.3 86.1978 132.216 86.2147 132.13 86.2151H131.287C131.184 86.2151 131.083 86.1899 130.991 86.1417C130.9 86.0935 130.822 86.0239 130.764 85.9388L130.643 85.7617C130.567 85.6511 130.458 85.5674 130.331 85.5228C130.205 85.4781 130.067 85.4749 129.938 85.5135L127.973 86.1072C127.839 86.1477 127.694 86.1424 127.563 86.092L126.65 85.7423C126.581 85.7152 126.508 85.7006 126.434 85.6991H124.475C124.391 85.699 124.307 85.7167 124.229 85.751L122.283 86.5756C122.147 86.6346 121.993 86.643 121.851 86.5994L120.889 86.3122C120.795 86.2843 120.696 86.2784 120.6 86.2949C120.504 86.3113 120.412 86.3498 120.333 86.4072L119.912 86.7159C119.784 86.8092 119.626 86.8513 119.469 86.8342C119.312 86.817 119.167 86.7417 119.062 86.6231L119 86.5519C118.915 86.4549 118.802 86.3863 118.677 86.355C118.552 86.3238 118.42 86.3314 118.299 86.377L116.732 86.975C116.592 87.0258 116.439 87.0258 116.299 86.975L115.612 86.7289C115.486 86.6856 115.351 86.6818 115.223 86.7181L114.574 86.9059C114.432 86.9468 114.28 86.9368 114.145 86.8777C114.01 86.8185 113.899 86.714 113.833 86.5821L113.591 86.0964C113.538 85.9915 113.457 85.9032 113.357 85.8415C113.257 85.7798 113.142 85.7469 113.024 85.7466H112.462C112.389 85.7479 112.316 85.7362 112.246 85.7121L110.065 84.9479C109.986 84.9199 109.903 84.9077 109.82 84.9122C109.737 84.9166 109.655 84.9376 109.581 84.9738L107.987 85.738C107.901 85.7787 107.808 85.8001 107.713 85.8006H105.7C105.615 85.801 105.53 85.8179 105.451 85.8503L105.041 86.0273C104.912 86.0817 104.769 86.0924 104.634 86.0577C104.499 86.023 104.379 85.9448 104.293 85.8351C104.234 85.7591 104.158 85.6976 104.071 85.6553C103.985 85.613 103.89 85.5911 103.793 85.5912H102.777C102.631 85.591 102.489 85.6413 102.375 85.7337L101.785 86.2172C101.664 86.3176 101.509 86.3688 101.352 86.3608C101.194 86.3528 101.046 86.2862 100.935 86.1741L100.801 86.0402C100.715 85.9532 100.605 85.8932 100.485 85.8675C100.364 85.8418 100.239 85.8516 100.125 85.8956L99.5367 86.1223C99.3759 86.1821 99.1979 86.1759 99.0417 86.105L96.9728 85.1465C96.9363 85.1291 96.8978 85.116 96.8582 85.1076L95.2347 84.7083C95.1067 84.6763 94.9718 84.6854 94.8492 84.7342C94.7266 84.783 94.6225 84.8691 94.5516 84.9803L93.5312 86.5691C93.4922 86.6302 93.4637 86.6973 93.4469 86.7677L93.1377 88.117C93.1007 88.2711 93.0084 88.4062 92.8783 88.4969L92.2038 88.9589C92.1217 89.0154 92.0273 89.0515 91.9284 89.0643C91.8296 89.0771 91.7291 89.0661 91.6353 89.0323L90.2474 88.5401C90.1023 88.4889 89.9435 88.4923 89.8007 88.5495C89.6579 88.6067 89.5408 88.7139 89.4713 88.851L88.7406 90.2153C88.6926 90.3073 88.6673 90.4095 88.6671 90.5132V91.1285C88.6665 91.2666 88.6208 91.4008 88.537 91.5107C88.4531 91.6206 88.3356 91.7001 88.2023 91.7373L86.9874 92.074C86.8585 92.1105 86.7212 92.1044 86.5961 92.0568L85.5368 91.6574C85.4473 91.623 85.3512 91.6097 85.2557 91.6185L83.429 91.7847C83.3317 91.7942 83.2335 91.7808 83.1422 91.7455C83.051 91.7103 82.9693 91.6542 82.9037 91.5818L82.6875 91.3422C82.5975 91.2414 82.4767 91.1731 82.3438 91.1479L81.5115 90.9795C81.4264 90.9634 81.339 90.9645 81.2543 90.9826C81.1697 91.0008 81.0895 91.0357 81.0186 91.0853L79.9225 91.8646C79.8245 91.9335 79.7092 91.9738 79.5896 91.9812L77.9099 92.0697C77.8464 92.0737 77.7837 92.0867 77.724 92.1086L74.8077 93.188C74.726 93.2189 74.6387 93.2322 74.5515 93.227C74.4643 93.2218 74.3792 93.1982 74.3018 93.1577L73.4587 92.726C73.3696 92.6806 73.2711 92.6569 73.1712 92.6569H70.0365C69.8918 92.6569 69.7514 92.6074 69.6388 92.5166L68.88 91.91C68.7724 91.824 68.6397 91.7754 68.502 91.7715C68.3643 91.7676 68.2291 91.8086 68.1168 91.8884L67.304 92.4669C67.2218 92.5256 67.1548 92.603 67.1085 92.6928C67.0623 92.7825 67.0381 92.882 67.0381 92.9829V99.0512C67.0381 99.219 67.1048 99.3798 67.2236 99.4985C67.3424 99.6171 67.5035 99.6837 67.6715 99.6837H178.484C178.652 99.6837 178.813 99.6171 178.932 99.4985C179.051 99.3798 179.118 99.219 179.118 99.0512L179.087 75.3543C179.089 75.2392 179.059 75.1259 179.001 75.0265C178.943 74.9272 178.858 74.8456 178.757 74.7905C178.656 74.7354 178.542 74.709 178.427 74.714C178.311 74.719 178.2 74.7552 178.104 74.8189Z" fill="#3B63F2"/>
<path d="M178.551 76.1702C179.387 76.1702 180.065 75.4937 180.065 74.6591C180.065 73.8245 179.387 73.1479 178.551 73.1479C177.716 73.1479 177.038 73.8245 177.038 74.6591C177.038 75.4937 177.716 76.1702 178.551 76.1702Z" fill="#3B63F2"/>
<path opacity="0.3" d="M178.454 89.6085L176.398 90.2928C176.359 90.3064 176.321 90.3245 176.286 90.3468L175.157 91.0916C175.075 91.1451 174.978 91.1722 174.88 91.1693L174.178 91.152C174.112 91.1507 174.048 91.136 173.989 91.1089C173.929 91.0818 173.876 91.0428 173.832 90.9944L173.4 90.5195C173.357 90.4721 173.305 90.4336 173.247 90.4065C173.189 90.3794 173.126 90.364 173.062 90.3614C172.998 90.3588 172.934 90.369 172.874 90.3913C172.814 90.4136 172.759 90.4477 172.712 90.4914L171.984 91.1736C171.895 91.2581 171.777 91.3053 171.655 91.3053H169.13C169.04 91.3059 168.952 91.2811 168.875 91.2337C168.799 91.1863 168.737 91.1184 168.698 91.0376L168.12 89.887C168.09 89.8269 168.048 89.7739 167.996 89.7312C167.944 89.6884 167.884 89.657 167.819 89.6389C167.755 89.6208 167.687 89.6165 167.62 89.6261C167.554 89.6357 167.49 89.6591 167.433 89.6948L163.859 91.9551C163.751 92.0227 163.621 92.0452 163.496 92.0177L161.049 91.4672C160.959 91.4459 160.864 91.4519 160.777 91.4845L159.884 91.8148C159.86 91.8221 159.838 91.8322 159.817 91.845L157.843 92.9373C157.767 92.9788 157.681 92.9996 157.595 92.9978L156.133 92.9503C156.108 92.9481 156.083 92.9481 156.057 92.9503L154.652 93.1295C154.53 93.1444 154.406 93.1128 154.306 93.041L154.021 92.8251C153.937 92.7628 153.834 92.7302 153.729 92.7322L152.188 92.7538C152.126 92.7539 152.065 92.7664 152.008 92.7905L151.317 93.082C151.232 93.1169 151.139 93.1272 151.049 93.1115C150.958 93.0959 150.874 93.0549 150.806 92.9935L150.24 92.4926C150.182 92.4407 150.113 92.4035 150.037 92.3843C149.962 92.3652 149.883 92.3645 149.808 92.3825L147.443 92.9524L145.011 93.5806C144.945 93.5947 144.877 93.5947 144.812 93.5806L142.758 93.2396C142.725 93.2374 142.692 93.2374 142.658 93.2396L138.86 93.4101C138.787 93.4133 138.716 93.4331 138.652 93.4679C138.588 93.5027 138.533 93.5516 138.491 93.6109L137.918 94.3988C137.86 94.4789 137.78 94.5394 137.687 94.5722C137.594 94.605 137.494 94.6086 137.399 94.5823L136.787 94.4139C136.722 94.3968 136.654 94.3933 136.587 94.4037C136.521 94.4141 136.457 94.4382 136.4 94.4744L135.788 94.8651C135.718 94.9087 135.637 94.934 135.555 94.9385L134.258 95.0098C134.233 95.0077 134.209 95.0077 134.184 95.0098L132.312 95.4091C132.279 95.4159 132.245 95.4195 132.21 95.4199H131.112C131.01 95.4199 130.911 95.3874 130.829 95.3271L130.544 95.1112C130.493 95.0737 130.436 95.0466 130.375 95.0314C130.314 95.0162 130.251 95.0133 130.189 95.0227L127.852 95.3724C127.798 95.3811 127.744 95.3811 127.69 95.3724L126.592 95.1566C126.562 95.1534 126.531 95.1534 126.501 95.1566H124.393C124.36 95.1534 124.327 95.1534 124.294 95.1566L122.156 95.6099C122.099 95.6207 122.04 95.6207 121.983 95.6099L120.71 95.4178C120.629 95.4069 120.548 95.4157 120.472 95.4437L119.655 95.7416C119.589 95.7661 119.518 95.7757 119.449 95.7697C119.379 95.7638 119.311 95.7424 119.25 95.707L118.863 95.4912C118.765 95.4333 118.649 95.4133 118.537 95.435L116.591 95.8042C116.533 95.815 116.474 95.815 116.416 95.8042L115.48 95.638C115.429 95.6304 115.377 95.6304 115.327 95.638L114.293 95.7869C114.219 95.7982 114.144 95.792 114.073 95.7687C114.002 95.7455 113.937 95.7059 113.885 95.6531L113.543 95.3271C113.452 95.2379 113.329 95.1876 113.202 95.1868H112.382C112.355 95.189 112.327 95.189 112.3 95.1868L109.909 94.768C109.844 94.754 109.777 94.754 109.712 94.768L107.905 95.1997C107.868 95.2084 107.831 95.2128 107.793 95.2127H105.616C105.583 95.2094 105.549 95.2094 105.516 95.2127L104.779 95.3703C104.655 95.4047 104.522 95.3892 104.409 95.3271L104.206 95.1954C104.129 95.1462 104.039 95.1199 103.947 95.1198H102.63C102.568 95.1201 102.506 95.1326 102.449 95.1566L101.528 95.5322C101.464 95.5587 101.396 95.571 101.327 95.5684C101.258 95.5658 101.191 95.5483 101.13 95.5171L100.641 95.271C100.546 95.2235 100.439 95.2084 100.334 95.2278L99.3702 95.4135C99.3046 95.4274 99.2369 95.4274 99.1713 95.4135L96.936 94.8953H96.8863L94.986 94.66C94.8594 94.6457 94.7322 94.6813 94.6315 94.7593L93.5506 95.5969C93.49 95.6437 93.4418 95.7044 93.4101 95.774L93.1679 96.3115C93.1406 96.3706 93.1016 96.4236 93.0533 96.4674C93.0051 96.5111 92.9485 96.5447 92.8869 96.5662L92.0568 96.849C91.98 96.877 91.8971 96.8837 91.8168 96.8685L89.9706 96.5403C89.8969 96.5276 89.8213 96.5321 89.7497 96.5535C89.6781 96.5748 89.6123 96.6124 89.5577 96.6634L88.8248 97.3477C88.7768 97.3928 88.7385 97.4474 88.7125 97.5079C88.6864 97.5684 88.6732 97.6337 88.6735 97.6996C88.6735 97.8155 88.6315 97.9275 88.5552 98.0148C88.4789 98.1021 88.3734 98.1589 88.2584 98.1745L86.8727 98.3667C86.8212 98.3753 86.7686 98.3753 86.7171 98.3667L85.4632 98.1292C85.4259 98.1248 85.3881 98.1248 85.3508 98.1292L83.256 98.2242C83.168 98.2276 83.0807 98.2074 83.0031 98.1659L82.6356 97.9651C82.5791 97.9329 82.5165 97.913 82.4518 97.9068L81.3514 97.7967C81.2783 97.7892 81.2045 97.798 81.1353 97.8226L79.8382 98.2825C79.7902 98.2995 79.7399 98.3089 79.689 98.3105L77.845 98.3602C77.8198 98.358 77.7945 98.358 77.7693 98.3602L74.6455 98.9366C74.5777 98.9506 74.5078 98.9506 74.4401 98.9366L73.3765 98.6646C73.3368 98.6552 73.2962 98.6501 73.2554 98.6495H69.9024C69.8409 98.6501 69.7799 98.6383 69.723 98.6149L68.6724 98.1961C68.5624 98.1541 68.4408 98.1541 68.3308 98.1961L67.3536 98.5437C67.26 98.5764 67.1789 98.6374 67.1216 98.7183C67.0642 98.7991 67.0335 98.8958 67.0337 98.9949V99.2107C67.0334 99.2739 67.0456 99.3364 67.0696 99.3948C67.0936 99.4532 67.1289 99.5063 67.1735 99.551C67.2181 99.5957 67.2711 99.6312 67.3295 99.6555C67.3878 99.6797 67.4504 99.6921 67.5136 99.6921H178.631C178.694 99.6921 178.757 99.6797 178.815 99.6555C178.874 99.6312 178.927 99.5957 178.971 99.551C179.016 99.5063 179.051 99.4532 179.075 99.3948C179.099 99.3364 179.111 99.2739 179.111 99.2107L179.083 90.0856C179.086 90.0082 179.07 89.9313 179.037 89.8613C179.004 89.7913 178.955 89.7303 178.893 89.6835C178.831 89.6367 178.759 89.6054 178.683 89.5923C178.606 89.5793 178.528 89.5848 178.454 89.6085Z" fill="#3B63F2"/>
<path d="M95.3209 86.3167C96.1566 86.3167 96.8342 85.6402 96.8342 84.8056C96.8342 83.971 96.1566 83.2944 95.3209 83.2944C94.4851 83.2944 93.8076 83.971 93.8076 84.8056C93.8076 85.6402 94.4851 86.3167 95.3209 86.3167Z" fill="#3B63F2"/>
<path d="M167.958 76.8182C168.794 76.8182 169.471 76.1416 169.471 75.307C169.471 74.4725 168.794 73.7959 167.958 73.7959C167.122 73.7959 166.445 74.4725 166.445 75.307C166.445 76.1416 167.122 76.8182 167.958 76.8182Z" fill="#3B63F2"/>
<path d="M130.342 86.9642C131.178 86.9642 131.856 86.2876 131.856 85.453C131.856 84.6185 131.178 83.9419 130.342 83.9419C129.507 83.9419 128.829 84.6185 128.829 85.453C128.829 86.2876 129.507 86.9642 130.342 86.9642Z" fill="#3B63F2"/>
<path d="M150.015 81.5672C150.851 81.5672 151.529 80.8907 151.529 80.0561C151.529 79.2215 150.851 78.5449 150.015 78.5449C149.179 78.5449 148.502 79.2215 148.502 80.0561C148.502 80.8907 149.179 81.5672 150.015 81.5672Z" fill="#3B63F2"/>
<path d="M179.304 75.3415C179.303 75.2273 179.272 75.1154 179.213 75.0176C179.154 74.9198 179.07 74.8398 178.969 74.786C178.868 74.7322 178.754 74.7067 178.64 74.7121C178.526 74.7176 178.415 74.7538 178.32 74.8169L176.647 75.9308C176.588 75.9704 176.536 76.0192 176.493 76.0755L175.453 77.4463C175.39 77.5275 175.309 77.5926 175.216 77.6361C175.122 77.6797 175.02 77.7004 174.917 77.6967L174.578 77.6794C174.461 77.6736 174.349 77.6359 174.252 77.5704C174.156 77.5049 174.079 77.4142 174.031 77.3081L173.815 76.8483C173.767 76.7403 173.689 76.648 173.59 76.5821C173.492 76.5161 173.377 76.4791 173.259 76.4753C173.14 76.4714 173.023 76.501 172.921 76.5604C172.819 76.6199 172.735 76.707 172.68 76.8116L172.248 77.6384C172.194 77.7398 172.113 77.8246 172.014 77.8836C171.916 77.9426 171.803 77.9735 171.688 77.973H169.543C169.402 77.9737 169.264 77.9267 169.153 77.8398C169.041 77.7528 168.963 77.6309 168.929 77.4938L168.415 75.4365C168.386 75.3218 168.326 75.2175 168.241 75.1352C168.156 75.053 168.049 74.9962 167.934 74.9712C167.818 74.9463 167.698 74.9542 167.586 74.9941C167.475 75.034 167.377 75.1042 167.303 75.1968L164.212 79.0999C164.125 79.2109 164.003 79.2893 163.866 79.3226C163.728 79.3559 163.584 79.3421 163.455 79.2834L161.469 78.3875C161.365 78.3389 161.249 78.3195 161.135 78.3313C161.021 78.343 160.912 78.3856 160.82 78.4544L160.109 78.979C160.075 79.0044 160.044 79.0333 160.016 79.0654L158.139 81.14C158.076 81.2122 157.998 81.2692 157.909 81.3066C157.821 81.344 157.725 81.3608 157.629 81.3558L156.404 81.2781C156.337 81.2741 156.27 81.2799 156.205 81.2954L155.1 81.5782C154.974 81.611 154.841 81.6042 154.719 81.5586C154.597 81.513 154.492 81.4309 154.419 81.3235L154.294 81.1378C154.234 81.0506 154.153 80.9799 154.058 80.932C153.964 80.8841 153.859 80.8606 153.753 80.8636L152.521 80.9003C152.379 80.9027 152.242 80.9546 152.134 81.0471L151.831 81.2997C151.76 81.3598 151.676 81.4033 151.585 81.427C151.495 81.4508 151.4 81.4542 151.308 81.4371C151.216 81.4199 151.129 81.3827 151.053 81.3279C150.977 81.2732 150.914 81.2024 150.869 81.1205L150.549 80.542C150.471 80.4006 150.342 80.2943 150.188 80.2449C150.034 80.1955 149.867 80.2068 149.721 80.2765L147.648 81.2716L145.354 82.4547C145.28 82.4931 145.198 82.5161 145.114 82.5225C145.03 82.5288 144.946 82.5182 144.866 82.4914L143.039 81.8869C142.957 81.8599 142.87 81.8497 142.784 81.8567L139.247 82.1589C139.127 82.1713 139.013 82.2169 138.918 82.2905C138.822 82.3641 138.749 82.4628 138.707 82.5755L138.195 84.0047C138.164 84.0905 138.114 84.1687 138.05 84.2338C137.986 84.2989 137.909 84.3494 137.823 84.3818C137.738 84.4142 137.647 84.4277 137.555 84.4215C137.464 84.4153 137.375 84.3894 137.295 84.3457L137.274 84.3349C137.142 84.2622 136.989 84.2388 136.842 84.2689C136.695 84.299 136.564 84.3806 136.472 84.499L136.069 85.0128C135.963 85.1466 135.807 85.2327 135.637 85.2524L134.53 85.3712C134.468 85.3774 134.407 85.3927 134.349 85.4165L132.595 86.1656C132.517 86.198 132.432 86.2149 132.347 86.2152H131.504C131.401 86.2152 131.299 86.19 131.208 86.1419C131.117 86.0937 131.039 86.024 130.981 85.9389L130.859 85.7619C130.784 85.6512 130.674 85.5676 130.548 85.5229C130.421 85.4783 130.283 85.4751 130.155 85.5136L128.19 86.1073C128.055 86.1478 127.91 86.1425 127.779 86.0922L126.867 85.7425C126.798 85.7154 126.724 85.7007 126.65 85.6993H124.692C124.607 85.6992 124.523 85.7168 124.445 85.7511L122.5 86.5758C122.363 86.6347 122.21 86.6431 122.067 86.5995L121.105 86.3124C121.012 86.2845 120.913 86.2785 120.816 86.295C120.72 86.3115 120.629 86.3499 120.55 86.4074L120.128 86.7161C120.001 86.8093 119.843 86.8515 119.685 86.8343C119.528 86.8171 119.383 86.7419 119.279 86.6233L119.216 86.552C119.131 86.4551 119.018 86.3864 118.893 86.3552C118.768 86.3239 118.636 86.3316 118.515 86.3772L116.948 86.9751C116.809 87.026 116.655 87.026 116.516 86.9751L115.828 86.729C115.703 86.6857 115.567 86.682 115.439 86.7182L114.791 86.9061C114.649 86.9469 114.497 86.937 114.361 86.8778C114.226 86.8187 114.116 86.7141 114.049 86.5822L113.807 86.0965C113.754 85.9916 113.673 85.9034 113.573 85.8416C113.473 85.7799 113.358 85.7471 113.241 85.7468H112.679C112.605 85.748 112.532 85.7363 112.462 85.7122L110.281 84.948C110.203 84.92 110.12 84.9079 110.036 84.9123C109.953 84.9168 109.872 84.9377 109.797 84.974L108.204 85.7382C108.118 85.7789 108.024 85.8002 107.929 85.8008H105.916C105.831 85.8011 105.747 85.818 105.668 85.8504L105.257 86.0274C105.129 86.0819 104.986 86.0926 104.85 86.0578C104.715 86.0231 104.595 85.9449 104.509 85.8353C104.45 85.7593 104.374 85.6978 104.288 85.6555C104.201 85.6132 104.106 85.5913 104.01 85.5914H102.994C102.847 85.5912 102.705 85.6415 102.592 85.7338L102.001 86.2174C101.88 86.3177 101.725 86.369 101.568 86.361C101.411 86.353 101.262 86.2863 101.152 86.1742L101.018 86.0404C100.931 85.9533 100.821 85.8933 100.701 85.8676C100.581 85.842 100.456 85.8517 100.341 85.8957L99.753 86.1224C99.5922 86.1823 99.4142 86.1761 99.258 86.1051L97.1891 85.1467C97.1526 85.1292 97.1141 85.1162 97.0745 85.1078L95.451 84.7084C95.323 84.6765 95.1881 84.6855 95.0655 84.7344C94.9429 84.7832 94.8388 84.8693 94.7679 84.9804L93.7475 86.5693C93.7085 86.6303 93.68 86.6975 93.6632 86.7679L93.354 88.1171C93.317 88.2712 93.2247 88.4064 93.0946 88.4971L92.4201 88.9591C92.338 89.0156 92.2436 89.0517 92.1448 89.0644C92.0459 89.0772 91.9454 89.0662 91.8516 89.0324L90.4637 88.5402C90.3186 88.4891 90.1598 88.4924 90.017 88.5496C89.8742 88.6068 89.7571 88.714 89.6876 88.8511L88.9569 90.2155C88.9089 90.3075 88.8837 90.4096 88.8834 90.5134V91.1286C88.8828 91.2668 88.8372 91.401 88.7533 91.5109C88.6694 91.6207 88.5519 91.7003 88.4186 91.7374L87.2037 92.0742C87.0748 92.1106 86.9376 92.1045 86.8124 92.0569L85.7531 91.6575C85.6637 91.6231 85.5675 91.6098 85.4721 91.6187L83.6453 91.7849C83.548 91.7943 83.4498 91.7809 83.3586 91.7457C83.2673 91.7104 83.1856 91.6544 83.12 91.582L82.9038 91.3423C82.8138 91.2415 82.693 91.1732 82.5601 91.1481L81.7278 90.9797C81.6427 90.9635 81.5553 90.9646 81.4706 90.9828C81.386 91.0009 81.3058 91.0359 81.2349 91.0854L80.1388 91.8648C80.0408 91.9336 79.9256 91.9739 79.8059 91.9813L78.1262 92.0699C78.0627 92.0738 78 92.0869 77.9403 92.1087L75.024 93.1881C74.9423 93.219 74.855 93.2323 74.7678 93.2271C74.6806 93.2219 74.5955 93.1983 74.5181 93.1579L73.675 92.7261C73.586 92.6808 73.4874 92.6571 73.3875 92.657H70.2528C70.1081 92.657 69.9677 92.6075 69.8551 92.5167L69.0963 91.9101C68.9887 91.8241 68.856 91.7755 68.7183 91.7716C68.5806 91.7677 68.4454 91.8088 68.3331 91.8885L67.5203 92.4671C67.4381 92.5258 67.3711 92.6032 67.3248 92.6929C67.2786 92.7826 67.2544 92.8821 67.2544 92.983" stroke="#6C63FF" stroke-miterlimit="10"/>
<path opacity="0.2" d="M187.198 108.541H60.7319V108.563H187.198V108.541Z" fill="#F2F2F2"/>
<path opacity="0.3" d="M80.1883 109.631C80.7853 109.631 81.2692 109.148 81.2692 108.552C81.2692 107.956 80.7853 107.473 80.1883 107.473C79.5914 107.473 79.1074 107.956 79.1074 108.552C79.1074 109.148 79.5914 109.631 80.1883 109.631Z" fill="#3B63F2"/>
<path opacity="0.3" d="M95.9696 109.631C96.5665 109.631 97.0505 109.148 97.0505 108.552C97.0505 107.956 96.5665 107.473 95.9696 107.473C95.3726 107.473 94.8887 107.956 94.8887 108.552C94.8887 109.148 95.3726 109.631 95.9696 109.631Z" fill="#3B63F2"/>
<path opacity="0.3" d="M111.751 109.631C112.348 109.631 112.832 109.148 112.832 108.552C112.832 107.956 112.348 107.473 111.751 107.473C111.154 107.473 110.67 107.956 110.67 108.552C110.67 109.148 111.154 109.631 111.751 109.631Z" fill="#3B63F2"/>
<path opacity="0.3" d="M127.532 109.631C128.129 109.631 128.613 109.148 128.613 108.552C128.613 107.956 128.129 107.473 127.532 107.473C126.935 107.473 126.451 107.956 126.451 108.552C126.451 109.148 126.935 109.631 127.532 109.631Z" fill="#3B63F2"/>
<path opacity="0.3" d="M143.313 109.631C143.91 109.631 144.394 109.148 144.394 108.552C144.394 107.956 143.91 107.473 143.313 107.473C142.716 107.473 142.232 107.956 142.232 108.552C142.232 109.148 142.716 109.631 143.313 109.631Z" fill="#3B63F2"/>
<path opacity="0.3" d="M159.095 109.631C159.692 109.631 160.175 109.148 160.175 108.552C160.175 107.956 159.692 107.473 159.095 107.473C158.498 107.473 158.014 107.956 158.014 108.552C158.014 109.148 158.498 109.631 159.095 109.631Z" fill="#3B63F2"/>
<path opacity="0.3" d="M174.876 109.631C175.473 109.631 175.957 109.148 175.957 108.552C175.957 107.956 175.473 107.473 174.876 107.473C174.279 107.473 173.795 107.956 173.795 108.552C173.795 109.148 174.279 109.631 174.876 109.631Z" fill="#3B63F2"/>
<path d="M51.8186 150.178C51.1701 148.988 51.9051 147.531 52.746 146.471C53.587 145.411 54.6074 144.312 54.5857 142.954C54.5533 141.011 52.4888 139.863 50.8393 138.833C49.6143 138.068 48.485 137.16 47.4755 136.128C47.053 135.731 46.7033 135.264 46.4422 134.747C46.1006 133.987 46.1092 133.123 46.1309 132.292C46.2044 129.517 46.342 126.748 46.5438 123.983" stroke="#3F3D56" stroke-width="4" stroke-miterlimit="10"/>
<path d="M43.4074 123.836C43.4304 123.329 43.5811 122.835 43.8456 122.401C44.1101 121.967 44.4798 121.607 44.9207 121.353L45.5995 122.694L45.5779 121.071C45.9026 120.976 46.2408 120.935 46.5788 120.95C47.1759 120.979 47.7509 121.185 48.2312 121.54C48.7115 121.896 49.0756 122.386 49.2775 122.947C49.4795 123.509 49.5103 124.118 49.366 124.698C49.2217 125.277 48.9088 125.801 48.4668 126.203C48.0248 126.605 47.4735 126.867 46.8824 126.957C46.2913 127.046 45.6869 126.959 45.1454 126.705C44.604 126.452 44.1498 126.045 43.8401 125.534C43.5304 125.023 43.3791 124.433 43.4052 123.836H43.4074Z" fill="#57B894"/>
<path d="M48.8182 144.343C49.1365 144.959 49.6571 145.447 50.2928 145.725C50.9285 146.003 51.6406 146.055 52.3099 145.871C52.9792 145.687 53.5649 145.28 53.9689 144.716C54.3729 144.152 54.5706 143.467 54.5289 142.775C54.4873 142.083 54.2087 141.427 53.7399 140.916C53.2711 140.405 52.6407 140.07 51.9542 139.968C51.2677 139.865 50.5668 140.002 49.9691 140.354C49.3714 140.707 48.9132 141.254 48.6712 141.903L50.5671 143.442L48.481 142.961C48.4817 143.442 48.5973 143.915 48.8182 144.343Z" fill="#57B894"/>
<path d="M50.3165 138.46C51.0703 138.513 51.8169 138.282 52.4092 137.814C53.0016 137.345 53.3969 136.672 53.5175 135.927C53.6381 135.182 53.4752 134.419 53.0609 133.788C52.6465 133.157 52.0107 132.703 51.2785 132.517L51.2958 133.764L50.6083 132.406C50.2103 132.387 49.8123 132.446 49.4372 132.581C49.0621 132.715 48.7173 132.923 48.4226 133.191C48.128 133.459 47.8892 133.782 47.7201 134.142C47.5509 134.503 47.4547 134.893 47.4369 135.291C47.4192 135.64 47.4631 135.99 47.5667 136.325C47.749 136.92 48.111 137.445 48.6032 137.827C49.0954 138.209 49.6937 138.43 50.3165 138.46Z" fill="#57B894"/>
<path d="M42.9512 133.566C43.4169 133.583 43.8803 133.493 44.3052 133.301C44.7302 133.11 45.1052 132.824 45.401 132.464C45.6968 132.105 45.9055 131.682 46.0107 131.228C46.116 130.775 46.1149 130.303 46.0077 129.85C45.9005 129.398 45.69 128.975 45.3926 128.617C45.0952 128.259 44.719 127.974 44.2932 127.785C43.8675 127.595 43.4037 127.507 42.938 127.526C42.4724 127.545 42.0175 127.671 41.6087 127.895L42.1448 129.363L41.0423 128.305C40.4515 128.845 40.0993 129.598 40.063 130.397C40.0486 130.678 40.0741 130.959 40.1386 131.232C40.29 131.874 40.6464 132.448 41.1538 132.869C41.6613 133.29 42.2922 133.535 42.9512 133.566Z" fill="#57B894"/>
<path opacity="0.1" d="M43.8159 124.643C44.5163 124.719 45.1973 124.937 45.8999 124.98C46.6025 125.023 47.3743 124.855 47.8196 124.311C48.0574 124.017 48.1785 123.644 48.3795 123.324C48.5715 123.026 48.8344 122.779 49.1448 122.605C49.3278 122.988 49.4284 123.404 49.44 123.827C49.4516 124.251 49.3739 124.672 49.212 125.063C49.05 125.455 48.8075 125.808 48.5001 126.1C48.1927 126.392 47.8273 126.616 47.4276 126.758C47.0278 126.9 46.6027 126.956 46.1798 126.923C45.7569 126.89 45.3456 126.769 44.9727 126.567C44.5997 126.365 44.2734 126.087 44.0149 125.751C43.7564 125.416 43.5715 125.029 43.4722 124.617C43.5875 124.622 43.702 124.63 43.8159 124.643Z" fill="black"/>
<path opacity="0.1" d="M42.9511 133.566C43.4743 133.592 43.9955 133.483 44.4637 133.248C44.9318 133.013 45.3308 132.66 45.6217 132.225C45.9126 131.79 46.0854 131.287 46.1231 130.765C46.1609 130.243 46.0623 129.72 45.8371 129.248C45.5964 129.41 45.3893 129.616 45.2275 129.857C45.0113 130.183 44.8794 130.558 44.6265 130.859C44.153 131.413 43.3467 131.595 42.6138 131.562C41.881 131.53 41.174 131.32 40.452 131.254C40.3504 131.254 40.2488 131.238 40.145 131.236C40.2969 131.876 40.6527 132.449 41.1587 132.869C41.6648 133.289 42.2938 133.533 42.9511 133.566Z" fill="black"/>
<path opacity="0.1" d="M50.3164 138.46C50.8359 138.487 51.3536 138.38 51.8196 138.149C52.2855 137.918 52.6839 137.57 52.9764 137.141C53.2689 136.711 53.4455 136.214 53.4893 135.696C53.533 135.178 53.4424 134.658 53.2262 134.186C52.9745 134.35 52.7547 134.558 52.5776 134.801C52.342 135.133 52.195 135.515 51.9291 135.822C51.4167 136.392 50.5563 136.593 49.7824 136.573C49.0085 136.554 48.3059 136.375 47.5601 136.316C47.7413 136.914 48.1036 137.441 48.5972 137.825C49.0908 138.209 49.6914 138.431 50.3164 138.46Z" fill="black"/>
<path opacity="0.1" d="M48.8184 144.342C49.1466 145.075 49.7528 145.647 50.5037 145.934C51.2545 146.22 52.0884 146.196 52.822 145.869C53.5556 145.541 54.1288 144.936 54.4154 144.186C54.7021 143.436 54.6787 142.603 54.3505 141.871C54.1001 142.033 53.8756 142.233 53.6846 142.462C53.3949 142.814 53.2047 143.213 52.8718 143.542C52.2513 144.15 51.2504 144.405 50.3576 144.424C49.8434 144.427 49.3294 144.399 48.8184 144.342Z" fill="black"/>
<path d="M56.3955 148.809C56.3955 148.809 54.0002 148.736 53.2782 148.222C52.5561 147.708 49.6031 147.097 49.4172 147.92C49.2312 148.742 45.8177 152.021 48.52 152.034C51.2223 152.047 54.8023 151.613 55.5243 151.171C56.2463 150.728 56.3955 148.809 56.3955 148.809Z" fill="#656380"/>
<path opacity="0.2" d="M48.4721 151.747C51.1765 151.769 54.7543 151.328 55.4742 150.884C56.0233 150.549 56.2417 149.351 56.3152 148.8H56.3952C56.3952 148.8 56.2438 150.728 55.5304 151.175C54.817 151.622 51.2306 152.056 48.5261 152.038C47.7457 152.038 47.4777 151.756 47.4928 151.345C47.5944 151.587 47.8906 151.743 48.4721 151.747Z" fill="black"/>
<path d="M207.312 122.237C207.155 122.687 207.095 123.166 207.137 123.642C207.242 124.117 207.465 124.558 207.786 124.924C207.946 125.18 208.196 125.366 208.486 125.449C208.637 125.463 208.788 125.435 208.924 125.37C209.06 125.304 209.176 125.202 209.258 125.075C209.42 124.82 209.517 124.529 209.539 124.227C209.6 123.424 209.56 122.616 209.42 121.822C209.329 121.155 209.305 120.421 209.128 119.776C208.67 119.776 208.14 119.691 207.885 120.127C207.559 120.695 207.481 121.602 207.312 122.237Z" fill="#FFC0C6"/>
<path d="M209.82 110.353C209.708 110.67 209.55 110.972 209.446 111.294C209.347 111.629 209.275 111.971 209.23 112.317C208.909 114.35 208.476 116.364 207.933 118.349C207.739 118.932 207.63 119.54 207.608 120.154L208.845 120.11C208.961 120.092 209.08 120.118 209.178 120.184C209.284 120.279 209.355 120.488 209.489 120.434C209.721 119.248 209.883 118.049 209.976 116.844C210.025 115.981 210.002 115.134 210.058 114.282C210.166 112.583 210.672 110.646 210.01 109.003C210.035 109.461 209.97 109.919 209.82 110.353Z" fill="#3F3D56"/>
<path opacity="0.1" d="M209.82 110.353C209.708 110.67 209.55 110.972 209.446 111.294C209.347 111.629 209.275 111.971 209.23 112.317C208.909 114.35 208.476 116.364 207.933 118.349C207.739 118.932 207.63 119.54 207.608 120.154L208.845 120.11C208.961 120.092 209.08 120.118 209.178 120.184C209.284 120.279 209.355 120.488 209.489 120.434C209.721 119.248 209.883 118.049 209.976 116.844C210.025 115.981 210.002 115.134 210.058 114.282C210.166 112.583 210.672 110.646 210.01 109.003C210.035 109.461 209.97 109.919 209.82 110.353Z" fill="black"/>
<path d="M211.357 100.176C211.054 100.435 210.95 100.849 210.862 101.238L210.144 104.394C209.98 105.115 209.815 105.836 209.712 106.568C209.258 109.625 209.783 112.768 209.279 115.816C209.133 116.496 209.037 117.185 208.989 117.878C208.968 119.147 209.459 120.41 209.255 121.662C209.187 121.884 209.187 122.122 209.255 122.344C209.359 122.56 209.709 122.629 209.807 122.42C209.824 122.382 209.835 122.341 209.839 122.299L210.587 117.586C210.767 116.466 210.944 115.328 210.821 114.199C210.736 113.431 210.511 112.662 210.635 111.898C210.716 111.519 210.826 111.148 210.965 110.786C211.687 108.627 211.588 106.281 211.182 104.049C211.099 103.724 211.076 103.388 211.112 103.056C211.212 102.509 211.636 102.091 211.921 101.616C212.137 101.257 212.509 100.469 212.353 100.038C212.193 99.5325 211.662 99.9146 211.357 100.176Z" fill="#3F3D56"/>
<path d="M212.555 145.808C212.455 145.798 212.355 145.816 212.265 145.86C212.189 145.915 212.13 145.99 212.094 146.076C211.854 146.57 211.686 147.142 211.229 147.462C211 147.605 210.748 147.709 210.484 147.769L208.451 148.347C208.19 148.42 207.892 148.528 207.803 148.779C207.714 149.029 207.904 149.336 208.149 149.483C208.512 149.655 208.915 149.73 209.316 149.698L212.258 149.742C212.538 149.761 212.819 149.733 213.089 149.657C213.432 149.537 213.722 149.262 214.083 149.226C214.377 149.193 214.66 149.321 214.948 149.385C215.546 149.517 216.167 149.385 216.761 149.234C216.869 149.219 216.97 149.171 217.049 149.096C217.114 149.003 217.145 148.89 217.138 148.777C217.161 148.274 217.17 147.773 217.168 147.266C217.168 146.81 217.114 146.281 216.735 146.031C216.561 145.931 216.367 145.871 216.167 145.856C214.961 145.703 213.769 145.817 212.555 145.808Z" fill="#575A88"/>
<path d="M220.339 152.2C220.256 152.397 220.151 152.583 220.026 152.755L218.787 154.629C218.281 155.391 217.758 156.207 217.723 157.12C218.549 157.438 219.435 157.565 220.317 157.494C220.759 157.482 221.189 157.349 221.558 157.107C222.09 156.716 222.3 156.028 222.473 155.397C222.485 155.314 222.527 155.237 222.592 155.182C222.702 155.106 222.851 155.182 222.985 155.154C223.26 155.119 223.355 154.774 223.374 154.506C223.429 153.652 223.356 152.795 223.158 151.963C223.143 151.859 223.097 151.762 223.026 151.684C222.944 151.623 222.845 151.586 222.743 151.579C222.125 151.473 221.506 151.35 220.886 151.259C220.067 151.127 220.57 151.611 220.339 152.2Z" fill="#575A88"/>
<path d="M210.11 118.811C209.511 119.57 209.318 120.585 209.364 121.55C209.409 122.515 209.675 123.456 209.898 124.398C210.263 125.929 210.527 127.483 210.689 129.05C210.715 129.488 210.787 129.922 210.905 130.345C211.011 130.673 211.175 130.98 211.271 131.31C211.387 131.711 211.398 132.139 211.506 132.543C211.652 132.979 211.839 133.4 212.064 133.801C213.052 135.817 213.264 138.119 213.281 140.364C213.281 140.97 213.281 141.575 213.337 142.177C213.463 143.399 213.841 144.768 213.108 145.752C213.294 146.421 214.189 146.549 214.872 146.46C215.675 146.361 216.46 146.15 217.205 145.834C216.989 145.377 216.673 144.843 216.688 144.323C216.734 143.916 216.837 143.518 216.995 143.14C217.386 141.953 217.427 140.683 217.449 139.433C217.465 139.048 217.459 138.661 217.432 138.276C217.394 137.921 217.336 137.568 217.259 137.218L216.422 133.033C216.275 132.297 216.255 131.542 216.364 130.8C216.521 129.921 216.82 129.072 217.248 128.288C218.249 126.269 218.595 123.994 218.791 121.749C218.897 120.523 218.923 119.158 218.143 118.206C217.66 117.656 217.007 117.284 216.288 117.148C215.575 117.018 214.847 116.99 214.126 117.064C212.68 117.185 211.007 117.675 210.11 118.811Z" fill="#3F3D56"/>
<path d="M210.285 119.348C210.008 120.277 210.696 121.181 211.05 122.083C211.253 122.604 211.355 123.163 211.666 123.636C212.051 124.212 212.713 124.553 213.13 125.108C213.547 125.663 213.668 126.312 213.994 126.889C214.321 127.465 214.859 127.944 215.162 128.545C215.62 129.441 215.553 130.516 215.875 131.47C216.104 132.154 216.535 132.765 216.701 133.471C216.775 133.788 216.794 134.119 216.876 134.429C217.069 135.172 217.596 135.82 217.65 136.588C217.685 137.091 217.516 137.644 217.782 138.071C217.942 138.333 218.232 138.486 218.431 138.719C218.576 138.931 218.681 139.168 218.74 139.418L219.172 140.832C219.589 142.205 219.637 143.624 220.037 145.003C220.437 146.383 220.72 147.874 220.253 149.234C220.065 149.798 219.751 150.376 219.909 150.948C219.976 151.151 220.087 151.336 220.233 151.491C220.38 151.646 220.558 151.767 220.757 151.847C221.156 151.999 221.579 152.079 222.006 152.082C222.579 152.112 223.195 152.082 223.669 151.764C223.436 150.03 223.344 148.28 223.392 146.532C223.446 145.392 223.608 144.256 223.608 143.114C223.584 142.391 223.515 141.67 223.403 140.955C223.273 139.886 223.045 138.831 222.72 137.804C222.538 137.345 222.387 136.874 222.266 136.396C222.196 136.07 222.175 135.736 222.127 135.405C222.08 135.075 222.008 134.758 221.937 134.419L221.647 133.085C221.582 132.791 221.405 132.534 221.392 132.234L221.304 130.291C221.161 127.109 221.023 123.875 221.79 120.792C221.342 119.467 220.588 118.07 219.302 117.515C218.772 117.304 218.207 117.196 217.637 117.198C215.011 117.116 212.658 118.241 210.285 119.348Z" fill="#3F3D56"/>
<path d="M212.247 97.5875C212.371 97.668 212.484 97.763 212.585 97.8703C212.704 98.0172 212.799 98.1827 212.866 98.3604C213.11 98.9515 213.256 99.5787 213.298 100.217C214.701 99.2334 215.991 98.099 217.146 96.8341C216.629 96.873 216.154 96.5038 215.907 96.0505C215.69 95.5806 215.565 95.0734 215.54 94.5566C215.527 94.4595 214.193 95.0251 214.085 95.0833C213.609 95.3424 213.164 95.6511 212.699 95.9274C212.476 96.0637 212.246 96.1884 212.009 96.3009C211.793 96.4002 211.452 96.4455 211.272 96.588C210.795 96.9723 211.953 97.3824 212.247 97.5875Z" fill="#FFC0C6"/>
<path d="M212.032 99.049C211.977 99.4656 212.049 99.8909 211.986 100.305C211.897 100.903 211.554 101.424 211.294 101.972C210.585 103.511 210.646 105.275 210.613 106.967C210.581 108.82 210.427 110.665 210.272 112.511L209.989 115.89C209.939 116.472 209.889 117.06 209.772 117.636C209.711 117.879 209.681 118.128 209.684 118.379C209.72 118.68 209.81 118.972 209.948 119.242C210.076 119.602 210.282 119.929 210.551 120.201C210.688 120.334 210.863 120.42 211.052 120.448C211.241 120.475 211.434 120.443 211.603 120.354L211.859 119.588C211.868 119.894 211.992 120.186 212.207 120.406C212.421 120.625 212.711 120.756 213.017 120.773C213.238 120.765 213.456 120.727 213.666 120.66L215.666 120.119C216.098 120.021 216.519 119.876 216.919 119.687C217.784 119.227 218.364 118.364 218.675 117.44C218.986 116.516 219.049 115.533 219.086 114.562C219.166 112.319 219.105 110.054 218.629 107.87C218.431 106.952 218.158 106.05 217.994 105.126C217.803 103.879 217.709 102.62 217.713 101.359L217.644 98.2373C217.662 97.85 217.597 97.4634 217.451 97.1039C217.375 96.9266 217.244 96.7779 217.078 96.6791C216.912 96.5803 216.719 96.5363 216.526 96.5534C215.927 96.6657 215.787 97.4364 215.462 97.9523C215.186 98.3949 214.721 98.6798 214.273 98.9497C213.979 99.1267 213.612 99.308 213.309 99.144C213.006 98.9799 213.009 98.451 212.697 98.315C212.284 98.0926 212.068 98.7295 212.032 99.049Z" fill="#F2F2F2"/>
<path d="M214.896 99.9256C214.329 101.372 214.031 102.907 213.746 104.435C213.445 106.082 213.175 107.773 213.449 109.424C213.968 112.548 216.342 115.072 217.15 118.133C217.291 118.664 217.384 119.212 217.583 119.726C217.892 120.589 218.448 121.323 218.995 122.051C219.289 122.442 219.723 122.88 220.186 122.722C220.529 122.604 220.681 122.213 220.942 121.958C221.308 121.602 221.868 121.539 222.378 121.563C222.888 121.587 223.411 121.68 223.906 121.563C224.401 121.446 224.873 121.004 224.823 120.484C224.79 120.158 224.561 119.892 224.39 119.62C223.893 118.878 223.703 117.975 223.558 117.092C222.726 112 223.098 106.765 222.213 101.681C222.103 101.033 221.965 100.385 221.599 99.8544C221.42 99.6288 221.253 99.3931 221.1 99.1485C220.962 98.883 220.901 98.5742 220.72 98.3346C220.46 97.9935 220.015 97.8662 219.606 97.7345C219.05 97.5553 218.51 97.3307 217.991 97.0631C217.598 96.8602 217.04 96.2989 216.642 96.5666C216.245 96.8343 215.944 97.769 215.73 98.1749C215.419 98.7423 215.14 99.3268 214.896 99.9256Z" fill="#3F3D56"/>
<path d="M216.608 120.972C216.301 121.043 215.975 120.946 215.665 121.015C215.157 121.131 214.866 121.647 214.636 122.114C214.552 122.258 214.5 122.418 214.483 122.584C214.477 122.667 214.498 122.75 214.542 122.82C214.586 122.89 214.652 122.944 214.729 122.975C214.815 122.987 214.903 122.976 214.982 122.942C215.062 122.908 215.131 122.853 215.181 122.783C215.28 122.642 215.396 122.513 215.527 122.401C215.886 122.161 216.374 122.416 216.653 122.744C216.932 123.072 217.142 123.484 217.518 123.681C217.736 123.778 217.97 123.835 218.208 123.849C218.458 123.89 218.712 123.89 218.962 123.849C219.088 123.829 219.207 123.78 219.309 123.704C219.412 123.629 219.495 123.531 219.552 123.417C219.607 123.268 219.632 123.11 219.624 122.951L219.66 120.792C219.675 120.666 219.65 120.538 219.587 120.428C219.511 120.34 219.411 120.277 219.299 120.246C218.897 120.093 218.026 119.573 217.622 119.834C217.17 120.153 217.256 120.823 216.608 120.972Z" fill="#FFC0C6"/>
<path d="M212.455 97.5531C214.57 97.5531 216.286 95.8404 216.286 93.7277C216.286 91.615 214.57 89.9023 212.455 89.9023C210.339 89.9023 208.624 91.615 208.624 93.7277C208.624 95.8404 210.339 97.5531 212.455 97.5531Z" fill="#FFC0C6"/>
<path d="M212.079 93.3108C212.05 93.1728 211.983 93.0456 211.886 92.9431C211.789 92.8406 211.666 92.7669 211.53 92.7301C211.423 92.7218 211.318 92.7066 211.214 92.6847C210.853 92.5617 210.862 92.0112 210.552 91.791C210.317 91.6248 209.992 91.7111 209.735 91.8363C209.478 91.9615 209.219 92.1299 208.933 92.1148C208.755 92.0917 208.588 92.0121 208.459 91.8878C208.329 91.7636 208.242 91.601 208.211 91.424C208.158 91.0673 208.226 90.7029 208.406 90.39C208.981 89.2631 210.185 88.6176 211.35 88.1254C211.855 87.8908 212.391 87.7288 212.941 87.644C213.496 87.5605 214.062 87.6809 214.534 87.9829C214.684 88.0865 214.813 88.2117 214.967 88.3089C215.118 88.3977 215.274 88.4777 215.434 88.5485C216.973 89.3192 217.775 91.2535 217.353 92.9222C217.206 93.5029 216.921 94.0491 216.832 94.6384C216.82 94.7984 216.779 94.9549 216.711 95.1004C216.515 95.4458 216.037 95.4782 215.631 95.4674C215.522 95.4767 215.414 95.451 215.321 95.394C215.237 95.3095 215.183 95.1994 215.168 95.081C215.008 94.4333 214.757 93.7706 214.232 93.354C213.951 93.1381 213.497 93.0258 213.268 93.3C213.176 93.4448 213.103 93.6008 213.051 93.7641C212.939 93.9951 212.593 94.2563 212.314 94.1959C211.923 94.1031 212.172 93.6713 212.079 93.3108Z" fill="#3F3D56"/>
<path opacity="0.1" d="M221.513 98.4189C221.053 98.3649 220.964 100.774 220.499 100.776C220.367 100.776 220.391 100.269 220.283 100.344C220.175 100.42 220.562 102.072 220.499 102.201C220.263 102.687 220.733 100.623 220.499 101.109C220.19 101.743 220.33 101.951 220.171 102.639C219.816 104.15 218.05 105.247 218.409 106.754C218.827 108.403 219.132 110.078 219.321 111.769C219.384 112.308 219.394 112.853 219.349 113.394C219.226 114.569 218.688 115.655 218.145 116.706C217.669 117.626 217.185 118.541 216.798 119.499C216.675 119.732 216.637 120.001 216.69 120.259C216.85 120.745 217.494 120.797 217.987 120.937C218.997 121.224 219.859 122.232 220.884 121.997C221.342 120.607 221.288 119.141 221.688 117.731C222.099 116.287 223.059 115.031 223.37 113.563C223.478 112.956 223.53 112.34 223.526 111.723L223.677 104.912C223.697 104.508 223.683 104.102 223.636 103.699C223.561 103.286 223.452 102.879 223.309 102.484L222.518 100.109C222.311 99.4745 222.164 98.4966 221.513 98.4189Z" fill="black"/>
<path d="M221.842 98.4188C221.38 98.3649 220.916 98.3389 220.452 98.3411C220.316 98.3183 220.177 98.3471 220.061 98.4218C219.945 98.4965 219.862 98.6117 219.827 98.7448L219.12 100.198C218.789 100.822 218.528 101.481 218.34 102.162C217.985 103.673 218.379 105.243 218.737 106.75C219.156 108.398 219.46 110.074 219.65 111.764C219.713 112.304 219.723 112.849 219.678 113.39C219.555 114.564 219.016 115.65 218.474 116.702C217.998 117.621 217.514 118.536 217.127 119.495C217.003 119.728 216.964 119.997 217.019 120.255C217.179 120.741 217.823 120.792 218.316 120.933C219.325 121.22 220.188 122.228 221.213 121.993C221.671 120.602 221.617 119.137 222.017 117.727C222.428 116.283 223.388 115.026 223.699 113.558C223.807 112.951 223.859 112.336 223.855 111.719L224.004 104.908C224.026 104.503 224.012 104.097 223.963 103.695C223.89 103.281 223.781 102.874 223.638 102.479L222.847 100.105C222.64 99.4745 222.493 98.4965 221.842 98.4188Z" fill="#3F3D56"/>
</g>
<defs>
<clipPath id="clip0_152_488">
<rect width="246" height="160" fill="white"/>
</clipPath>
</defs>
</svg>
